<?xml version="1.0" encoding="UTF-8"?>
<svg id="_Слой_1" data-name="Слой_1" xmlns="http://www.w3.org/2000/svg" version="1.1" viewBox="0 0 64.13 59.71">
  <!-- Generator: Adobe Illustrator 29.0.0, SVG Export Plug-In . SVG Version: 2.1.0 Build 186)  -->
  <path d="M21.16,1.3C8.6,3.92,1.86,16.16.34,28.03c-.37,2.88-.45,5.79-.19,8.69s1.34,5.51,2.67,7.92c2.56,4.67,6.63,8.41,11.3,10.91,9.6,5.14,21.8,5.64,31.66.94,5.95-2.83,10.39-7.84,13.63-13.49,3.65-6.38,5.45-13.78,4.44-21.11-.51-3.73-1.69-7.74-3.74-10.94-1.71-2.67-4.3-4.81-7.04-6.35C47.34,1.37,40.55.31,34.05.06,32.52,0,30.99,0,29.46.02c-1.93.04-1.93,3.04,0,3,5.9-.12,11.93.3,17.56,2.18,2.77.92,5.48,2.25,7.69,4.17,2.57,2.22,4.05,5.04,5.09,8.24,2.11,6.5,1.59,13.45-.96,19.74-2.32,5.72-6.33,11.53-11.59,14.88-8.32,5.31-19.27,5.7-28.36,2.21-4.43-1.7-8.53-4.51-11.47-8.25-1.47-1.87-2.66-4.02-3.44-6.27-.88-2.51-1.04-5-.97-7.64.26-10.39,4.72-22.43,14.89-26.85,1.3-.56,2.67-.95,4.05-1.24,1.89-.39,1.09-3.29-.8-2.89h0Z"/>
  <path d="M20.98,4.47c1.29-.37,2.6-.69,3.92-.94.66-.13,1.32-.23,1.99-.33.31-.05-.13.01.22-.03.15-.02.31-.04.46-.06.36-.04.72-.08,1.08-.11.78-.07,1.54-.64,1.5-1.5-.03-.75-.66-1.58-1.5-1.5-2.87.27-5.7.78-8.47,1.58-.75.22-1.3,1.07-1.05,1.85s1.04,1.28,1.85,1.05h0Z"/>
  <path d="M43.24,18.04c-1.87-5.19-7.8-6.93-12.78-5.58-5.38,1.46-10.5,5.7-13.58,10.28s-3.62,10.35-.62,15.17c2.8,4.5,7.65,7.23,12.84,7.91,5.68.74,11.51-.95,15.82-4.74,1.45-1.28-.67-3.39-2.12-2.12-6.14,5.39-16.5,5.54-22.3-.46-3.18-3.29-4.23-7.88-2.26-12.09s5.74-7.47,9.65-9.65c2.23-1.24,4.9-2.16,7.48-1.67,2.12.4,4.22,1.62,4.98,3.74.65,1.8,3.55,1.03,2.89-.8h0Z"/>
  <path d="M37.14,13.42c-.03-.66,0-1.31.09-1.96l-.05.4c.11-.84.32-1.66.61-2.46.13-.35.03-.85-.15-1.16s-.54-.61-.9-.69c-.38-.09-.81-.07-1.16.15s-.55.51-.69.9c-.56,1.53-.81,3.2-.75,4.82.03.78.67,1.54,1.5,1.5.79-.04,1.53-.66,1.5-1.5h0Z"/>
  <path d="M26.65,45.22c-.53,1.61-.87,3.27-1.08,4.95-.05.35.2.82.44,1.06.26.26.69.46,1.06.44s.79-.14,1.06-.44l.23-.3c.14-.23.2-.49.2-.76,0-.06.01-.11.02-.17l-.05.4c.2-1.49.54-2.95,1.01-4.38.25-.75-.29-1.67-1.05-1.85-.83-.19-1.58.25-1.85,1.05h0Z"/>
</svg>