<?xml version="1.0" encoding="UTF-8"?>
<svg id="_Слой_1" data-name="Слой_1" xmlns="http://www.w3.org/2000/svg" version="1.1" viewBox="0 0 460.86 254.84">
  <!-- Generator: Adobe Illustrator 29.0.0, SVG Export Plug-In . SVG Version: 2.1.0 Build 186)  -->
  <defs>
    <style>
      .st0 {
        fill: none;
        stroke: #000;
        stroke-miterlimit: 10;
        stroke-width: 2px;
      }
    </style>
  </defs>
  <path d="M41.36,71.03c-.34,7.25-2.17,14.46-5.46,20.95-3.11,6.14-8.64,11.53-9.57,18.58-.48,3.64.84,7.29,3.99,9.34,2.53,1.65,5.64,1.93,8.53,1.29s5.5-1.69,8.11-2.77c.86-.36,1.71-.73,2.57-1.09.41-.17.82-.35,1.22-.52.26-.11.52-.22.79-.33.31-.13-.09.04-.13.05.16-.07.33-.14.49-.21,7.1-2.99,14.2-5.96,21.31-8.93,1.49-.62,2.56-1.99,2.1-3.69-.39-1.41-2.19-2.72-3.69-2.1-6.3,2.63-12.6,5.26-18.89,7.91-2.14.9-4.28,1.8-6.41,2.71-.35.15-.69.29-1.04.44-.48.21-1.1.21.04-.01-1.26.24-2.6,1-3.81,1.43-1.4.49-2.8,1-4.25,1.32-.7.15-1.56.18-2.19.03-.97-.24-1.8-.61-2.26-1.28-.58-.84-.69-1.94-.59-2.74.37-2.87,2.02-5.48,3.58-7.87,1.88-2.88,3.83-5.65,5.38-8.73,3.71-7.41,5.79-15.51,6.18-23.78.08-1.62-1.43-3-3-3-1.69,0-2.92,1.38-3,3h0Z"/>
  <path d="M36.29,96.14c-4.9-3.45-8.04-8.31-9.59-13.98-1.83-6.66-1.97-14-1.24-20.97s2.93-13.98,7.43-19.35,10.12-8.68,16.47-10.54c14.95-4.39,31.38.87,44.79,7.98s24.27,17.48,28.03,32.04c.91,3.52,1.37,7.19,1.07,10.82s-1.98,6.45-4.58,8.93c-5.26,5.01-11.95,8.46-19.04,9.98-1.69.36-3.38.6-5.11.72-1.62.11-3,1.3-3,3,0,1.54,1.38,3.11,3,3,8.33-.58,16.45-3.39,23.26-8.26,3.42-2.45,6.88-5.3,9.04-8.98,2.27-3.86,2.73-8.5,2.42-12.89-1.2-17.03-12.28-31.19-26.26-40.15-7.23-4.64-15.31-8.26-23.52-10.77s-17.62-3.78-26.52-2.37c-7.59,1.2-14.87,4.51-20.68,9.56-6.15,5.35-10.04,12.78-11.79,20.69s-1.81,16.51-.55,24.6c1.08,6.93,3.9,13.58,8.95,18.55,1.34,1.32,2.83,2.49,4.36,3.57,1.33.93,3.34.24,4.1-1.08.88-1.5.25-3.17-1.08-4.1h0Z"/>
  <path d="M129.14,79.09c.86-18.17-2.7-37.15-11.28-53.28-4.08-7.68-9.52-14.81-16.4-20.18-1.82-1.42-3.69-2.74-5.68-3.91-.84-.49-1.69-.98-2.57-1.39-2.11-.99-3.95.39-5.56,1.67-3.29,2.62-5.04,6.69-5.63,10.78-.98,6.81.24,14.09,2.5,20.55.54,1.53,2.05,2.55,3.69,2.1,1.48-.41,2.63-2.15,2.1-3.69-.46-1.31-.84-2.65-1.18-4-.32-1.25-.59-2.51-.82-3.77-.11-.62-.21-1.25-.31-1.88.1.66-.06-.49-.07-.6-.04-.38-.08-.76-.11-1.15-.12-1.47-.17-2.94-.1-4.41.02-.39.04-.78.08-1.18,0-.11.16-1.26.06-.66.12-.76.27-1.52.47-2.26.44-1.62.58-2,1.48-3.38.06-.1.72-.95.35-.51.24-.29.49-.56.76-.83.69-.68,1.45-1.15,2.3-1.6h-3.03c9.69,4.91,16.8,12.93,22.01,22.43,2.78,5.06,4.77,9.97,6.48,15.51.86,2.79,1.6,5.63,2.22,8.48.3,1.37.57,2.75.81,4.13.22,1.27.51,3.12.63,4.04.83,6.29,1.1,12.65.8,18.98-.08,1.62,1.43,3,3,3,1.69,0,2.92-1.38,3-3h0Z"/>
  <path d="M29.38,44.36c.83-8.79,3.66-17.38,8.16-24.97,2.13-3.59,4.63-7.36,7.75-10.17.59-.53,1.21-.96,2-1.39.32-.17.57-.28.69-.32.21-.07.41-.13.63-.19.16-.05.71-.11.28-.08.2-.02.4-.02.6,0-.49-.02-.06-.03.06.03.56.27.18.07.08.02.6.33.17.14.12.07.38.5.61,1.22.72,1.99.86,5.81.76,11.92.36,17.76-.11,1.62,1.46,3,3,3,1.72,0,2.89-1.38,3-3,.41-6.03.35-12.15-.41-18.15-.35-2.77-1.29-5.49-3.89-6.91-2.32-1.27-5.01-.85-7.33.17-4.62,2.04-7.87,6.68-10.64,10.71-2.97,4.33-5.35,9.04-7.21,13.96-2.13,5.62-3.4,11.51-3.96,17.49-.15,1.62,1.49,3,3,3,1.75,0,2.85-1.38,3-3h0Z"/>
  <path d="M75.49,74.69c.12-.24.25-.47.39-.7.06-.09.53-.78.35-.54s.25-.28.33-.36c.22-.24.46-.46.7-.67.09-.08.18-.16.28-.23-.03.02-.41.29-.13.11.24-.15.46-.31.71-.45.21-.12.42-.23.64-.34.11-.06.22-.1.33-.15.39-.19-.46.17-.04.02,1.09-.38,2.18-.69,3.31-.89.26-.05.52-.09.79-.13-.64.1.25-.03.41-.04.64-.07,1.28-.12,1.93-.16,4.96-.33,10.25,0,14.99-1.73,2.99-1.09,5.44-2.87,7.22-5.54.9-1.35.26-3.32-1.08-4.1-1.47-.86-3.2-.27-4.1,1.08-.1.15-.47.65-.16.25-.19.23-.39.46-.6.67-.18.18-.36.35-.55.52-.48.45.18-.06-.38.29-.46.29-.91.57-1.4.81-.2.1-.69.29-.2.1-.28.11-.56.21-.84.3-1.13.37-2.29.6-3.47.78.53-.08-.09.01-.29.03-.32.04-.64.07-.97.1-.65.06-1.31.1-1.96.14-4.98.28-10.27.04-14.96,2.01-2.75,1.16-5.03,3.11-6.43,5.78-.75,1.44-.37,3.26,1.08,4.1,1.35.79,3.35.36,4.1-1.08h0Z"/>
  <path d="M95.46,64.82c-.08.07-.95.74-.45.36-.28.22-.57.43-.86.64-.58.42-1.17.82-1.76,1.21-1.19.77-2.42,1.48-3.68,2.13-.63.32-1.27.63-1.91.92-.11.05-1.12.47-.5.22-.33.13-.65.26-.98.39-1.32.5-2.66.93-4.01,1.29-1.52.41-2.59,2.15-2.1,3.69s2.07,2.53,3.69,2.1c6.19-1.66,11.84-4.68,16.81-8.69,1.23-.99,1.11-3.23,0-4.24-1.3-1.2-2.93-1.06-4.24,0h0Z"/>
  <path d="M47.85,70.29c-1-2.75-2.65-5.25-5.32-6.62-2.3-1.18-4.84-1.51-7.39-1.69-1.13-.08-2.26-.12-3.39-.22-.3-.03-.6-.06-.89-.09-.63-.07.59.13-.08-.01-.57-.12-1.14-.21-1.71-.38-.21-.06-.41-.13-.61-.2-.13-.05-.27-.1-.4-.15.39.17.43.18.13.04-.24-.15-.51-.28-.75-.42-.12-.08-.24-.16-.36-.24.31.25.34.27.08.06-.17-.15-.34-.3-.5-.46-.1-.1-.72-.88-.3-.3-.42-.57-.76-1.19-1.06-1.84-.68-1.47-2.8-1.84-4.1-1.08-1.51.88-1.76,2.63-1.08,4.1,1.25,2.7,3.4,4.71,6.15,5.83,2.17.88,4.53,1.08,6.84,1.23,1.13.07,2.25.13,3.38.23.19.02.88.12.08,0,.29.04.57.09.86.14.49.09.97.21,1.45.36.18.06,1.02.45.26.07.25.12.5.24.74.38.18.11.35.23.53.34.26.19.23.17-.1-.08.11.09.22.19.32.29.18.19.36.38.54.57.14.16.1.11-.11-.15.09.13.19.26.27.4.19.29.33.59.5.89.14.31.15.32.03.03.07.18.14.36.2.54.55,1.52,2.04,2.55,3.69,2.1,1.47-.4,2.65-2.16,2.1-3.69h0Z"/>
  <path d="M25.77,66.97c3.27,3.82,7.33,6.87,12.03,8.69.68.27,1.7.05,2.31-.3s1.22-1.08,1.38-1.79c.17-.77.14-1.63-.3-2.31s-1.03-1.08-1.79-1.38c-.13-.05-.25-.1-.38-.15-.35-.13.6.27.26.11-.23-.1-.45-.2-.68-.31-.48-.23-.95-.47-1.42-.73-.93-.52-1.83-1.11-2.68-1.74-.09-.07-.19-.15-.28-.21.21.14.48.37.12.09-.21-.17-.42-.34-.63-.51-.42-.35-.83-.72-1.23-1.09-.87-.82-1.69-1.69-2.47-2.6-1.02-1.2-3.2-1.13-4.24,0-1.17,1.27-1.09,2.97,0,4.24h0Z"/>
  <path d="M124.06,71.75c15.57,9.98,33.46,14.92,51.79,16.36s35.92-.32,53.74-2.16c10.04-1.03,20.07-2.12,30.14-2.76,1.62-.1,3-1.31,3-3,0-1.55-1.37-3.1-3-3-17.77,1.12-35.41,3.64-53.18,4.81-17.37,1.14-35.06,1.04-52-3.42-9.74-2.57-18.98-6.58-27.46-12.02-1.36-.87-3.31-.28-4.1,1.08-.85,1.45-.29,3.23,1.08,4.1h0Z"/>
  <path d="M54.41,112.23c-3.65,17.8-9.28,35.14-16.15,51.95-6.74,16.52-14.71,32.52-23.15,48.23-4.73,8.8-9.62,17.51-14.57,26.2-1.91,3.36,3.27,6.39,5.18,3.03,8.85-15.53,17.53-31.18,25.41-47.23s15.32-33.25,21.03-50.62c3.23-9.83,5.95-19.83,8.03-29.97.33-1.59-.46-3.24-2.1-3.69-1.48-.41-3.36.5-3.69,2.1h0Z"/>
  <path d="M62.14,153c9.16,7.5,20.97,11.58,32.84,10.1,1.61-.2,3-1.24,3-3,0-1.47-1.38-3.2-3-3-10.25,1.28-20.6-1.8-28.6-8.34-1.25-1.03-3.02-1.23-4.24,0-1.06,1.06-1.26,3.21,0,4.24h0Z"/>
  <path d="M30.38,235.85c12.3-19.21,24.59-38.41,36.89-57.62,3.5-5.47,7-10.94,10.5-16.4.87-1.36.28-3.31-1.08-4.1-1.45-.85-3.23-.29-4.1,1.08-12.3,19.21-24.59,38.41-36.89,57.62l-10.5,16.4c-.87,1.36-.28,3.31,1.08,4.1,1.45.85,3.23.29,4.1-1.08h0Z"/>
  <path d="M94.71,163.4c10.19,22.2,21.26,43.99,33.2,65.3,3.36,6,6.8,11.96,10.3,17.88,1.96,3.32,7.15.31,5.18-3.03-12.39-20.97-23.93-42.44-34.59-64.34-3.04-6.25-6.01-12.53-8.91-18.84-.68-1.47-2.8-1.84-4.1-1.08-1.51.88-1.75,2.63-1.08,4.1h0Z"/>
  <path d="M141.14,248.69c8.5,4.2,17.87,6.4,27.36,6.13,3.85-.11,3.87-6.11,0-6-8.42.24-16.78-1.58-24.34-5.31-1.45-.72-3.25-.39-4.1,1.08-.77,1.32-.38,3.38,1.08,4.1h0Z"/>
  <path d="M129.32,155.31c5.82,26.66,14.63,52.66,26.33,77.32,3.3,6.95,6.83,13.79,10.6,20.51,1.89,3.37,7.07.35,5.18-3.03-13.13-23.44-23.4-48.41-30.76-74.25-2.09-7.32-3.93-14.71-5.56-22.15-.35-1.58-2.19-2.51-3.69-2.1-1.63.45-2.44,2.1-2.1,3.69h0Z"/>
  <path d="M95.94,163.12c3.86,0,3.87-6,0-6s-3.87,6,0,6h0Z"/>
  <path d="M135.64,166.94c20.72,2.36,41.66,2.42,62.4.17,1.61-.17,3-1.25,3-3,0-1.49-1.38-3.18-3-3-20.73,2.25-41.68,2.2-62.4-.17-1.61-.18-3,1.51-3,3,0,1.77,1.38,2.82,3,3h0Z"/>
  <path d="M236.6,120.6c-4.39,3.31-6.9,7.86-7.31,13.35-.38,5.06,1.15,10.16,3.32,14.67s5.49,8.79,9.51,12c4.62,3.7,9.89,6.19,15.36,8.35,5.83,2.3,11.73,4.15,17.23,7.05,1.43.75,3.26.37,4.1-1.08.79-1.35.36-3.35-1.08-4.1-9.29-4.89-19.78-6.95-28.64-12.56-2.15-1.36-4.06-2.87-5.84-4.71-.43-.44-.84-.89-1.24-1.36-.16-.18-.31-.37-.47-.56-.07-.09-.46-.58-.17-.21-.69-.89-1.32-1.83-1.91-2.79-1.19-1.95-2.08-3.74-2.75-5.63-.36-1.01-.67-2.04-.92-3.08-.29-1.23-.42-2.03-.5-2.94-.21-2.55-.11-4.05.71-6.37,0-.01.37-.91.14-.39.12-.27.25-.54.4-.81.28-.54.6-1.06.96-1.55.17-.24.5-.62.95-1.07.33-.34,1.01-.94,1.16-1.05,1.29-.97,1.96-2.59,1.08-4.1-.74-1.27-2.8-2.06-4.1-1.08h0Z"/>
  <path d="M256.7,83.09c19.05,6.26,29.79,26.59,37.81,43.82,10.32,22.18,18.36,45.42,24.11,69.2,3.23,13.34,5.75,26.86,7.48,40.48.21,1.61,1.23,3,3,3,1.46,0,3.21-1.38,3-3-3.22-25.2-8.83-50.05-16.96-74.12-4.05-11.98-8.7-23.75-13.92-35.26-4.49-9.9-9.33-19.74-15.79-28.52-6.97-9.47-15.78-17.65-27.13-21.38-1.54-.51-3.28.59-3.69,2.1-.45,1.63.55,3.18,2.1,3.69h0Z"/>
  <path d="M318.83,246.79c-.25.12-.52.29-.78.37.73-.22.09-.04-.09.02-.47.18-.95.33-1.44.46s-.97.24-1.47.33c-.14.02-.28.05-.42.07.44-.06.5-.07.16-.03-.25.02-.5.04-.75.06-.5.03-1,.03-1.5,0-.25-.01-.5-.04-.75-.06-.63-.05.64.11-.16-.03-.49-.09-.98-.2-1.46-.34-.24-.07-.48-.15-.72-.24-.14-.05-.27-.1-.41-.15.38.16.42.18.12.04-.76-.34-1.48-.53-2.31-.3-.7.19-1.45.73-1.79,1.38-.69,1.31-.45,3.42,1.08,4.1,2.49,1.12,5.15,1.73,7.9,1.59s5.35-.89,7.82-2.1c1.41-.69,1.91-2.81,1.08-4.1-.93-1.45-2.59-1.82-4.1-1.08h0Z"/>
  <path d="M325.91,238.55c-.17.61-.37,1.2-.61,1.78l.3-.72c-.54,1.27-1.23,2.46-2.08,3.55l.47-.61c-.87,1.11-1.86,2.1-2.97,2.96l.61-.47c-.07.05-.14.11-.21.16-.65.49-1.15.98-1.38,1.79-.2.72-.11,1.67.3,2.31s1.03,1.2,1.79,1.38,1.68.17,2.31-.3c1.81-1.36,3.33-2.87,4.65-4.72,1.18-1.65,2.05-3.56,2.6-5.52.42-1.51-.52-3.33-2.1-3.69s-3.24.48-3.69,2.1h0Z"/>
  <path d="M308.76,248.5c4.72-11.89,4.56-25.7-.24-37.54-.61-1.5-2-2.56-3.69-2.1-1.42.39-2.71,2.18-2.1,3.69,4.46,10.99,4.62,23.3.24,34.35-.6,1.51.65,3.29,2.1,3.69,1.71.47,3.09-.58,3.69-2.1h0Z"/>
  <path d="M304.01,251.23l3.16,1.44c.34.22.72.34,1.12.36.4.09.8.07,1.2-.05.39-.09.73-.27,1.02-.54.33-.21.58-.49.77-.84.37-.7.55-1.54.3-2.31l-.3-.72c-.27-.45-.63-.81-1.08-1.08l-3.16-1.44c-.34-.22-.72-.34-1.12-.36-.4-.09-.8-.07-1.2.05-.39.09-.73.27-1.02.54-.33.21-.58.49-.77.84-.37.7-.55,1.54-.3,2.31l.3.72c.27.45.63.81,1.08,1.08h0Z"/>
  <path d="M256.27,82.87c14.24-.6,28.8-1.24,42.8,1.96,6.77,1.55,13.16,4.03,19.2,7.45s12.02,7.75,17.82,11.92c11.47,8.23,23.44,15.55,36.15,21.72s25.87,11.31,39.26,15.74c14.97,4.94,30.22,8.98,45.56,12.63l-1.32-5.01c-11.1,9.64-24.3,16.82-38.41,20.95-13.88,4.06-28.69,5.21-42.98,2.87-12.8-2.09-24.65-6.62-35.65-13.31-2.38-1.44-4.7-2.98-6.97-4.59s-3.57-2.62-5.69-4.35c-3.28-2.69-6.42-5.55-9.4-8.57-6.05-6.12-10.9-12.56-15.86-19.53-.94-1.31-1.87-2.63-2.79-3.96s-2.63-1.94-4.1-1.08c-1.31.77-2.01,2.77-1.08,4.1,5.56,7.99,11.21,15.93,17.93,22.99s13.78,12.93,21.66,18.1c10.91,7.16,23.15,12.45,35.93,15.15,15,3.17,30.58,2.86,45.48-.69,15.16-3.61,29.41-10.58,41.69-20.15,1.53-1.19,3.02-2.42,4.48-3.69,1.7-1.47.78-4.51-1.32-5.01-27.3-6.49-54.52-14.22-80-26.14-12.82-6-25.08-13.06-36.62-21.25-5.84-4.14-11.57-8.45-17.68-12.2-6.13-3.76-12.65-6.82-19.57-8.8-15.73-4.5-32.34-3.91-48.51-3.23-1.62.07-3,1.33-3,3,0,1.57,1.37,3.07,3,3h0Z"/>
  <path d="M308.65,211.27c-4.7-12.92-12.39-24.76-22.6-34.01-2.89-2.61-5.97-5.02-9.2-7.2-1.34-.91-3.32-.26-4.1,1.08-.86,1.48-.27,3.19,1.08,4.1,13.35,9.02,23.54,22.52,29.04,37.62.55,1.52,2.04,2.55,3.69,2.1,1.47-.4,2.65-2.16,2.1-3.69h0Z"/>
  <path d="M326.34,236.98c-.13.88-.33,1.75-.61,2.6-.07.21-.15.41-.23.62-.22.64.23-.46-.04.1-.19.4-.38.79-.6,1.17s-.45.75-.7,1.12c-.11.16-.23.4-.38.53.53-.47.06-.08-.07.08-.58.7-1.22,1.34-1.91,1.93-.07.06-.64.52-.28.24s-.23.16-.3.21c-.35.25-.71.48-1.09.69s-.75.41-1.13.6c-.1.05-.19.09-.29.13.36-.15.43-.18.23-.1-.2.07-.39.15-.6.22-.4.14-.8.26-1.21.36-.2.05-.41.1-.62.14-.1.02-.82.17-.33.07s-.22.02-.33.03c-.21.02-.42.03-.63.03-.46.01-.92,0-1.37-.04-1.57-.12-3.07,1.47-3,3,.08,1.73,1.32,2.87,3,3,8.74.69,17.03-6.64,18.28-15.15.23-1.55-.38-3.3-2.1-3.69-1.42-.32-3.45.43-3.69,2.1h0Z"/>
  <path d="M304.69,251.74c1.8.49,3.61.99,5.41,1.48.75.21,1.64.09,2.31-.3.62-.36,1.22-1.08,1.38-1.79.17-.77.14-1.63-.3-2.31s-1.02-1.17-1.79-1.38c-1.8-.49-3.61-.99-5.41-1.48-.75-.21-1.64-.09-2.31.3-.62.36-1.22,1.08-1.38,1.79-.17.77-.14,1.63.3,2.31s1.02,1.17,1.79,1.38h0Z"/>
  <path d="M28.01,238.96l3.38-4.67c.22-.34.34-.72.36-1.12.09-.4.07-.8-.05-1.2-.19-.7-.73-1.45-1.38-1.79-.7-.37-1.54-.55-2.31-.3l-.72.3c-.45.27-.81.63-1.08,1.08l-3.38,4.67c-.22.34-.34.72-.36,1.12-.09.4-.07.8.05,1.2.19.7.73,1.45,1.38,1.79.7.37,1.54.55,2.31.3l.72-.3c.45-.27.81-.63,1.08-1.08h0Z"/>
  <path d="M139.03,247.52l1.86,1.08c.34.22.72.34,1.12.36.4.09.8.07,1.2-.05.39-.09.73-.27,1.02-.54.33-.21.58-.49.77-.84l.3-.72c.14-.53.14-1.06,0-1.6l-.3-.72c-.27-.45-.63-.81-1.08-1.08l-1.86-1.08c-.34-.22-.72-.34-1.12-.36-.4-.09-.8-.07-1.2.05-.39.09-.73.27-1.02.54-.33.21-.58.49-.77.84l-.3.72c-.14.53-.14,1.06,0,1.6l.3.72c.27.45.63.81,1.08,1.08h0Z"/>
  <path d="M93.91,161.93l.85,1.79c.19.35.45.63.77.84.29.27.63.44,1.02.54.4.13.8.14,1.2.05.4-.02.77-.14,1.12-.36l.61-.47c.37-.37.63-.82.77-1.32l.11-.8c0-.54-.14-1.05-.41-1.51l-.85-1.79c-.19-.35-.45-.63-.77-.84-.29-.27-.63-.44-1.02-.54-.4-.13-.8-.14-1.2-.05-.4.02-.77.14-1.12.36l-.61.47c-.37.37-.63.82-.77,1.32l-.11.8c0,.54.14,1.05.41,1.51h0Z"/>
  <path d="M197.12,167.27c16.28-.83,32.49-2.78,48.5-5.82,1.59-.3,2.5-2.22,2.1-3.69-.46-1.67-2.09-2.4-3.69-2.1-15.49,2.94-31.16,4.81-46.91,5.61-1.62.08-3,1.32-3,3,0,1.56,1.37,3.08,3,3h0Z"/>
  <path d="M220.91,161.29c-7.53,20.86-16.53,41.18-27.02,60.73-2.99,5.56-6.1,11.06-9.32,16.49-1.98,3.33,3.21,6.35,5.18,3.03,11.56-19.49,21.58-39.86,30.12-60.85,2.4-5.89,4.67-11.83,6.83-17.81.55-1.52-.62-3.28-2.1-3.69-1.67-.46-3.14.57-3.69,2.1h0Z"/>
  <path d="M212.85,240.16c12.04-18.8,24.07-37.6,36.11-56.4,3.41-5.33,6.83-10.66,10.24-15.99.87-1.36.28-3.31-1.08-4.1-1.45-.85-3.23-.29-4.1,1.08-12.04,18.8-24.07,37.6-36.11,56.4-3.41,5.33-6.83,10.66-10.24,15.99-.87,1.36-.28,3.31,1.08,4.1,1.45.85,3.23.29,4.1-1.08h0Z"/>
  <path d="M206.85,238.15c-5.1,3.99-12.7,4.65-18.41,1.74-1.44-.73-3.25-.38-4.1,1.08-.78,1.34-.37,3.37,1.08,4.1,8.4,4.27,18.32,3.08,25.68-2.68,1.28-1,1.05-3.19,0-4.24-1.26-1.26-2.96-1-4.24,0h0Z"/>
  <path d="M23.88,235.2c-6.78,2.13-13.78,3.08-20.88,2.81-1.62-.06-3,1.42-3,3,0,1.68,1.37,2.94,3,3,7.59.29,15.23-.75,22.47-3.03,1.55-.49,2.54-2.09,2.1-3.69s-2.14-2.58-3.69-2.1h0Z"/>
  <path class="st0" d="M185.25,51.42"/>
  <path d="M420.48,139.92c-5.74,2.43-11.49,4.86-17.23,7.29-2.08.88-1.84,4.23,0,5.18,4.14,2.14,8.28,4.28,12.42,6.42v-5.18c-6.07,4.23-12.57,7.9-19.41,10.74-2.48,1.03-2.9,3.87-.72,5.48,3.91,2.9,8.04,5.45,12.4,7.62,1.45.72,3.25.39,4.1-1.08.78-1.33.38-3.38-1.08-4.1-4.35-2.17-8.49-4.72-12.4-7.62l-.72,5.48c7.34-3.05,14.32-6.8,20.84-11.35,1.73-1.2,2.15-4.07,0-5.18-4.14-2.14-8.28-4.28-12.42-6.42v5.18c5.74-2.43,11.49-4.86,17.23-7.29,1.49-.63,1.82-2.83,1.08-4.1-.9-1.55-2.61-1.71-4.1-1.08h0Z"/>
  <path d="M304.3,251.93c1.93.89,3.9,1.57,6.01,1.87,2.35.33,4.56.31,6.91-.05.69-.11,1.46-.8,1.79-1.38.38-.64.54-1.59.3-2.31s-.68-1.43-1.38-1.79c-.76-.4-1.47-.43-2.31-.3-.12.02-.25.04-.37.05l.8-.11c-1.61.21-3.24.21-4.85,0l.8.11c-.9-.12-1.79-.3-2.66-.56-.42-.12-.84-.26-1.25-.41-.15-.06-.46-.25-.61-.24.43.18.49.21.2.08-.12-.05-.23-.1-.34-.16-.75-.35-1.49-.53-2.31-.3-.7.19-1.45.73-1.79,1.38-.7,1.32-.44,3.4,1.08,4.1h0Z"/>
</svg>