<?xml version="1.0" encoding="UTF-8"?>
<svg id="_Слой_1" data-name="Слой_1" xmlns="http://www.w3.org/2000/svg" version="1.1" viewBox="0 0 428.57 271.22">
  <!-- Generator: Adobe Illustrator 29.0.0, SVG Export Plug-In . SVG Version: 2.1.0 Build 186)  -->
  <defs>
    <style>
      .st0 {
        fill: none;
        stroke: #000;
        stroke-miterlimit: 10;
      }

      .st1 {
        fill: red;
      }

      .st2 {
        fill: #ed1c24;
      }
    </style>
  </defs>
  <path d="M365.96,19.81c6.15,1.36,11.73,4.51,16.26,8.86,1.39,1.34,3.52-.78,2.12-2.12-4.88-4.69-10.95-8.17-17.58-9.64-1.88-.42-2.68,2.47-.8,2.89h0Z"/>
  <path d="M168.59,30.05c-2.48-7.91-8.73-13.99-16.1-17.5-.73-.35-1.62-.2-2.05.54-.38.65-.2,1.7.54,2.05,6.66,3.18,12.47,8.52,14.72,15.7.58,1.84,3.47,1.05,2.89-.8h0Z"/>
  <path class="st2" d="M369,70.32c6.23,6.35,12.47,12.7,18.7,19.06,1.35,1.38,3.48-.74,2.12-2.12-6.23-6.35-12.47-12.7-18.7-19.06-1.35-1.38-3.48.74-2.12,2.12h0Z"/>
  <path class="st1" d="M389.89,67.23c-12.06,5.63-22.88,13.77-31.68,23.75-1.27,1.44.84,3.57,2.12,2.12,8.65-9.81,19.22-17.75,31.07-23.28,1.75-.82.23-3.4-1.51-2.59h0Z"/>
  <path d="M386.25,38.35c1.37,6.14.27,12.63-2.98,18.01-1,1.66,1.59,3.17,2.59,1.51,3.66-6.07,4.82-13.41,3.28-20.32-.42-1.88-3.31-1.09-2.89.8h0Z"/>
  <path d="M298.14,3.42c32.51.16,65.02.19,97.53.12,9.12-.02,18.23-.05,27.35-.09,1.93,0,1.93-3.01,0-3-32.49.13-64.98.16-97.46.07-9.14-.02-18.28-.06-27.42-.1-1.93,0-1.93,2.99,0,3h0Z"/>
  <path d="M222.28,3.51c18.21-.03,36.42-.06,54.63-.11,1.93,0,1.93-3,0-3-18.21.05-36.42.08-54.63.11-1.93,0-1.93,3,0,3h0Z"/>
  <path d="M43.25,3.45c30.95.13,61.9.16,92.85.14,8.65,0,17.31-.01,25.96-.02,1.93,0,1.93-3,0-3-30.95.03-61.9.04-92.85-.03-8.65-.02-17.31-.05-25.96-.09-1.93,0-1.93,2.99,0,3h0Z"/>
  <path d="M17.54,3.31c3.5.02,7,.04,10.5.06.81,0,1.5-.69,1.5-1.5s-.69-1.5-1.5-1.5c-3.5-.02-7-.04-10.5-.06-.81,0-1.5.69-1.5,1.5s.69,1.49,1.5,1.5h0Z"/>
  <path d="M.92,236.35c-.17,6.1-.41,12.19-.77,18.28-.11,1.93,2.89,1.92,3,0,.36-6.09.6-12.18.77-18.28.05-1.93-2.95-1.93-3,0h0Z"/>
  <path d="M.32,150.66c.17,17.47.64,34.94.81,52.42.05,4.99.07,9.99.06,14.98,0,1.93,2.99,1.93,3,0,.05-17.48-.37-34.95-.66-52.42-.08-4.99-.16-9.98-.21-14.98-.02-1.93-3.02-1.93-3,0H.32Z"/>
  <path d="M3.09,76.84C1.05,95.95.36,115.17.27,134.37c0,1.93,2.99,1.93,3,0,.09-19.21.78-38.42,2.82-57.53.2-1.92-2.8-1.9-3,0h0Z"/>
  <path d="M338.27,270.7c23.13.06,46.26.15,69.38.29,6.49.04,12.98.08,19.47.13,1.93.01,1.93-2.99,0-3-23.13-.17-46.26-.28-69.38-.36-6.49-.02-12.98-.04-19.47-.06-1.93,0-1.93,2.99,0,3h0Z"/>
  <path d="M219.48,270.54c26.79.03,53.58.05,80.38.09,7.65.01,15.31.02,22.96.04,1.93,0,1.93-3,0-3-26.79-.06-53.58-.08-80.38-.1-7.65,0-15.31-.01-22.96-.02-1.93,0-1.93,3,0,3h0Z"/>
  <path d="M58.78,270.04c27.07.52,54.14,1.2,81.22,1.17,7.64,0,15.28-.08,22.92-.22,1.93-.04,1.93-3.04,0-3-27.08.5-54.16.05-81.23-.49-7.64-.15-15.28-.31-22.92-.46-1.93-.04-1.93,2.96,0,3h0Z"/>
  <path d="M2.26,269.48c12.48-.05,24.96.05,37.44.23,1.93.03,1.93-2.97,0-3-12.48-.18-24.96-.28-37.44-.23-1.93,0-1.93,3.01,0,3h0Z"/>
  <path d="M426.01,28.81c.04-8.75.09-17.5.15-26.25.01-1.93-2.99-1.93-3,0-.06,8.75-.11,17.5-.15,26.25,0,1.93,2.99,1.93,3,0h0Z"/>
  <path d="M425.86,173.44c-.03-27.31-.05-54.62-.02-81.94,0-7.66.02-15.32.04-22.98,0-1.93-3-1.93-3,0-.06,27.31-.07,54.62-.04,81.94,0,7.66.01,15.32.02,22.98,0,1.93,3,1.93,3,0h0Z"/>
  <path d="M428.24,268.83c-.81-18.65-1.38-37.3-1.79-55.96-.04-1.93-3.04-1.93-3,0,.4,18.66.98,37.32,1.79,55.96.08,1.92,3.08,1.93,3,0h0Z"/>
  <path d="M.01,255.46c-.04,4.05.02,8.11.16,12.16.03.81.67,1.5,1.5,1.5s1.53-.69,1.5-1.5c-.15-4.05-.2-8.1-.16-12.16.02-1.93-2.98-1.93-3,0H.01Z"/>
  <path class="st0" d="M9.16.91h15.69"/>
  <path class="st0" d="M4.93,60.45c.18-19.25.14-38.5-.15-57.75"/>
  <path d="M6.04,61.27c.03-13.21.06-26.42.1-39.63,0-1.93-3-1.93-3,0-.03,13.21-.06,26.42-.1,39.63,0,1.93,3,1.93,3,0h0Z"/>
  <path d="M3.6,2.8l-.18,21.66c-.02,1.93,2.98,1.93,3,0l.18-21.66c.02-1.93-2.98-1.93-3,0h0Z"/>
  <path d="M6.75,3.74l10.56-.23c.81-.02,1.5-.68,1.5-1.5s-.69-1.52-1.5-1.5l-10.56.23c-.81.02-1.5.68-1.5,1.5s.69,1.52,1.5,1.5h0Z"/>
  <path d="M278.8,3.15l.24.24c.14.15.3.25.48.31.18.09.37.14.58.13.21,0,.4-.04.58-.13.19-.06.35-.16.48-.31l.23-.3c.14-.23.2-.49.2-.76l-.05-.4c-.07-.25-.2-.47-.39-.66l-.24-.24c-.14-.15-.3-.25-.48-.31-.18-.09-.37-.14-.58-.13-.21,0-.4.04-.58.13-.19.06-.35.16-.48.31l-.23.3c-.14.23-.2.49-.2.76l.05.4c.07.25.2.47.39.66h0Z"/>
  <path d="M27.91,2.96c1.55,3.52,3.1,7.05,4.64,10.57.33.74,1.41.91,2.05.54.77-.45.87-1.31.54-2.05-1.55-3.52-3.1-7.05-4.64-10.57-.33-.74-1.41-.91-2.05-.54-.77.45-.87,1.31-.54,2.05h0Z"/>
  <path d="M35.64,11.81c2.53-3,5.06-6,7.6-9.01.51-.6.63-1.54,0-2.12-.56-.51-1.58-.64-2.12,0-2.53,3-5.06,6-7.6,9.01-.51.6-.63,1.54,0,2.12.56.51,1.58.64,2.12,0h0Z"/>
  <path d="M4.06,63.56l5.37,3.74-.69-1.69c-1.31,3.75-3.02,7.34-5.08,10.75-1,1.66,1.59,3.17,2.59,1.51,2.19-3.62,3.98-7.47,5.38-11.46.23-.66-.17-1.33-.69-1.69l-5.37-3.74c-.67-.46-1.67-.12-2.05.54-.44.75-.13,1.59.54,2.05h0Z"/>
  <path d="M278.81,3.11c2.03,6.73,4.63,13.28,7.76,19.58.86,1.73,3.45.21,2.59-1.51-3.02-6.07-5.51-12.37-7.46-18.86-.56-1.84-3.45-1.06-2.89.8h0Z"/>
  <path d="M295.66,2.65c-1.22,5.48-2.44,10.96-3.67,16.43-.42,1.88,2.47,2.68,2.89.8,1.22-5.48,2.44-10.96,3.67-16.43.42-1.88-2.47-2.68-2.89-.8h0Z"/>
  <path d="M289.27,23.57c1.4-.73,2.8-1.46,4.2-2.19.7-.36.96-1.39.54-2.05-.46-.71-1.31-.93-2.05-.54-1.4.73-2.8,1.46-4.2,2.19-.7.36-.96,1.39-.54,2.05.46.71,1.31.93,2.05.54h0Z"/>
  <path d="M276.44,3.18l3.18-.18c.4-.02.77-.15,1.06-.44.26-.26.46-.69.44-1.06s-.14-.79-.44-1.06-.66-.46-1.06-.44l-3.18.18c-.4.02-.77.15-1.06.44-.26.26-.46.69-.44,1.06s.14.79.44,1.06.66.46,1.06.44h0Z"/>
  <path d="M161.85,3.49c7.76,2.91,15.52,5.81,23.29,8.72,1.81.68,2.59-2.22.8-2.89L162.64.59c-1.81-.68-2.59,2.22-.8,2.89h0Z"/>
  <path d="M186.4,12.24c3.23-1.24,6.42-2.57,9.58-3.98.72-.32.94-1.42.54-2.05-.48-.74-1.28-.88-2.05-.54-2.96,1.33-5.81,2.51-8.86,3.68-.73.28-1.31,1.02-1.05,1.85.23.71,1.06,1.35,1.85,1.05h0Z"/>
  <path d="M423.46,171.67c-17.17,3.43-34.35,6.86-51.52,10.29-1.89.38-1.09,3.27.8,2.89,17.17-3.43,34.35-6.86,51.52-10.29,1.89-.38,1.09-3.27-.8-2.89h0Z"/>
  <path d="M370.8,185.7c3.12,6,6.25,12,9.37,18,.89,1.71,3.48.2,2.59-1.51-3.12-6-6.25-12-9.37-18-.89-1.71-3.48-.2-2.59,1.51h0Z"/>
  <path d="M382.19,205.66c13.37,2.65,26.74,5.3,40.11,7.95,1.89.37,2.69-2.52.8-2.89-13.37-2.65-26.74-5.3-40.11-7.95-1.89-.37-2.69,2.52-.8,2.89h0Z"/>
  <path d="M2.53,151.34c8.99-3.41,18.29-5.89,27.78-7.41,1.9-.3,1.09-3.2-.8-2.89-9.49,1.52-18.8,4-27.78,7.41-1.79.68-1.01,3.58.8,2.89h0Z"/>
  <path d="M29.29,140.53c-8.85,1.22-17.9,1.13-26.73-.23-1.89-.29-2.7,2.6-.8,2.89,9.41,1.45,18.89,1.53,28.32.23.81-.11,1.23-1.14,1.05-1.85-.23-.87-1.05-1.16-1.85-1.05h0Z"/>
  <path d="M3.79,141.38c-.18-2.06-.37-4.12-.55-6.18-.07-.78-.64-1.54-1.5-1.5-.75.03-1.57.66-1.5,1.5.18,2.06.37,4.12.55,6.18.07.78.64,1.54,1.5,1.5.75-.03,1.57-.66,1.5-1.5h0Z"/>
  <path d="M196.14,9.66c3.16,9.05,6.32,18.09,9.49,27.14.63,1.81,3.53,1.03,2.89-.8-3.16-9.05-6.32-18.09-9.49-27.14-.63-1.81-3.53-1.03-2.89.8h0Z"/>
  <path d="M208.85,36.59c3.81-7.08,8.42-13.69,13.78-19.68,1.28-1.44-.83-3.56-2.12-2.12-5.52,6.18-10.32,12.99-14.25,20.29-.91,1.7,1.67,3.22,2.59,1.51h0Z"/>
  <path d="M223.75,14.92l-.17-11.48c-.03-1.93-3.03-1.93-3,0l.17,11.48c.03,1.93,3.03,1.93,3,0h0Z"/>
  <path d="M198.8,7.99l-1.9-2.33c-.14-.15-.3-.25-.48-.31-.18-.09-.37-.14-.58-.13-.37,0-.81.16-1.06.44s-.46.66-.44,1.06l.05.4c.07.25.2.47.39.66l1.9,2.33c.14.15.3.25.48.31.18.09.37.14.58.13.37,0,.81-.16,1.06-.44s.46-.66.44-1.06l-.05-.4c-.07-.25-.2-.47-.39-.66h0Z"/>
  <path d="M167.13,269.23c4.57-3.97,9.13-7.95,13.7-11.92.61-.53.54-1.58,0-2.12-.61-.61-1.51-.53-2.12,0-4.57,3.97-9.13,7.95-13.7,11.92-.61.53-.54,1.58,0,2.12.61.61,1.51.53,2.12,0h0Z"/>
  <path d="M198.21,244.01c1.85-.28,3.69-.63,5.51-1.06.76-.18,1.29-1.09,1.05-1.85-.26-.8-1.03-1.24-1.85-1.05-1.82.43-3.66.78-5.51,1.06-.35.05-.73.4-.9.69-.19.32-.27.8-.15,1.16s.34.71.69.9c.38.2.73.21,1.16.15h0Z"/>
  <path d="M202.96,242.56c4.11,8.38,8.22,16.77,12.32,25.15.85,1.73,3.44.21,2.59-1.51-4.11-8.38-8.22-16.77-12.32-25.15-.85-1.73-3.44-.21-2.59,1.51h0Z"/>
  <path d="M165.11,270.81l1.06-.79c.17-.09.32-.22.42-.39.13-.14.22-.31.27-.51.06-.2.07-.4.03-.6,0-.2-.07-.39-.18-.56l-.23-.3c-.19-.19-.41-.31-.66-.39l-.4-.05c-.27,0-.52.07-.76.2l-1.06.79c-.17.09-.32.22-.42.39-.13.14-.22.31-.27.51-.06.2-.07.4-.03.6,0,.2.07.39.18.56l.23.3c.19.19.41.31.66.39l.4.05c.27,0,.52-.07.76-.2h0Z"/>
  <path d="M219.49,267.63c-.06,0-.12-.01-.17-.02l.4.05c-.3-.04-.59-.12-.87-.24l.36.15c-.29-.12-.57-.29-.82-.48l.3.23c-.24-.19-.45-.4-.64-.64l.23.3c-.18-.23-.32-.48-.44-.74l.15.36s-.03-.08-.05-.12c-.14-.38-.33-.69-.69-.9-.32-.19-.8-.27-1.16-.15s-.71.34-.9.69-.29.79-.15,1.16c.17.44.35.85.64,1.22.17.23.35.46.55.66s.44.37.66.55c.75.56,1.67.84,2.59.91.36.03.81-.19,1.06-.44s.46-.69.44-1.06-.14-.79-.44-1.06-.65-.41-1.06-.44h0Z"/>
  <path d="M195.69,242.2c-11.28,8.85-22.57,17.7-33.85,26.55-1.52,1.19.62,3.3,2.12,2.12,11.28-8.85,22.57-17.7,33.85-26.55,1.52-1.19-.62-3.3-2.12-2.12h0Z"/>
  <path d="M58.87,267.01c-2.06-1.39-4.12-2.77-6.17-4.16-.65-.44-1.69-.15-2.05.54-.4.76-.16,1.58.54,2.05,2.06,1.39,4.12,2.77,6.17,4.16.65.44,1.69.15,2.05-.54.4-.76.16-1.58-.54-2.05h0Z"/>
  <path d="M50.3,262.83c-3.36,1.22-6.72,2.43-10.08,3.65-.76.28-1.27,1.02-1.05,1.85.2.74,1.08,1.32,1.85,1.05,3.36-1.22,6.72-2.43,10.08-3.65.76-.28,1.27-1.02,1.05-1.85-.2-.74-1.08-1.32-1.85-1.05h0Z"/>
  <path d="M324.29,269.11c.11-8.97.21-17.94.32-26.91l-2.8.76c6.12,8.28,11.32,17.21,15.51,26.62.78,1.76,3.37.24,2.59-1.51-4.19-9.41-9.39-18.33-15.51-26.62-.84-1.14-2.78-.84-2.8.76-.11,8.97-.21,17.94-.32,26.91-.02,1.93,2.98,1.93,3,0h0Z"/>
  <path d="M3.17,218.97c4.73,5.21,9.12,10.71,13.13,16.5l1.3-2.26c-4.04.15-8.08.31-12.12.46-1.92.07-1.93,3.07,0,3,4.04-.15,8.08-.31,12.12-.46,1.05-.04,1.98-1.27,1.3-2.26-4.15-5.99-8.69-11.71-13.59-17.11-1.3-1.43-3.42.69-2.12,2.12h0Z"/>
  <path d="M2.47,236.94h1.65c.21,0,.4-.04.58-.13.19-.06.35-.16.48-.31.15-.14.25-.3.31-.48.09-.18.14-.37.13-.58l-.05-.4c-.07-.25-.2-.47-.39-.66-.29-.27-.65-.44-1.06-.44h-1.65c-.21,0-.4.04-.58.13-.19.06-.35.16-.48.31-.15.14-.25.3-.31.48-.09.18-.14.37-.13.58l.05.4c.07.25.2.47.39.66.29.27.65.44,1.06.44h0Z"/>
  <path d="M1.65,217.6l.94,1.65c.09.17.22.32.39.42.14.13.31.22.51.27.2.06.4.07.6.03.2,0,.39-.07.56-.18.32-.21.6-.51.69-.9s.05-.8-.15-1.16l-.94-1.65c-.09-.17-.22-.32-.39-.42-.14-.13-.31-.22-.51-.27-.2-.06-.4-.07-.6-.03-.2,0-.39.07-.56.18-.32.21-.6.51-.69.9s-.05.8.15,1.16h0Z"/>
  <path d="M423.36,27.62c-3.69,3.95-7.39,7.91-11.08,11.86-1.32,1.41.8,3.54,2.12,2.12,3.69-3.95,7.39-7.91,11.08-11.86,1.32-1.41-.8-3.54-2.12-2.12h0Z"/>
  <path d="M425.4,67.14c-2.61-4.7-5.23-9.39-7.84-14.09-.94-1.69-3.53-.18-2.59,1.51,2.61,4.7,5.23,9.39,7.84,14.09.94,1.69,3.53.18,2.59-1.51h0Z"/>
  <path d="M411.59,41.41c.08,4.2,1.16,8.32,3.12,12.04.38.72,1.38.93,2.05.54.73-.42.92-1.33.54-2.05-1.71-3.25-2.63-6.86-2.71-10.52-.02-.81-.68-1.5-1.5-1.5s-1.52.69-1.5,1.5h0Z"/>
  <path d="M320.59,197.64c-.3,9.31-.6,18.61-.89,27.92-.06,1.93,2.94,1.93,3,0,.3-9.31.6-18.61.89-27.92.06-1.93-2.94-1.93-3,0h0Z"/>
  <path d="M321.84,130.43c-.31,9.57-.57,19.14-.73,28.71-.03,1.93,2.97,1.93,3,0,.16-9.57.42-19.14.73-28.71.06-1.93-2.94-1.93-3,0h0Z"/>
  <path d="M323.5,86.71c-.37,9.27-.74,18.53-1.1,27.8-.07,1.93,2.93,1.93,3,0,.35-9.27.73-18.53,1.1-27.8.08-1.93-2.92-1.93-3,0h0Z"/>
  <path d="M324.82,49.32c-.2,7.03-.43,14.07-.69,21.1-.07,1.93,2.93,1.93,3,0,.26-7.03.49-14.06.69-21.1.05-1.93-2.95-1.93-3,0h0Z"/>
  <path d="M220.99,107.41c-1.94,11.93-3.89,23.87-5.99,35.77-.33,1.89,2.56,2.7,2.89.8,2.09-11.91,4.04-23.84,5.99-35.77.31-1.89-2.58-2.7-2.89-.8h0Z"/>
  <path d="M229.96,54.72c-2.33,12.51-4.45,25.06-6.51,37.62-.31,1.89,2.58,2.7,2.89.8,2.06-12.56,4.18-25.11,6.51-37.62.35-1.89-2.54-2.7-2.89-.8h0Z"/>
  <path d="M351.33,16.21c-9.96,2.76-18.22,10.09-22.74,19.31-.85,1.73,1.74,3.25,2.59,1.51,4.19-8.55,11.69-15.37,20.94-17.93,1.86-.51,1.07-3.41-.8-2.89h0Z"/>
  <path d="M207.1,184.19c2.7-8.3,4.83-16.77,7.06-25.2.5-1.87-2.4-2.66-2.89-.8-2.24,8.43-4.36,16.9-7.06,25.2-.6,1.84,2.3,2.63,2.89.8h0Z"/>
  <path d="M180.58,226.33c9.14-7.12,15.88-16.78,20.74-27.22.81-1.74-1.78-3.27-2.59-1.51-4.76,10.24-11.3,19.63-20.27,26.61-1.52,1.19.62,3.29,2.12,2.12h0Z"/>
  <path d="M136.74,241.18c9.7-1.86,19.47-3.58,28.78-6.97,1.8-.66,1.02-3.56-.8-2.89-9.31,3.39-19.08,5.1-28.78,6.97-1.89.36-1.09,3.26.8,2.89h0Z"/>
  <path d="M114.42,245.13c2.18-.35,4.35-.71,6.52-1.08.78-.13,1.28-1.13,1.05-1.85-.27-.84-1.01-1.19-1.85-1.05-2.17.37-4.35.73-6.52,1.08-.78.13-1.28,1.13-1.05,1.85.27.84,1.01,1.18,1.85,1.05h0Z"/>
  <path d="M94.65,244.18c10.08,1.12,20.23.74,30.28-.46,1.89-.22,1.92-3.23,0-3-10.05,1.19-20.2,1.57-30.28.46-1.92-.21-1.9,2.79,0,3h0Z"/>
  <path d="M53.45,226.49c8.21,7.54,18.27,12.7,29.03,15.49,1.87.49,2.67-2.41.8-2.89-10.26-2.67-19.88-7.53-27.71-14.72-1.42-1.3-3.55.81-2.12,2.12h0Z"/>
  <path d="M35.72,186.61c.15,10.72,3.31,21.26,9.33,30.16,1.08,1.59,3.68.09,2.59-1.51-5.74-8.47-8.78-18.42-8.92-28.64-.03-1.93-3.03-1.93-3,0h0Z"/>
  <path d="M49.45,146.11c-5.99,8.23-10.36,17.64-12.44,27.62-.39,1.88,2.5,2.69,2.89.8,2.04-9.76,6.28-18.86,12.14-26.9,1.14-1.56-1.46-3.06-2.59-1.51h0Z"/>
  <path d="M81.26,117.76c-8.37,5.12-16.22,11.13-23.12,18.12-1.36,1.38.76,3.5,2.12,2.12,6.73-6.82,14.34-12.66,22.51-17.65,1.64-1.01.14-3.6-1.51-2.59h0Z"/>
  <path d="M111.03,103.1c-5.78,2.36-11.5,4.89-17.09,7.68-1.73.86-.21,3.45,1.51,2.59,5.36-2.67,10.83-5.11,16.37-7.38.75-.31,1.28-1,1.05-1.85-.2-.71-1.09-1.36-1.85-1.05h0Z"/>
  <path d="M128.73,109.58c2-2.7,3.89-5.7,4.13-9.14.06-.87-.03-1.76-.22-2.61-.12-.5-.26-1.01-.64-1.38-.24-.23-.53-.41-.83-.55-1.28-.58-2.76-.45-4.09-.12-1.21.31-2.72.86-3.55,1.85-.52.62-.61,1.51,0,2.12.53.53,1.6.62,2.12,0,.06-.07.13-.13.19-.2.22-.26-.22.11.03-.03.2-.1.38-.24.58-.34.15-.08.3-.15.45-.21-.25.11.04,0,.13-.04.28-.1.56-.19.85-.26.16-.04.31-.08.47-.11.07-.01.47-.07.14-.03.28-.03.56-.05.84-.04.1,0,.52.08.14,0,.11.02.22.06.33.08.31.05-.2-.14.04,0,.36.22-.08-.11.1.06l-.39-.66c.56,1.75.3,3.49-.41,5.18-.74,1.78-1.88,3.38-3.02,4.92-.48.65-.11,1.67.54,2.05.76.45,1.57.11,2.05-.54h0Z"/>
  <path d="M93.9,117.38c9.17-.19,18.64.32,27.38-2.94,1.79-.67,1.02-3.57-.8-2.89-8.5,3.17-17.67,2.65-26.58,2.84-1.93.04-1.93,3.04,0,3h0Z"/>
  <path d="M57.81,99.66c5.04,7.52,12.58,12.83,21.22,15.43,1.85.56,2.64-2.34.8-2.89-7.88-2.36-14.83-7.19-19.43-14.05-1.07-1.6-3.67-.1-2.59,1.51h0Z"/>
  <path d="M57.94,57.49c-4,8.68-6.17,18.06-6.27,27.63-.02,1.93,2.98,1.93,3,0,.09-9.01,2.09-17.93,5.86-26.11.8-1.74-1.78-3.27-2.59-1.51h0Z"/>
  <path d="M88.81,24.3c-8.68,5.14-16.45,11.8-22.64,19.78-.5.64-.62,1.49,0,2.12.51.52,1.63.64,2.12,0,6.05-7.79,13.56-14.29,22.04-19.31,1.66-.98.15-3.58-1.51-2.59h0Z"/>
  <path d="M136.85,10.45c-11.62.48-23.11,2.85-33.96,7.06-1.78.69-1.01,3.59.8,2.89,10.6-4.11,21.8-6.48,33.16-6.95,1.92-.08,1.93-3.08,0-3h0Z"/>
  <path d="M296.57,188.55c5.56,12.25,11.31,24.42,17.24,36.5.85,1.73,3.44.21,2.59-1.51-5.93-12.08-11.68-24.24-17.24-36.5-.8-1.76-3.38-.23-2.59,1.51h0Z"/>
  <path d="M275.77,140.1c4.43,10.9,9,21.74,13.71,32.53.77,1.76,3.36.24,2.59-1.51-4.61-10.54-9.08-21.15-13.41-31.81-.72-1.77-3.62-.99-2.89.8h0Z"/>
  <path d="M255.4,86.52c4.51,12.69,9.21,25.31,14.11,37.86.69,1.78,3.6,1,2.89-.8-4.9-12.55-9.6-25.17-14.11-37.86-.64-1.81-3.54-1.03-2.89.8h0Z"/>
  <path d="M239.64,39.28c3.37,10.76,6.87,21.48,10.51,32.15.62,1.82,3.52,1.04,2.89-.8-3.64-10.67-7.14-21.39-10.51-32.15-.57-1.84-3.47-1.05-2.89.8h0Z"/>
  <path d="M230.74,50.74l-1.25,7.06c-.14.77.21,1.65,1.05,1.85.73.17,1.7-.22,1.85-1.05l1.25-7.06c.14-.77-.21-1.65-1.05-1.85-.73-.17-1.7.22-1.85,1.05h0Z"/>
</svg>