<?xml version="1.0" encoding="UTF-8"?>
<svg id="_Слой_1" data-name="Слой_1" xmlns="http://www.w3.org/2000/svg" version="1.1" viewBox="0 0 500 500">
  <!-- Generator: Adobe Illustrator 29.0.0, SVG Export Plug-In . SVG Version: 2.1.0 Build 186)  -->
  <defs>
    <style>
      .st0 {
        fill: none;
        stroke: #000;
        stroke-miterlimit: 10;
      }

      .st1 {
        fill: red;
      }

      .st2 {
        fill: #ed1c24;
      }
    </style>
  </defs>
  <path d="M373.73,175.19c4.38.97,8.35,3.2,11.57,6.3,1.39,1.34,3.52-.78,2.12-2.12-3.58-3.44-8.03-5.99-12.89-7.07-.79-.18-1.62.24-1.85,1.05-.21.75.25,1.67,1.05,1.85h0Z"/>
  <path d="M231.56,182.08c-1.82-5.82-6.41-10.31-11.83-12.9-.73-.35-1.62-.2-2.05.54-.38.65-.2,1.7.54,2.05,4.76,2.27,8.87,6.04,10.45,11.1.58,1.84,3.47,1.05,2.89-.8h0Z"/>
  <path class="st2" d="M375.74,211.6c4.51,4.59,9.01,9.18,13.52,13.78,1.35,1.38,3.48-.74,2.12-2.12l-13.52-13.78c-1.35-1.38-3.48.74-2.12,2.12h0Z"/>
  <path class="st1" d="M390.92,208.7c-8.75,4.09-16.6,10-22.99,17.23-1.27,1.44.84,3.57,2.12,2.12,6.24-7.07,13.83-12.77,22.38-16.77,1.75-.82.23-3.4-1.51-2.59h0Z"/>
  <path d="M388.1,188.3c.97,4.33.18,8.91-2.11,12.7-1,1.66,1.59,3.17,2.59,1.51,2.71-4.49,3.55-9.9,2.41-15.01-.42-1.88-3.31-1.09-2.89.8h0Z"/>
  <path d="M324.81,163.36c23.48.11,46.96.14,70.44.09,6.61-.01,13.22-.04,19.83-.06,1.93,0,1.93-3.01,0-3-23.46.09-46.93.12-70.39.05-6.63-.02-13.25-.04-19.88-.07-1.93,0-1.93,2.99,0,3h0Z"/>
  <path d="M269.97,163.42c13.16-.02,26.33-.04,39.49-.08,1.93,0,1.93-3,0-3-13.16.03-26.33.06-39.49.08-1.93,0-1.93,3,0,3h0Z"/>
  <path d="M140.56,163.37c22.3.1,44.6.11,66.91.1,6.32,0,12.65,0,18.97-.01,1.93,0,1.93-3,0-3-22.3.02-44.61.03-66.91-.02-6.32-.02-12.65-.04-18.97-.06-1.93,0-1.93,2.99,0,3h0Z"/>
  <path d="M121.98,163.27c2.53.02,5.06.03,7.59.05.78,0,1.54-.69,1.5-1.5s-.66-1.5-1.5-1.5c-2.53-.01-5.06-.03-7.59-.05-.78,0-1.54.69-1.5,1.5s.66,1.49,1.5,1.5h0Z"/>
  <path d="M109.55,331.32c-.12,4.41-.3,8.81-.56,13.21-.05.81.72,1.5,1.5,1.5.85,0,1.45-.69,1.5-1.5.26-4.4.44-8.81.56-13.21.05-1.93-2.95-1.93-3,0h0Z"/>
  <path d="M109.11,269.38c.16,16.24.67,32.48.63,48.72,0,1.93,2.99,1.93,3,0,.04-16.24-.46-32.48-.63-48.72-.02-1.93-3.02-1.93-3,0h0Z"/>
  <path d="M111.11,216.01c-1.47,13.81-1.97,27.7-2.04,41.59,0,1.93,2.99,1.93,3,0,.07-13.88.57-27.77,2.04-41.59.2-1.92-2.8-1.9-3,0h0Z"/>
  <path d="M353.82,356.56c16.68.04,33.36.11,50.04.21,4.73.03,9.46.06,14.19.09,1.93.01,1.93-2.99,0-3-16.68-.12-33.36-.2-50.04-.26-4.73-.02-9.46-.03-14.19-.04-1.93,0-1.93,2.99,0,3h0Z"/>
  <path d="M267.95,356.45c19.42.02,38.85.03,58.27.06,5.48,0,10.96.02,16.43.03,1.93,0,1.93-3,0-3-19.42-.04-38.85-.06-58.27-.08-5.48,0-10.96-.01-16.43-.02-1.93,0-1.93,3,0,3h0Z"/>
  <path d="M151.79,356.08c19.53.38,39.05.87,58.58.85,5.57,0,11.14-.06,16.7-.16,1.93-.04,1.93-3.04,0-3-19.53.36-39.06.04-58.58-.35-5.57-.11-11.13-.23-16.7-.34-1.93-.04-1.93,2.96,0,3h0Z"/>
  <path d="M110.93,355.68c9.02-.04,18.04.03,27.06.17,1.93.03,1.93-2.97,0-3-9.02-.13-18.04-.2-27.06-.17-1.93,0-1.93,3.01,0,3h0Z"/>
  <path d="M417.66,181.29c.03-6.32.06-12.65.11-18.97.01-1.93-2.99-1.93-3,0-.04,6.32-.08,12.65-.11,18.97,0,1.93,2.99,1.93,3,0h0Z"/>
  <path d="M417.55,285.84c-.02-19.71-.04-39.42-.01-59.13,0-5.57.02-11.14.03-16.72,0-1.93-3-1.93-3,0-.04,19.71-.05,39.42-.03,59.13,0,5.57.01,11.14.02,16.72,0,1.93,3,1.93,3,0h0Z"/>
  <path d="M419.27,354.79c-.58-13.48-1-26.97-1.29-40.45-.04-1.93-3.04-1.93-3,0,.29,13.49.71,26.97,1.29,40.45.08,1.92,3.08,1.93,3,0h0Z"/>
  <path d="M108.89,345.13c-.03,2.93.01,5.86.12,8.79.03.78.67,1.54,1.5,1.5s1.53-.66,1.5-1.5c-.1-2.93-.14-5.86-.12-8.79,0-.78-.69-1.54-1.5-1.5s-1.49.66-1.5,1.5h0Z"/>
  <path class="st0" d="M115.92,161.13h11.34"/>
  <path class="st0" d="M112.86,204.16c.13-13.92.1-27.83-.11-41.75"/>
  <path d="M114.08,204.76l.07-28.65c0-1.93-3-1.93-3,0l-.07,28.65c0,1.93,3,1.93,3,0h0Z"/>
  <path d="M111.48,162.49l-.13,15.66c-.02,1.93,2.98,1.93,3,0l.13-15.66c.02-1.93-2.98-1.93-3,0h0Z"/>
  <path d="M114.18,163.59l7.63-.17c.78-.02,1.54-.68,1.5-1.5s-.66-1.52-1.5-1.5l-7.63.17c-.78.02-1.54.68-1.5,1.5s.66,1.52,1.5,1.5h0Z"/>
  <path d="M310.54,163.04l.17.17c.14.15.3.25.48.31.18.09.37.14.58.13.21,0,.4-.04.58-.13.19-.06.35-.16.48-.31l.23-.3c.14-.23.2-.49.2-.76l-.05-.4c-.07-.25-.2-.47-.39-.66l-.17-.17c-.14-.15-.3-.25-.48-.31-.18-.09-.37-.14-.58-.13-.21,0-.4.04-.58.13-.19.06-.35.16-.48.31l-.23.3c-.14.23-.2.49-.2.76l.05.4c.07.25.2.47.39.66h0Z"/>
  <path d="M129.12,162.82l3.36,7.64c.32.72,1.43.94,2.05.54.75-.48.88-1.28.54-2.05l-3.36-7.64c-.32-.72-1.43-.94-2.05-.54-.75.48-.88,1.28-.54,2.05h0Z"/>
  <path d="M135.35,169.3l5.49-6.51c.51-.6.63-1.54,0-2.12-.56-.51-1.58-.64-2.12,0l-5.49,6.51c-.51.6-.63,1.54,0,2.12.56.51,1.58.64,2.12,0h0Z"/>
  <path d="M112.02,206.77l3.88,2.7-.69-1.69c-.94,2.68-2.16,5.24-3.63,7.67-.42.69-.15,1.65.54,2.05s1.63.16,2.05-.54c1.6-2.65,2.91-5.47,3.93-8.39.23-.66-.17-1.33-.69-1.69l-3.88-2.7c-.67-.46-1.67-.12-2.05.54-.44.75-.13,1.59.54,2.05h0Z"/>
  <path d="M310.44,162.82c1.48,4.9,3.37,9.67,5.65,14.25.36.73,1.39.93,2.05.54.74-.43.9-1.32.54-2.05-2.17-4.35-3.95-8.88-5.35-13.54-.56-1.84-3.45-1.06-2.89.8h0Z"/>
  <path d="M322.62,162.27c-.88,3.96-1.77,7.92-2.65,11.88-.18.79.24,1.62,1.05,1.85.75.21,1.67-.25,1.85-1.05.88-3.96,1.77-7.92,2.65-11.88.18-.79-.24-1.62-1.05-1.85-.75-.21-1.67.25-1.85,1.05h0Z"/>
  <path d="M318.61,177.87l3.04-1.58c.32-.17.59-.55.69-.9s.05-.84-.15-1.16c-.46-.71-1.31-.93-2.05-.54l-3.04,1.58c-.32.17-.59.55-.69.9s-.05.84.15,1.16c.46.71,1.31.93,2.05.54h0Z"/>
  <path d="M309.13,163.18l2.3-.13c.4-.02.77-.15,1.06-.44.26-.26.46-.69.44-1.06s-.14-.79-.44-1.06-.66-.46-1.06-.44l-2.3.13c-.4.02-.77.15-1.06.44-.26.26-.46.69-.44,1.06s.14.79.44,1.06.66.46,1.06.44h0Z"/>
  <path d="M226.18,163.39c5.61,2.1,11.22,4.2,16.83,6.3.76.28,1.64-.32,1.85-1.05.23-.84-.29-1.56-1.05-1.85-5.61-2.1-11.22-4.2-16.83-6.3-.76-.28-1.64.32-1.85,1.05-.23.84.29,1.56,1.05,1.85h0Z"/>
  <path d="M244.15,169.72c2.37-.91,4.71-1.88,7.02-2.92.72-.32.94-1.42.54-2.05-.48-.74-1.28-.88-2.05-.54-.55.25-1.1.49-1.65.73-.28.12-.55.24-.83.36-.3.13.21-.09-.12.05-.14.06-.28.12-.42.17-1.09.45-2.19.89-3.29,1.31-.73.28-1.31,1.02-1.05,1.85.23.71,1.06,1.35,1.85,1.05h0Z"/>
  <path d="M415.29,284.16l-37.24,7.44c-1.89.38-1.09,3.27.8,2.89,12.41-2.48,24.83-4.96,37.24-7.44,1.89-.38,1.09-3.27-.8-2.89h0Z"/>
  <path d="M376.97,294.91c2.26,4.34,4.52,8.67,6.77,13.01.89,1.71,3.48.2,2.59-1.51-2.26-4.34-4.52-8.67-6.77-13.01-.89-1.71-3.48-.2-2.59,1.51h0Z"/>
  <path d="M385.46,309.53c9.66,1.92,19.33,3.83,28.99,5.75,1.89.37,2.69-2.52.8-2.89l-28.99-5.75c-1.89-.37-2.69,2.52-.8,2.89h0Z"/>
  <path d="M111.23,270.27c6.5-2.46,13.22-4.26,20.08-5.36.8-.13,1.25-1.13,1.05-1.85-.24-.85-1.04-1.18-1.85-1.05-6.86,1.1-13.59,2.89-20.08,5.36-1.79.68-1.01,3.58.8,2.89h0Z"/>
  <path d="M130.36,261.65c-6.32.87-12.8.8-19.1-.17-.81-.12-1.6.2-1.85,1.05-.2.71.25,1.72,1.05,1.85,6.88,1.06,13.8,1.11,20.7.17.8-.11,1.25-1.14,1.05-1.85-.24-.87-1.04-1.16-1.85-1.05h0Z"/>
  <path d="M112.45,262.66l-.4-4.47c-.04-.41-.14-.76-.44-1.06-.26-.26-.69-.46-1.06-.44-.75.03-1.57.66-1.5,1.5l.4,4.47c.04.41.14.76.44,1.06.26.26.69.46,1.06.44.75-.03,1.57-.66,1.5-1.5h0Z"/>
  <path d="M250.68,167.56c2.29,6.54,4.57,13.08,6.86,19.62.63,1.81,3.53,1.03,2.89-.8l-6.86-19.62c-.63-1.81-3.53-1.03-2.89.8h0Z"/>
  <path d="M260.63,187.13c2.74-5.09,6.05-9.84,9.9-14.14,1.28-1.44-.83-3.56-2.12-2.12-4.02,4.49-7.51,9.44-10.37,14.75-.91,1.7,1.67,3.22,2.59,1.51h0Z"/>
  <path d="M271.46,171.26l-.12-8.3c-.01-.78-.68-1.54-1.5-1.5s-1.51.66-1.5,1.5l.12,8.3c.01.78.68,1.54,1.5,1.5s1.51-.66,1.5-1.5h0Z"/>
  <path d="M253.3,165.95l-1.38-1.68c-.14-.15-.3-.25-.48-.31-.18-.09-.37-.14-.58-.13-.21,0-.4.04-.58.13-.19.06-.35.16-.48.31-.26.29-.46.66-.44,1.06l.05.4c.07.25.2.47.39.66l1.38,1.68c.14.15.3.25.48.31.18.09.37.14.58.13.21,0,.4-.04.58-.13.19-.06.35-.16.48-.31.26-.29.46-.66.44-1.06l-.05-.4c-.07-.25-.2-.47-.39-.66h0Z"/>
  <path d="M230.41,355.38c3.3-2.87,6.6-5.74,9.9-8.62.61-.53.54-1.58,0-2.12-.61-.61-1.51-.53-2.12,0l-9.9,8.62c-.61.53-.54,1.58,0,2.12.61.61,1.51.53,2.12,0h0Z"/>
  <path d="M252.69,337.26c1.34-.2,2.66-.45,3.98-.76.76-.18,1.29-1.09,1.05-1.85-.26-.8-1.03-1.24-1.85-1.05-1.32.31-2.64.56-3.98.76-.35.05-.73.4-.9.69-.19.32-.27.8-.15,1.16s.34.71.69.9l.36.15c.27.07.53.07.8,0h0Z"/>
  <path d="M255.65,336.02c2.97,6.06,5.94,12.12,8.91,18.18.85,1.73,3.44.21,2.59-1.51-2.97-6.06-5.94-12.12-8.91-18.18-.85-1.73-3.44-.21-2.59,1.51h0Z"/>
  <path d="M228.86,356.58l.77-.57c.17-.09.32-.22.42-.39.13-.14.22-.31.27-.51.06-.2.07-.4.03-.6,0-.2-.07-.39-.18-.56l-.23-.3c-.19-.19-.41-.31-.66-.39l-.4-.05c-.27,0-.52.07-.76.2l-.77.57c-.17.09-.32.22-.42.39-.13.14-.22.31-.27.51-.06.2-.07.4-.03.6,0,.2.07.39.18.56l.23.3c.19.19.41.31.66.39l.4.05c.27,0,.52-.07.76-.2h0Z"/>
  <path d="M267.96,353.51s-.08,0-.12-.01l.4.05c-.22-.03-.43-.09-.63-.17l.36.15c-.21-.09-.41-.21-.59-.35l.3.23c-.17-.14-.33-.29-.46-.46l.23.3c-.13-.17-.23-.35-.32-.54l.15.36s-.02-.06-.04-.09c-.05-.2-.14-.37-.27-.51-.11-.16-.25-.29-.42-.39-.17-.11-.36-.17-.56-.18-.2-.04-.4-.04-.6.03-.36.12-.71.34-.9.69s-.29.79-.15,1.16c.14.35.28.68.5.98.15.19.29.39.46.56s.37.32.56.46c.3.22.64.37.98.5s.73.18,1.1.21c.21,0,.4-.04.58-.13.19-.06.35-.16.48-.31.26-.26.46-.69.44-1.06s-.14-.79-.44-1.06l-.3-.23c-.23-.14-.49-.2-.76-.2h0Z"/>
  <path d="M250.46,335.25c-8.16,6.4-16.31,12.8-24.47,19.19-1.52,1.19.62,3.3,2.12,2.12,8.16-6.4,16.31-12.8,24.47-19.19,1.52-1.19-.62-3.3-2.12-2.12h0Z"/>
  <path d="M152.06,353.12l-4.46-3.01c-.65-.44-1.69-.15-2.05.54-.4.76-.16,1.58.54,2.05,1.49,1,2.98,2.01,4.46,3.01.65.44,1.69.15,2.05-.54.4-.76.16-1.58-.54-2.05h0Z"/>
  <path d="M145.55,350.06l-7.29,2.64c-.74.27-1.31,1.03-1.05,1.85.23.72,1.06,1.33,1.85,1.05l7.29-2.64c.74-.27,1.31-1.03,1.05-1.85-.23-.72-1.06-1.33-1.85-1.05h0Z"/>
  <path d="M344.13,355c.08-6.48.15-12.97.23-19.45l-2.8.76c4.42,5.99,8.18,12.44,11.21,19.24.33.75,1.4.91,2.05.54.77-.44.87-1.32.54-2.05-3.03-6.8-6.79-13.25-11.21-19.24-.84-1.14-2.78-.84-2.8.76-.08,6.48-.15,12.97-.23,19.45-.02,1.93,2.98,1.93,3,0h0Z"/>
  <path d="M111.3,319.05c3.4,3.74,6.55,7.69,9.42,11.84l1.3-2.26c-2.92.11-5.84.22-8.76.33-.81.03-1.5.67-1.5,1.5,0,.79.69,1.53,1.5,1.5,2.92-.11,5.84-.22,8.76-.33,1.05-.04,1.98-1.27,1.3-2.26-3.02-4.36-6.33-8.52-9.89-12.45-.54-.6-1.57-.55-2.12,0-.6.6-.55,1.52,0,2.12h0Z"/>
  <path d="M111.09,332.16h1.19c.21,0,.4-.04.58-.13.19-.06.35-.16.48-.31.15-.14.25-.3.31-.48.09-.18.14-.37.13-.58l-.05-.4c-.07-.25-.2-.47-.39-.66l-.3-.23c-.23-.14-.49-.2-.76-.2h-1.19c-.21,0-.4.04-.58.13-.19.06-.35.16-.48.31-.15.14-.25.3-.31.48-.09.18-.14.37-.13.58l.05.4c.07.25.2.47.39.66l.3.23c.23.14.49.2.76.2h0Z"/>
  <path d="M110.13,317.97l.68,1.19c.09.17.22.32.39.42.14.13.31.22.51.27.2.06.4.07.6.03.2,0,.39-.07.56-.18l.3-.23c.19-.19.31-.41.39-.66l.05-.4c0-.27-.07-.52-.2-.76l-.68-1.19c-.09-.17-.22-.32-.39-.42-.14-.13-.31-.22-.51-.27-.2-.06-.4-.07-.6-.03-.2,0-.39.07-.56.18l-.3.23c-.19.19-.31.41-.39.66l-.05.4c0,.27.07.52.2.76h0Z"/>
  <path d="M415.03,180.14c-2.67,2.86-5.34,5.72-8.01,8.58-.54.57-.61,1.56,0,2.12s1.55.61,2.12,0l8.01-8.58c.54-.57.61-1.56,0-2.12s-1.55-.61-2.12,0h0Z"/>
  <path d="M417.16,208.79l-5.67-10.18c-.39-.71-1.36-.94-2.05-.54s-.93,1.34-.54,2.05c1.89,3.39,3.78,6.79,5.67,10.18.39.71,1.36.94,2.05.54s.93-1.34.54-2.05h0Z"/>
  <path d="M406.4,190.4c.06,3.11.86,6.16,2.31,8.91.37.7,1.39.96,2.05.54.71-.46.93-1.31.54-2.05-.16-.3-.31-.61-.46-.92-.02-.05-.24-.56-.14-.31-.06-.14-.11-.27-.16-.41-.24-.64-.45-1.29-.62-1.95s-.31-1.33-.4-2.01c.04.3-.02-.17-.02-.18-.02-.19-.04-.39-.05-.58-.03-.34-.04-.68-.05-1.02-.02-.78-.68-1.54-1.5-1.5s-1.52.66-1.5,1.5h0Z"/>
  <path d="M340.62,303.34c-.22,6.73-.43,13.45-.65,20.18-.06,1.93,2.94,1.93,3,0,.22-6.73.43-13.45.65-20.18.06-1.93-2.94-1.93-3,0h0Z"/>
  <path d="M341.53,254.75c-.23,6.92-.41,13.83-.53,20.75-.03,1.93,2.97,1.93,3,0,.11-6.92.3-13.84.53-20.75.06-1.93-2.94-1.93-3,0h0Z"/>
  <path d="M342.73,223.15c-.26,6.7-.54,13.4-.79,20.1-.07,1.93,2.93,1.93,3,0,.25-6.7.53-13.4.79-20.1.08-1.93-2.92-1.93-3,0h0Z"/>
  <path d="M343.68,196.12c-.14,5.08-.31,10.17-.5,15.25-.07,1.93,2.93,1.93,3,0,.18-5.08.35-10.17.5-15.25.05-1.93-2.95-1.93-3,0h0Z"/>
  <path d="M268.64,238c-1.4,8.63-2.82,17.25-4.33,25.86-.33,1.89,2.56,2.7,2.89.8,1.51-8.61,2.92-17.23,4.33-25.86.31-1.89-2.58-2.7-2.89-.8h0Z"/>
  <path d="M275.12,199.91c-1.68,9.05-3.21,18.12-4.71,27.19-.31,1.89,2.58,2.7,2.89.8,1.49-9.08,3.03-18.15,4.71-27.19.35-1.89-2.54-2.7-2.89-.8h0Z"/>
  <path d="M363.15,171.79c-7.29,2.02-13.37,7.4-16.68,14.15-.36.73-.2,1.62.54,2.05.66.39,1.69.19,2.05-.54,2.98-6.09,8.3-10.95,14.89-12.77,1.86-.51,1.07-3.41-.8-2.89h0Z"/>
  <path d="M259.4,293.72c1.95-6,3.49-12.12,5.11-18.22.5-1.87-2.4-2.66-2.89-.8-1.62,6.1-3.15,12.22-5.11,18.22-.6,1.84,2.3,2.63,2.89.8h0Z"/>
  <path d="M240.13,324.37c6.63-5.17,11.53-12.19,15.05-19.76.34-.74.2-1.61-.54-2.05-.65-.39-1.71-.19-2.05.54-3.43,7.37-8.13,14.12-14.58,19.15-.64.5-.52,1.59,0,2.12.62.64,1.49.5,2.12,0h0Z"/>
  <path d="M208.25,335.21c7.01-1.35,14.07-2.59,20.8-5.04,1.8-.65,1.02-3.55-.8-2.89-6.73,2.45-13.79,3.69-20.8,5.04-1.89.36-1.09,3.26.8,2.89h0Z"/>
  <path d="M192.11,338.06c1.57-.25,3.14-.51,4.72-.78.35-.06.72-.4.9-.69.19-.32.27-.8.15-1.16s-.34-.71-.69-.9c-.38-.2-.74-.22-1.16-.15-1.57.27-3.14.53-4.72.78-.35.06-.73.4-.9.69-.19.32-.27.8-.15,1.16s.34.71.69.9c.38.2.74.22,1.16.15h0Z"/>
  <path d="M177.72,337.39c7.29.8,14.62.53,21.89-.33.81-.1,1.49-.62,1.5-1.5,0-.74-.7-1.6-1.5-1.5-7.27.86-14.6,1.13-21.89.33-.81-.09-1.49.75-1.5,1.5,0,.88.7,1.41,1.5,1.5h0Z"/>
  <path d="M147.64,324.48c5.99,5.5,13.32,9.26,21.17,11.31,1.87.49,2.67-2.41.8-2.89-7.35-1.91-14.23-5.38-19.85-10.54-1.42-1.3-3.55.81-2.12,2.12h0Z"/>
  <path d="M134.7,295.36c.11,7.83,2.41,15.51,6.8,22.01,1.08,1.59,3.68.09,2.59-1.51-4.11-6.07-6.29-13.17-6.39-20.49-.03-1.93-3.03-1.93-3,0h0Z"/>
  <path d="M144.68,265.87c-4.35,5.98-7.52,12.82-9.03,20.06-.39,1.88,2.5,2.69,2.89.8,1.47-7.03,4.51-13.55,8.73-19.35.48-.66.11-1.67-.54-2.05-.75-.45-1.58-.11-2.05.54h0Z"/>
  <path d="M167.82,245.23c-6.08,3.72-11.78,8.08-16.79,13.17-1.36,1.38.76,3.5,2.12,2.12,4.84-4.91,10.31-9.1,16.19-12.7,1.64-1.01.14-3.6-1.51-2.59h0Z"/>
  <path d="M189.45,234.59c-4.21,1.72-8.38,3.56-12.45,5.59-.72.36-.93,1.39-.54,2.05.43.74,1.32.9,2.05.54,3.84-1.92,7.76-3.67,11.74-5.29.75-.31,1.28-1,1.05-1.85-.2-.71-1.09-1.36-1.85-1.05h0Z"/>
  <path d="M202.71,239.89c1.5-2.02,2.87-4.25,3.04-6.82.05-.67-.03-1.35-.18-2-.17-.74-.55-1.32-1.25-1.64-1.04-.47-2.19-.4-3.27-.13-.94.24-2.11.68-2.75,1.45-.5.6-.63,1.54,0,2.12.55.51,1.58.64,2.12,0,.04-.05.1-.1.14-.15.19-.23-.29.17-.06.05.14-.08.27-.17.42-.25.1-.05.24-.09.33-.15-.14.11-.24.1,0,.01.2-.07.41-.14.61-.19.11-.03.23-.05.34-.08l.1-.02c.17-.03.13-.02-.11.01.12.06.47-.03.61-.03.04,0,.09,0,.13,0,.16.02.12,0-.14-.02.06.03.17.04.24.05.27.05-.29-.16-.07-.04.33.19-.19-.19,0-.02l-.39-.66c.06.18.11.36.15.54.02.09.04.18.05.27-.02-.18-.02-.17,0,0,.02.36.02.7-.01,1.06.03-.36-.03.19-.05.26-.04.17-.08.35-.13.52s-.1.34-.16.51c-.02.05-.22.57-.1.27-.55,1.28-1.36,2.44-2.18,3.55-.47.63-.12,1.7.54,2.05.78.41,1.55.14,2.05-.54h0Z"/>
  <path d="M177.17,245.73c6.66-.14,13.55.22,19.9-2.14,1.79-.67,1.02-3.57-.8-2.89-6.12,2.28-12.69,1.9-19.11,2.03-1.93.04-1.93,3.04,0,3h0Z"/>
  <path d="M150.73,232.72c3.71,5.53,9.23,9.43,15.59,11.34,1.85.56,2.64-2.34.8-2.89-5.59-1.68-10.53-5.09-13.8-9.96-.45-.67-1.32-.97-2.05-.54-.67.39-.99,1.38-.54,2.05h0Z"/>
  <path d="M150.82,201.81c-2.92,6.35-4.51,13.19-4.59,20.18-.02,1.93,2.98,1.93,3,0,.07-6.44,1.48-12.81,4.18-18.67.34-.74.2-1.61-.54-2.05-.64-.38-1.71-.2-2.05.54h0Z"/>
  <path d="M173.29,177.67c-6.3,3.74-11.96,8.57-16.45,14.36-.5.64-.62,1.5,0,2.12.52.52,1.62.64,2.12,0,4.35-5.61,9.75-10.28,15.85-13.89,1.66-.98.15-3.58-1.51-2.59h0Z"/>
  <path d="M208.22,167.6c-8.44.36-16.78,2.07-24.66,5.12-1.78.69-1.01,3.59.8,2.89,7.64-2.95,15.68-4.66,23.86-5.01,1.92-.08,1.93-3.08,0-3h0Z"/>
  <path d="M323.32,296.97c4.02,8.86,8.17,17.65,12.46,26.38.85,1.73,3.44.21,2.59-1.51-4.29-8.73-8.44-17.53-12.46-26.38-.8-1.76-3.38-.23-2.59,1.51h0Z"/>
  <path d="M308.24,261.85c3.21,7.91,6.53,15.78,9.95,23.61.77,1.76,3.36.24,2.59-1.51-3.32-7.59-6.53-15.22-9.65-22.89-.31-.76-1-1.27-1.85-1.05-.71.19-1.35,1.1-1.05,1.85h0Z"/>
  <path d="M293.52,223.12c3.26,9.17,6.66,18.3,10.2,27.37.69,1.78,3.6,1,2.89-.8-3.54-9.07-6.94-18.19-10.2-27.37-.64-1.81-3.54-1.03-2.89.8h0Z"/>
  <path d="M282.12,188.98c2.43,7.78,4.97,15.53,7.6,23.24.62,1.82,3.52,1.04,2.89-.8-2.63-7.72-5.16-15.46-7.6-23.24-.57-1.84-3.47-1.05-2.89.8h0Z"/>
  <path d="M275.69,197.04l-.91,5.1c-.07.41-.06.79.15,1.16.18.31.54.61.9.69.73.17,1.7-.22,1.85-1.05l.91-5.1c.07-.41.06-.79-.15-1.16-.18-.31-.54-.61-.9-.69-.73-.17-1.7.22-1.85,1.05h0Z"/>
</svg>