<?xml version="1.0" encoding="UTF-8"?>
<svg id="_Слой_1" data-name="Слой_1" xmlns="http://www.w3.org/2000/svg" version="1.1" viewBox="0 0 356.7 158.5">
  <!-- Generator: Adobe Illustrator 29.0.0, SVG Export Plug-In . SVG Version: 2.1.0 Build 186)  -->
  <path d="M264.5,57.6c4.6.4,10.2.9,12.6,5.5.9,1.7,1.2,3.9.5,5.8-.8,2-2.8,3.1-4.9,3.2-3.1.1-5.8-1.6-8.3-3.2-1.6-1-3.1,1.5-1.5,2.6,2.8,1.8,5.9,3.6,9.3,3.6,3,0,5.9-1.3,7.5-3.8,3.2-5,.1-11.8-4.8-14.3-3.2-1.7-6.9-2-10.5-2.3-1.9-.1-1.9,2.9,0,3h0Z"/>
  <path d="M265.8,55.6c-.6-2.3-1.4-4.9-3.2-6.6-1.1-1-2.5-1.6-3.9-1.6-1.6,0-3.1.8-4,2.1-1.1,1.5-1,3.4-.2,5,.4.7,1.4,1,2,.5.7-.5.9-1.3.5-2.1,0,0-.1-.3,0,0,0,0,0-.1,0-.2,0-.1,0-.3-.1-.4,0-.3,0,.2,0,0v-.4c0-.2,0,0,0,0,0,0,0-.1,0-.2,0-.1,0-.2.1-.4,0-.3-.1.2,0,0,0-.1.1-.2.2-.4,0-.1,0-.1,0,0,0,0,0,0,.1-.1,0,0,.2-.2.3-.3.2-.2-.2.1,0,0,.1,0,.2-.1.4-.2,0,0,.2,0,0,0,0,0,.1,0,.1,0,.1,0,.2,0,.4-.1.3,0-.2,0,0,0s.3,0,.5,0c0,0,.2,0,.2,0,0,0-.3,0-.1,0,.1,0,.2,0,.4,0,.1,0,.2,0,.3,0,.3,0,0,0,0,0,0,0,.1,0,.2,0,0,0,.6.3.6.4,0,0-.2-.2-.1,0,0,0,0,0,.1.1.1,0,.2.2.3.3,0,0,.2.2.2.3s.3.3,0,0c.2.1.3.4.4.6.3.4.5.9.7,1.3,0,0,.1.2,0,0,0,0,0,.1,0,.2,0,.1.1.3.1.4.1.3.2.5.3.8.2.5.3,1,.5,1.5.2.8,1.1,1.3,1.9,1.1s1.3-1,1-1.9h0Z"/>
  <path d="M258.8,70.4l3.8,1c.4.1.8,0,1.2-.1.3-.2.6-.5.7-.9.2-.8-.2-1.6-1-1.9l-3.8-1c-.4-.1-.8,0-1.2.1-.3.2-.6.5-.7.9-.2.8.2,1.6,1,1.9h0Z"/>
  <path d="M261.3,60.9c1.5,3.2,5.7,4.3,8.7,2.5.7-.4,1-1.4.5-2.1s-1.3-1-2-.5c-.1,0-.3.2-.4.2-.2.1,0,0,0,0,0,0-.2,0-.2,0-.1,0-.3,0-.4.1,0,0-.2,0-.2,0-.3,0,.3,0,.1,0-.3,0-.6,0-.9,0-.1,0-.3-.1,0,0,0,0-.1,0-.2,0-.1,0-.3,0-.5-.1-.1,0-.3-.1-.4-.1.3,0,.2.1,0,0s-.1,0-.2,0c-.1,0-.3-.1-.4-.2,0,0-.1,0-.2-.1-.1-.1.3.2,0,0-.1-.1-.2-.2-.3-.3-.1-.1-.2-.3-.3-.4,0,0,.2.3,0,0,0,0,0-.1-.1-.2,0-.1-.2-.3-.2-.5-.3-.7-1.4-.9-2-.5-.7.5-.9,1.3-.5,2.1h0Z"/>
  <path d="M262.8,71.5l3.2,5.1c.6.9,1.1,1.8,1.7,2.6.4.6.9,1.3.9,2,0,1-1,1.4-1.8,1.4-.1,0,0,0-.1,0-.1,0-.3,0-.4-.1-.4-.1-.7-.4-1-.6-.6-.5-1.1-1.1-1.7-1.6-1.3-1.4-3.4.7-2.1,2.1,1.4,1.5,3.1,3.2,5.3,3.3,1.9.1,3.8-1,4.6-2.7,1-2.4-.6-4.5-1.8-6.5-1.3-2.1-2.7-4.3-4-6.4-1-1.6-3.6-.1-2.6,1.5h0Z"/>
  <path d="M263.2,79.8c-2.3-2.6-4.5-5.2-6.8-7.9-.5-.6-1.6-.6-2.1,0-.6.6-.5,1.5,0,2.1,2.3,2.6,4.5,5.2,6.8,7.9.5.6,1.6.6,2.1,0,.6-.6.5-1.5,0-2.1h0Z"/>
  <path d="M253.2,54.1c-1.3,1-2.6,2-3.9,3-.3.2-.4.7-.4,1.1s.2.8.4,1.1.7.5,1.1.4h.4c.2-.1.5-.2.7-.4,1.3-1,2.6-2,3.9-3,.3-.2.4-.7.4-1.1s-.2-.8-.4-1.1-.7-.5-1.1-.4h-.4c-.2.1-.5.2-.7.4h0Z"/>
  <path d="M250.6,55.5c-2.3-2.7-6.5-3.2-9.6-1.7s-4.5,5.6-3.5,8.9c.5,1.9,1.8,3.6,3.5,4.5.7.4,1.7.2,2-.5s.2-1.6-.5-2.1c-.1,0-.3-.2-.4-.2,0,0-.1,0-.2-.1,0,0,.2.2,0,0-.2-.2-.5-.5-.7-.7-.1-.1.1.2,0,0,0,0,0-.1-.1-.1,0-.1-.2-.3-.2-.4s-.1-.3-.2-.4c0,0,0-.1-.1-.2.1.3,0,0,0,0-.1-.3-.2-.6-.3-.9,0,0-.1-.5,0-.3s0,0,0,0c0-.1,0-.2,0-.4,0-.3,0-.6,0-1,0,0,0-.1,0-.2,0-.2,0,.2,0,0,0-.2,0-.4.1-.5,0-.1,0-.3.1-.4,0,0,0-.1,0-.2,0,0-.1.3,0,0,.1-.3.4-.6.5-.9.1-.2-.2.2,0,0,0,0,0,0,.1-.1.1-.1.2-.2.3-.4s.2-.2.4-.3c-.3.2.2-.1.2-.1.1,0,.3-.2.4-.2,0,0,.1,0,.2-.1.2-.1-.2,0,0,0,.3-.1.6-.2,1-.3.2,0,.3,0,.5,0-.3,0,0,0,.1,0,.4,0,.7,0,1,0,0,0,.2,0,.2,0-.3,0,0,0,0,0,.2,0,.4,0,.5.1.2,0,.4.1.6.2,0,0,.1,0,.2,0-.1,0-.2,0,0,0,.2,0,.4.2.5.3,0,0,.1,0,.2.1s.3.2.1.1c-.1-.1,0,0,0,0,0,0,.1.1.2.2.1.1.3.3.4.4.5.6,1.6.5,2.1,0,.6-.6.5-1.5,0-2.1h0Z"/>
  <path d="M244,62.6c.1.1.3.3.4.4l-.2-.3c.1.2.2.4.3.6v-.4c0,.2,0,.5,0,.8v-.4c0,.3,0,.6,0,.9v-.4c0,.2,0,.5-.2.7v-.4c0,.2,0,.4-.2.6l.2-.3c-.1.1-.3.3-.4.4l.3-.2c-.2.1-.4.3-.6.4h.4c-.2,0-.5,0-.7,0h.4c-.3,0-.6,0-.9,0h.4c-.2,0-.5,0-.7-.1h.4c-.2,0-.4,0-.6-.2l.3.2c-.1,0-.2-.2-.3-.3-.5-.6-1.6-.6-2.1,0-.6.6-.6,1.5,0,2.1.6.6,1.4,1.1,2.2,1.2,1,.2,1.9,0,2.9-.4.8-.4,1.4-1,1.8-1.8.2-.5.4-1,.4-1.6,0-.4,0-.8,0-1.3-.1-.9-.6-1.8-1.3-2.4-.3-.3-.6-.4-1.1-.4s-.8.2-1.1.4-.5.7-.4,1.1c0,.4.1.8.4,1.1h0Z"/>
  <path d="M235.5,62.2c-3.2,1.5-6.6,3.1-9,5.8s-3.6,6.2-2.8,9.6c.5,1.9,3.4,1.1,2.9-.8-.7-2.6.6-5.3,2.4-7.2,2.2-2.2,5.1-3.6,7.9-4.9.7-.3.9-1.4.5-2.1-.4-.8-1.3-.9-2-.5h0Z"/>
  <path d="M254.9,71c-3.7.8-6.7,3.6-7.9,7.2-.2.8.3,1.7,1,1.9.8.2,1.6-.2,1.9-1,0-.2.1-.4.2-.6.1-.3-.1.3,0,0,0,0,0-.2.1-.3.2-.3.3-.6.5-1,.1-.2.2-.3.3-.5.2-.3-.2.3,0,0,0,0,.1-.1.2-.2.2-.3.5-.6.8-.8.1-.1.3-.2.4-.4.3-.2-.3.2,0,0,0,0,.2-.1.2-.2.3-.2.6-.4,1-.6.2,0,.3-.2.5-.2.3-.1-.3.1,0,0,0,0,.2,0,.3-.1.4-.1.8-.2,1.1-.3.8-.2,1.3-1.1,1-1.9-.3-.8-1-1.2-1.9-1h0Z"/>
  <path d="M255.5,56.2c.3-.4.7-.8,1-1.1.1-.1.2-.3.3-.5,0-.2.1-.4.1-.6,0-.2,0-.4-.1-.6,0-.2-.2-.4-.3-.5l-.3-.2c-.2-.1-.5-.2-.8-.2h-.4c-.2.1-.5.2-.7.4-.3.4-.7.8-1,1.1-.1.1-.2.3-.3.5,0,.2-.1.4-.1.6,0,.2,0,.4.1.6,0,.2.2.4.3.5l.3.2c.2.1.5.2.8.2h.4c.2-.1.5-.2.7-.4h0Z"/>
  <path d="M248.4,57.5v.5c0,.2,0,.4.1.6,0,.2.2.4.3.5.1.1.3.2.5.3.2,0,.4.1.6.1h.4c.2-.1.5-.2.7-.4l.2-.3c.1-.2.2-.5.2-.8v-.5c0-.2,0-.4-.1-.6,0-.2-.2-.4-.3-.5-.1-.1-.3-.2-.5-.3-.2,0-.4-.1-.6-.1h-.4c-.2.1-.5.2-.7.4l-.2.3c-.1.2-.2.5-.2.8h0Z"/>
  <path d="M237.4,64.5l.6-.3c.2,0,.4-.1.5-.3.2-.1.3-.2.4-.4.1-.2.2-.4.2-.6,0-.2,0-.4,0-.6v-.4c-.3-.2-.5-.4-.7-.5h-.4c-.3-.2-.5-.2-.8-.1l-.6.3c-.2,0-.4.1-.5.3-.2.1-.3.2-.4.4-.1.2-.2.4-.2.6,0,.2,0,.4,0,.6v.4c.3.2.5.4.7.5h.4c.3.2.5.2.8.1h0Z"/>
  <path d="M223.7,78.6c.8,2.3,1.6,4.6,2.4,6.9.2.7,1,1.3,1.9,1,.7-.2,1.3-1,1-1.9l-2.4-6.9c-.2-.7-1-1.3-1.9-1-.7.2-1.3,1-1,1.9h0Z"/>
  <path d="M244.3,81.7c.3.3.6.6.9,1l-.2-.3c.4.5.8,1.1,1,1.8v-.4c0,.5.2.9.3,1.4.2.8,1.1,1.3,1.9,1,.8-.3,1.2-1,1-1.9-.4-1.8-1.4-3.6-2.8-4.8-.6-.5-1.6-.6-2.1,0s-.6,1.5,0,2.1h0Z"/>
  <path d="M247.1,78.3l-1,2.4c-.1.2-.2.4-.2.6,0,.2,0,.4,0,.6.1.4.4.7.7.9.4.2.8.3,1.2.1h.4c.2-.3.4-.5.5-.7l1-2.4c.1-.2.2-.4.2-.6,0-.2,0-.4,0-.6-.1-.4-.4-.7-.7-.9-.4-.2-.8-.3-1.2-.1h-.4c-.2.3-.4.5-.5.7h0Z"/>
  <path d="M249,81.1c1.8,1.5,3.6,2.9,5.4,4.4.3.3.6.4,1.1.4s.8-.2,1.1-.4c.5-.5.6-1.6,0-2.1-1.8-1.5-3.6-2.9-5.4-4.4-.3-.3-.6-.4-1.1-.4s-.8.2-1.1.4c-.5.5-.6,1.6,0,2.1h0Z"/>
  <path d="M1.1,86.3c23.7,3.6,47.7,5.3,71.7,5,6.9,0,13.7-.3,20.6-.7l-1.5-1.5c2.4,18.5,3,37.2,2,55.9-.1,1.9,2.9,1.9,3,0,1-18.6.3-37.3-2-55.9-.1-.8-.6-1.5-1.5-1.5-23.8,1.4-47.7.9-71.5-1.6-6.7-.7-13.4-1.5-20-2.5-1.9-.3-2.7,2.6-.8,2.9h0Z"/>
  <path d="M228,146.5c-2-12.6-4.1-25.1-6.1-37.7l-1.5-9.5-.8-4.6c-.2-1.4-.7-2.9-.5-4.4.1-1.2.9-1.7,2.1-1.8,1.5-.2,3,0,4.5,0,3.2,0,6.3,0,9.5,0,25.6-.2,51.2-.3,76.8-.5,14.5-.1,28.9-.2,43.4-.3,1.9,0,1.9-3,0-3-26.6.2-53.2.4-79.7.5-13.2,0-26.4.2-39.6.3-3.3,0-6.6,0-10,0-2.5,0-5.6-.4-7.8,1.1-2.4,1.6-2.1,4.5-1.6,7,.5,3.3,1.1,6.5,1.6,9.8,2.4,14.7,4.8,29.4,7.1,44,.3,1.9,3.2,1.1,2.9-.8h0Z"/>
  <path d="M219.2,62.1c-6-5.8-13-10.6-20.6-13.9-3.1-1.3-6.5-2.3-9.9-1.9-3.6.5-6.2,2.7-7.4,6.1-2.2,6.6-.9,17.2,7.5,18.2,1.6.2,3.3-.1,4.7-1.1,1.4-1,2.5-2.8,4.5-2.3,1.9.4,3.4,2,4.6,3.4,1.3,1.5,2.5,3.1,3.8,4.6,2.6,3.2,5.7,6.2,9.9,7.2,3.6.9,7.6.3,10.1-2.6,1.3-1.5-.9-3.6-2.1-2.1-1.9,2.1-4.7,2.5-7.3,1.8-3.2-.8-5.6-3.1-7.7-5.6-3.6-4.2-9.3-13.5-15.7-8.2-1.2,1-2.1,2-3.8,2-1.4,0-2.7-.6-3.7-1.5-2.6-2.4-2.8-6.4-2.4-9.6s1.4-6.2,4.7-7.1c2.8-.7,5.9.1,8.5,1.1,7.6,3,14.6,8,20.5,13.6,1.4,1.3,3.5-.8,2.1-2.1h0Z"/>
  <path d="M217.4,64.4c2.5,2.7,5.1,5.4,7.6,8.1.5.6,1.6.6,2.1,0s.6-1.5,0-2.1c-2.5-2.7-5.1-5.4-7.6-8.1-.5-.6-1.6-.6-2.1,0s-.6,1.5,0,2.1h0Z"/>
  <path d="M237.6,75.5c-.3-.4,0,0,0,.1,0,.1.1.2.2.4,0,0,0,.1,0,.1-.2-.3,0-.2,0,0s0,.3.1.4c0,.1,0,.2,0,.4,0,.3,0-.4,0,0,0,0,0,.1,0,.2,0,.3,0,.6,0,.9,0,.2,0-.1,0-.1,0,0,0,.1,0,.2,0,.1,0,.3-.1.4s-.1.3-.1.4c0,.2.2-.4,0,0,0,0,0,.1,0,.1,0,.1-.1.2-.2.4,0,0,0,.1-.1.2,0,.1-.2.1,0,0-.1,0-.2.2-.2.3-.1.1-.2.2-.4.3-.6.5-.6,1.6,0,2.1.6.6,1.5.5,2.1,0,1.2-1,1.9-2.6,2-4.2s-.4-3.2-1.4-4.4c-.5-.6-1.6-.5-2.1,0-.6.6-.5,1.5,0,2.1h0Z"/>
  <path d="M239.8,81.8s.1,0,.1-.1c0,0-.2.2,0,0,.1,0,.2-.1.3-.2.1,0,.2-.1.4-.2,0,0,.1,0,.2,0,0,0,.2-.1,0,0s0,0,0,0c0,0,.1,0,.2,0,.1,0,.2,0,.4-.1h.4c.1-.1.6-.1.1-.1.2,0,.5,0,.7,0s.2,0,.4,0c0,0,.1,0,.2,0,.2,0,0,0-.1,0,.3,0,.5,0,.8.2.1,0,.2,0,.4.1,0,0,.2.1,0,0-.2-.1,0,0,0,0,.7.3,1.6.2,2-.5.4-.7.2-1.7-.5-2-2.6-1.2-5.7-.9-8,1-.6.5-.6,1.6,0,2.1.6.6,1.5.5,2.1,0h0Z"/>
  <path d="M255.1,86.1l.6.4c.2.1.4.2.6.2.2,0,.4,0,.6,0,.2,0,.4-.1.5-.3.2-.1.3-.2.4-.4v-.4c.2-.3.2-.5.1-.8v-.4c-.3-.2-.5-.4-.7-.5l-.6-.4c-.2-.1-.4-.2-.6-.2-.2,0-.4,0-.6,0-.2,0-.4.1-.5.3-.2.1-.3.2-.4.4v.4c-.2.3-.2.5-.1.8v.4c.3.2.5.4.7.5h0Z"/>
</svg>