<?xml version="1.0" encoding="UTF-8"?>
<svg id="_Слой_1" data-name="Слой_1" xmlns="http://www.w3.org/2000/svg" version="1.1" viewBox="0 0 354.7 158.5">
  <!-- Generator: Adobe Illustrator 29.0.0, SVG Export Plug-In . SVG Version: 2.1.0 Build 186)  -->
  <path d="M1.1,86.1c23.7,3.6,47.7,5.3,71.7,5,6.9,0,13.7-.3,20.6-.7l-1.5-1.5c2.4,18.5,3,37.2,2,55.9-.1,1.9,2.9,1.9,3,0,1-18.6.3-37.3-2-55.9-.1-.8-.6-1.5-1.5-1.5-23.8,1.4-47.7.9-71.5-1.6-6.7-.7-13.4-1.5-20-2.5-1.9-.3-2.7,2.6-.8,2.9h0Z"/>
  <path d="M228,146.4c-2-12.6-4.1-25.1-6.1-37.7l-1.5-9.5-.8-4.6c-.2-1.4-.7-2.9-.5-4.4.1-1.2.9-1.7,2.1-1.8,1.5-.2,3,0,4.5,0,3.2,0,6.3,0,9.5,0,25.6-.2,51.2-.3,76.8-.5,14.5-.1,28.9-.2,43.4-.3,1.9,0,1.9-3,0-3-26.6.2-53.2.4-79.7.5-13.2,0-26.4.2-39.6.3-3.3,0-6.6,0-10,0-2.5,0-5.6-.4-7.8,1.1-2.4,1.6-2.1,4.5-1.6,7,.5,3.3,1.1,6.5,1.6,9.8,2.4,14.7,4.8,29.4,7.1,44,.3,1.9,3.2,1.1,2.9-.8h0Z"/>
  <path d="M185.4,8.5c4.6-.8,10.5-1.7,13.9,2.5,1.1,1.4,1.9,3.4,1.6,5.3-.4,2-1.9,3.5-3.8,4.1-2.9.9-6.1-.1-8.9-1-1.8-.6-2.6,2.3-.8,2.9,3.2,1,6.6,2,9.9,1.2,2.8-.7,5.2-2.6,6.2-5.3,2.1-5.5-2.4-11.4-7.6-12.8-3.7-1-7.6-.4-11.3.3-.8.1-1.2,1.1-1.1,1.9.2.8,1,1.2,1.9,1.1h0Z"/>
  <path d="M186.2,6.3c-1.7-2.9-3.9-6.1-7.6-6.3-1.7,0-3.3.7-4.3,2.1-.8,1.1-.9,2.8-.5,4.1.5,1.5,1.9,3,3.6,2.8.8,0,1.5-.6,1.5-1.5,0-.8-.7-1.6-1.5-1.5h-.3s.3,0,.2,0c0,0-.1,0-.2,0-.2,0,.2,0,.1,0,0,0-.1,0-.1,0,0,0,0,0-.1,0-.2-.1.1,0,0,0l-.2-.2c-.2-.2.1.2,0,0,0,0-.1-.2-.1-.3-.2-.3,0,.2,0,0,0-.2-.1-.4-.2-.7,0-.2,0,.1,0,.1s0-.1,0-.2v-.4c0,0,0-.1,0-.2,0-.2,0,.1,0,.1,0,0,0-.3,0-.4s0-.1,0-.1c0,0-.1.2,0,.1,0-.1.1-.2.2-.3,0,0,.1-.1,0,0-.1.1,0,0,0,0s.3-.3.2-.2.1,0,.2-.1c.1,0,.4-.2.1,0,.1,0,.3,0,.4-.1,0,0,.4,0,.2,0s.2,0,.2,0h.4c0,0,.2,0,.2,0,0,0-.2,0,0,0,.1,0,.2,0,.4,0s.2,0,.4.1c0,0,.1,0,.2,0-.2,0,0,0,0,0,.2.1.5.3.7.4.1.1,0,0,0,0,0,0,.1,0,.2.1.1.1.3.3.4.4,1,1,1.7,2.2,2.5,3.5.4.7,1.4,1,2.1.5s1-1.3.5-2.1h0Z"/>
  <path d="M182.3,23.6l4.5,3.8c.8.6,1.6,1.3,2.3,1.9.5.4,1.2,1,1.5,1.4.6.9.2,1.8-.8,2.2-.4.2-1.1.1-1.8,0-.8-.2-1.6-.7-2.3-1.1-1.7-.9-3.2,1.6-1.5,2.6,1.9,1.1,4.2,2.2,6.4,1.5,2-.7,3.5-2.6,3.2-4.8s-2.3-3.6-3.9-4.9l-5.6-4.6c-.6-.5-1.5-.6-2.1,0s-.6,1.6,0,2.1h0Z"/>
  <path d="M183.2,22.3h3.9c.8,0,1.5-.7,1.5-1.5s-.7-1.5-1.5-1.5h-3.9c-.8,0-1.5.7-1.5,1.5s.7,1.5,1.5,1.5h0Z"/>
  <path d="M185.4,31.5l-8.9-5.4c-.7-.4-1.7-.2-2.1.5s-.2,1.6.5,2.1c3,1.8,5.9,3.6,8.9,5.4.7.4,1.7.2,2.1-.5s.2-1.6-.5-2.1h0Z"/>
  <path d="M144.3,33.6l-5.8,3.6c-1,.6-1.9,1.2-2.9,1.8-.6.4-1.5,1-2.3.8-.3,0,0,0-.2-.1.2.1-.2-.2-.2-.2,0,0-.3-.4-.3-.5-.2-.6-.3-1.3-.2-1.8.4-1.7,1.8-2.9,3-4.1,1.4-1.3-.7-3.4-2.1-2.1-1.7,1.6-3.5,3.4-3.9,5.7-.3,2,.3,4.4,2.1,5.5,2.4,1.5,5-.4,7-1.7,2.4-1.5,4.8-3,7.1-4.5,1.6-1,.1-3.6-1.5-2.6h0Z"/>
  <path d="M136,32.9l8.9-7.8c.6-.5.6-1.6,0-2.1-.6-.6-1.5-.6-2.1,0l-8.9,7.8c-.6.5-.6,1.6,0,2.1.6.6,1.5.6,2.1,0h0Z"/>
  <path d="M145.1,35.8c3.1,1.5,6.6.2,8.8-2.2,2.3-2.7,3.2-6.2,4-9.6.2-.8-.2-1.6-1.1-1.9-.8-.2-1.7.3-1.9,1.1-.6,2.8-1.2,5.8-3,8.1.1-.2-.2.2-.2.2-.1.1-.2.2-.3.4s-.2.2-.4.3c0,0-.4.3-.2.2-.2.2-.5.4-.8.5-.1,0-.3.1-.4.2-.2.1,0,0-.2.1s-.6.2-.9.3c0,0-.4,0-.2,0,.1,0-.3,0-.3,0-.1,0-.3,0-.4,0-.1,0-.1,0,0,0,0,0-.1,0-.2,0-.1,0-.3,0-.4-.1,0,0-.1,0-.2,0,.1,0,.1,0,0,0-.7-.4-1.6-.2-2.1.5-.4.7-.2,1.7.5,2.1h0Z"/>
  <path d="M154,30c2.4,3.1,6.7,2.8,10,1.5s7.7-4.8,11.3-2.5c1.6,1.1,3.1-1.5,1.5-2.6-3.8-2.5-8.2-.4-11.8,1.4-2.6,1.3-6.6,2.9-8.9,0-.5-.6-1.6-.5-2.1,0-.6.6-.5,1.5,0,2.1h0Z"/>
  <path d="M173.6,8.9c-6.9,3.9-14.5,6.4-22.4,7-1.9.2-1.9,3.2,0,3,8.4-.7,16.5-3.3,23.9-7.4,1.7-.9.2-3.6-1.5-2.6h0Z"/>
  <path d="M153.5,15.9c-5.7-4.5-13.2-4.7-20-2.6-7.5,2.3-13.8,7.2-20.9,10.5-1.8.9-3.7,1.6-5.6,2.1s-3.9,1.1-5.6,2.2c-3,1.9-4.9,5.6-3.5,9,2.5,6.3,10.5,6.1,15.7,4,3.2-1.3,6.2-3,9.3-4.4,2.9-1.3,6.1-2.4,9.3-1.8,1.9.4,2.7-2.5.8-2.9-5.5-1.1-10.6,1.5-15.4,3.9-4.2,2.1-9.9,5.3-14.5,2.7-2.9-1.6-3.6-4.9-1.1-7.3,1.3-1.3,3.2-1.8,4.9-2.3s3.4-1.1,5-1.8c6.6-2.8,12.4-7.1,19-10,6.3-2.7,14.5-3.9,20.3.6,1.5,1.2,3.6-.9,2.1-2.1h0Z"/>
  <path d="M183.1,12.5c2.3,2.7,6.6,2.8,9.1.2.5-.6.6-1.6,0-2.1s-1.5-.6-2.1,0c-.1.1-.2.2-.3.3,0,0-.3.2,0,0s0,0,0,0c-.1,0-.3.2-.4.2,0,0-.1,0-.2.1-.2,0,.3-.1,0,0-.3.1-.6.2-.9.2-.3,0,.3,0,0,0s-.1,0-.2,0c-.1,0-.3,0-.4,0h-.2c-.1,0-.3-.1,0,0-.1,0-.3,0-.4,0s-.3,0-.4-.1c0,0-.1,0-.2,0-.3-.1.2.1,0,0-.3-.2-.5-.3-.8-.5-.1,0,.2.2,0,0,0,0-.1-.1-.2-.2-.1-.1-.2-.2-.4-.4-.5-.6-1.6-.6-2.1,0-.6.6-.5,1.5,0,2.1h0Z"/>
  <path d="M183.4,19.8c-.2,0-.3,0-.5,0,0,0,0,0,0,0-.1,0-.3.1-.4.2-.2,0-.3.2-.4.3,0,.1-.2.2-.2.3,0,0,0,0,0,0,0,0,0,0,0,0,0,.2-.2.4-.2.5,0,.2,0,.3,0,.5h0c0,.3,0,.5,0,.7s.1.4.2.5c0,0,0,0,0,0,0,.1.2.2.2.3,0,0,0,0,0,0,.3.2.5.4.8.5,0,0,0,0,.1,0,.1,0,.3,0,.5,0,.2,0,.4,0,.6-.1.2,0,.4-.2.5-.3.1-.1.2-.3.3-.5,0-.2.1-.4.1-.6v-.4c-.1-.2-.2-.5-.4-.7l-.3-.2c-.2-.1-.5-.2-.8-.2h0,.4c0,0,0,0-.1,0h.4c0,.1,0,.1-.1,0l.3.2s0,0-.1-.1l.2.3s0-.1,0-.1v.4c.1,0,0-.1,0-.2v.4c0,0,0-.2,0-.2v.4c0,0,0-.1,0-.2v.4c-.1,0-.1,0,0-.1l-.2.3s0,0,0,0l-.3.2s0,0,.1,0h-.4c0,.1,0,.1.1.1h-.4c0,0,0,0,0,0,.2,0,.4,0,.6-.1.2,0,.4-.2.5-.3.1-.1.2-.3.3-.5,0-.2.1-.4.1-.6v-.4c-.1-.2-.2-.5-.4-.7l-.3-.2c-.2-.1-.5-.2-.8-.2h0Z"/>
  <path d="M176.4,6.9l-2.6,1.8c-.3.2-.6.5-.7.9-.1.4,0,.8.1,1.2s.5.6.9.7.8,0,1.2-.1l2.6-1.8c.3-.2.6-.5.7-.9.1-.4,0-.8-.1-1.2s-.5-.6-.9-.7-.8,0-1.2.1h0Z"/>
</svg>