<?xml version="1.0" encoding="UTF-8"?>
<svg id="_Слой_1" data-name="Слой_1" xmlns="http://www.w3.org/2000/svg" version="1.1" viewBox="0 0 272.27 282.01">
  <!-- Generator: Adobe Illustrator 29.0.0, SVG Export Plug-In . SVG Version: 2.1.0 Build 186)  -->
  <defs>
    <style>
      .st0 {
        fill: #010101;
      }
    </style>
  </defs>
  <path class="st0" d="M208.43,41.41c12.2-10.38,33.22-8.39,42.25,5.21s6.31,32.29-7.97,41.02c-7.8,4.79-17.04,5.93-25.64,3.01-7.75-2.63-11.1,9.62-3.39,12.25,21.65,7.37,47.38-5.55,53.44-27.8s-7.5-47.38-30.76-52.04c-13.18-2.67-26.74.59-36.99,9.32-2.63,2.25-2.29,6.7,0,8.98,2.58,2.58,6.36,2.25,8.98,0h0l.08.04Z"/>
  <path class="st0" d="M172.88,37.72c-.25-2.42-.34-4.79-.3-7.2,0-1.23.08-2.42.17-3.64.04-.59.13-1.19.17-1.82.08-.64.34-.47-.08.51.13-.3.13-.85.17-1.19.21-1.14.47-2.29.76-3.43.13-.51.3-.97.42-1.44.08-.3.21-.59.3-.89.08-.21.59-1.48.17-.42s.34-.68.42-.89c.21-.42.42-.81.68-1.23.25-.42.55-.85.85-1.27.47-.68-1.1,1.23-.25.38.21-.25.42-.51.68-.72.3-.3.68-.55.97-.89-.85,1.06-.97.68-.38.3.17-.13.34-.25.55-.34.42-.25.89-.42,1.31-.68-1.57.97-.38.17.38,0,.3-.08.59-.08.85-.17.76-.25-1.44.04-.64.08.55,0,1.14-.08,1.7-.04.13,0,.55.08.72.04-.97.25-1.31-.25-.47-.04.55.13,1.1.38,1.65.47.81.13-1.48-.76-.42-.17.21.13.42.21.59.3.47.25.85.55,1.31.81.68.38-1.02-.93-.47-.38.21.21.42.38.64.59.42.42.85.85,1.23,1.27,1.06,1.23-.47-.72.13.13.34.51.68,1.02,1.02,1.57.25.42.51.89.72,1.36.21.42.51,1.48.85,1.78-.68-.55-.42-1.1-.13-.21.13.38.3.76.42,1.14.21.64.42,1.31.64,1.95.42,1.4.76,2.8,1.06,4.24.13.68.25,1.36.38,2.03.04.25.08.55.13.81,0,.25.08.55.13.81l-.13-.89c-.13.51.17,1.48.21,2.03.08.81.13,1.57.17,2.37.17,3.31,2.8,6.53,6.36,6.36,3.31-.13,6.57-2.8,6.36-6.36-.34-6.1-1.27-12.37-3.56-18.09s-5.68-11.57-11.36-14.49-13.48-3.01-18.94.85c-5.09,3.6-8.09,9.03-9.66,14.96-1.65,6.4-1.95,13.22-1.31,19.75.34,3.31,2.67,6.53,6.36,6.36,3.14-.13,6.74-2.8,6.36-6.36h0l.13.04Z"/>
  <path class="st0" d="M149.96,45.9c-12.08,53.86-24.11,107.72-36.19,161.58-1.78,7.97,10.47,11.36,12.25,3.39,12.08-53.86,24.11-107.72,36.19-161.58,1.78-7.97-10.47-11.36-12.25-3.39h0Z"/>
  <path class="st0" d="M122.37,205.74c.3-36.49-5.09-75.13-19.15-109.03-5.42-13.05-13.18-26.06-25.26-33.94-13.22-8.69-28.86-6.91-41.99,1.06-23.77,14.41-49.11,46.02-28.18,73.31,3.9,5.09,9.2,8.98,15.42,10.64,6.7,1.78,15.64-.38,20.43,5.72,9.11,11.48,3.18,31.99,1.44,44.75-2.63,19.03-4.15,38.86,5.25,56.36,7.54,14.07,21.48,25.21,38.05,24.49,8.14-.34,8.18-13.05,0-12.71-12.5.51-21.95-8.31-27.46-18.86-7.08-13.65-5.72-29.83-3.81-44.58,2.88-22.04,11.61-62.63-21.1-66.36-6.27-.72-11.95-.55-16.65-5.34-3.69-3.73-5.85-8.98-6.44-14.2-1.57-13.77,8.35-25.64,18.09-33.99s23.22-17.59,36.49-11.57c10.81,4.87,17.71,16.36,22.5,26.7,7.29,15.72,11.4,33.48,14.62,50.38,3.6,18.86,5.13,37.97,5,57.17-.08,8.18,12.63,8.18,12.71,0h.04Z"/>
  <path class="st0" d="M190.89,195.66c7.97-4.15,17.33,2.63,21.1,9.53,5.89,10.89,2.75,25,.55,36.44-.89,4.45,2.88,9.45,7.84,7.84,9.66-3.22,24.62-8.69,33.82-1.44,3.81,3.01,8.73,12.37,3.56,16.36-2.71,2.08-4.15,5.47-2.29,8.69,1.57,2.67,5.93,4.36,8.69,2.29,11.53-8.81,9.92-24.83.55-34.79-12.37-13.18-32.76-8.31-47.76-3.31l7.84,7.84c3.09-15.76,6.48-34.83-3.52-48.94-8.22-11.61-23.39-18.39-36.78-11.4-7.25,3.77-.85,14.75,6.4,10.98h0v-.08Z"/>
  <path class="st0" d="M90.42,278.97c56.61,4.75,113.52,3.94,169.97-2.42,8.05-.89,8.14-13.65,0-12.71-56.44,6.31-113.4,7.12-169.97,2.42-8.14-.68-8.09,12.03,0,12.71h0Z"/>
  <path class="st0" d="M206.65,136.25l9.2,22.76c1.53,3.81,3.09,7.59,4.58,11.4,1.02,2.54,2.63,5.76,2.2,8.56-.13.76-.13.68-.42,1.23-.51.97.38-.13-.55.59.85-.64-.47.3-.68.42-1.06.64.55-.04-.76.34-.21.08-1.99.47-.81.3-.64.08-1.31.08-1.95.08-.25,0-1.99-.25-.89-.04-.64-.13-1.27-.3-1.86-.51-1.36-.47-3.94-2.54-5.59-4.41-2.12-2.37-3.77-5.13-5.47-7.84-4.32-6.95-15.3-.55-10.98,6.4,4.62,7.46,9.96,15.13,18.65,18.09,7.37,2.5,16.44.38,21.15-6.02,5.98-8.22,1.23-18.09-2.08-26.27l-11.48-28.48c-1.27-3.18-4.24-5.42-7.84-4.45-3.01.85-5.72,4.62-4.45,7.84h.04Z"/>
  <path class="st0" d="M206.32,102.05l-1.02,24.87c-.13,3.31,3.01,6.53,6.36,6.36,3.56-.17,6.23-2.8,6.36-6.36l1.02-24.87c.13-3.31-3.01-6.53-6.36-6.36-3.56.17-6.23,2.8-6.36,6.36h0Z"/>
  <path class="st0" d="M155.93,33.27l-5.42,12.97c-.59,1.4-.08,3.64.64,4.92.76,1.31,2.29,2.58,3.81,2.92,1.61.38,3.43.3,4.92-.64l1.27-.97c.81-.81,1.31-1.74,1.65-2.8l5.42-12.97c.59-1.4.08-3.64-.64-4.92-.76-1.31-2.29-2.58-3.81-2.92-1.61-.38-3.43-.3-4.92.64l-1.27.97c-.81.81-1.31,1.74-1.65,2.8h0Z"/>
  <path class="st0" d="M193.52,60.14c8.35,4.96,19.75,4.83,27.76-.81,1.4-.97,2.46-2.12,2.92-3.81.42-1.53.21-3.56-.64-4.92-1.74-2.71-5.76-4.32-8.69-2.29-1.06.76-2.2,1.4-3.43,1.91l1.53-.64c-1.61.68-3.31,1.14-5.04,1.4l1.7-.21c-1.86.25-3.69.25-5.55,0l1.7.21c-1.74-.25-3.43-.68-5.04-1.36l1.53.64c-.81-.34-1.57-.72-2.33-1.19-2.88-1.7-7.12-.76-8.69,2.29s-.76,6.91,2.29,8.69h0v.08Z"/>
</svg>