<?xml version="1.0" encoding="UTF-8"?>
<svg id="_Слой_1" data-name="Слой_1" xmlns="http://www.w3.org/2000/svg" version="1.1" viewBox="0 0 356.7 158.5">
  <!-- Generator: Adobe Illustrator 29.0.0, SVG Export Plug-In . SVG Version: 2.1.0 Build 186)  -->
  <defs>
    <style>
      .st0 {
        fill: #010101;
      }
    </style>
  </defs>
  <path class="st0" d="M73.9,33.5c2.9-2.4,7.8-2,10,1.2s1.5,7.6-1.9,9.7c-1.8,1.1-4,1.4-6.1.7-1.8-.6-2.6,2.3-.8,2.9,5.1,1.7,11.2-1.3,12.6-6.6s-1.8-11.2-7.3-12.3c-3.1-.6-6.3.1-8.7,2.2-.6.5-.5,1.6,0,2.1.6.6,1.5.5,2.1,0h0Z"/>
  <path class="st0" d="M65.5,32.7c0-.6,0-1.1,0-1.7,0-.3,0-.6,0-.9,0-.1,0-.3,0-.4,0-.1,0-.1,0,.1,0,0,0-.2,0-.3,0-.3.1-.5.2-.8,0-.1,0-.2,0-.3,0,0,0-.1,0-.2,0,0,.1-.4,0-.1s0-.2,0-.2c0-.1,0-.2.2-.3,0-.1.1-.2.2-.3.1-.2-.3.3,0,0,0,0,0-.1.2-.2,0,0,.2-.1.2-.2-.2.2-.2.2,0,0,0,0,0,0,.1,0,0,0,.2-.1.3-.2-.4.2,0,0,0,0,0,0,.1,0,.2,0,.2,0-.3,0-.2,0,.1,0,.3,0,.4,0,0,0,.1,0,.2,0-.2,0-.3,0-.1,0,.1,0,.3,0,.4.1.2,0-.3-.2,0,0,0,0,0,0,.1,0,.1,0,.2.1.3.2.2,0-.2-.2-.1,0,0,0,0,0,.2.1,0,.1.2.2.3.3.2.3-.1-.2,0,0,0,.1.2.2.2.4,0,.1.1.2.2.3,0,.1.1.4.2.4-.2-.1,0-.3,0,0,0,0,0,.2,0,.3,0,.1,0,.3.2.5,0,.3.2.7.2,1,0,.2,0,.3,0,.5,0,0,0,.1,0,.2,0,0,0,.1,0,.2v-.2c0,.1,0,.4,0,.5,0,.2,0,.4,0,.6,0,.8.7,1.5,1.5,1.5.8,0,1.6-.7,1.5-1.5,0-1.4-.3-2.9-.8-4.3s-1.3-2.7-2.7-3.4-3.2-.7-4.5.2c-1.2.9-1.9,2.1-2.3,3.5-.4,1.5-.5,3.1-.3,4.7,0,.8.6,1.5,1.5,1.5.7,0,1.6-.7,1.5-1.5h0Z"/>
  <path class="st0" d="M60.1,34.6c-2.8,12.7-5.7,25.4-8.5,38.1-.4,1.9,2.5,2.7,2.9.8,2.8-12.7,5.7-25.4,8.5-38.1.4-1.9-2.5-2.7-2.9-.8h0Z"/>
  <path class="st0" d="M53.6,72.3c0-8.6-1.2-17.7-4.5-25.7-1.3-3.1-3.1-6.1-6-8-3.1-2.1-6.8-1.6-9.9.2-5.6,3.4-11.6,10.9-6.7,17.3.9,1.2,2.2,2.1,3.6,2.5,1.6.4,3.7,0,4.8,1.4,2.2,2.7.8,7.5.3,10.6-.6,4.5-1,9.2,1.2,13.3,1.8,3.3,5.1,6,9,5.8,1.9,0,1.9-3.1,0-3-2.9.1-5.2-2-6.5-4.5-1.7-3.2-1.3-7-.9-10.5.7-5.2,2.7-14.8-5-15.7-1.5-.2-2.8-.1-3.9-1.3-.9-.9-1.4-2.1-1.5-3.4-.4-3.2,2-6.1,4.3-8s5.5-4.1,8.6-2.7c2.6,1.1,4.2,3.9,5.3,6.3,1.7,3.7,2.7,7.9,3.4,11.9.8,4.4,1.2,9,1.2,13.5,0,1.9,3,1.9,3,0h0Z"/>
  <path class="st0" d="M69.8,69.9c1.9-1,4.1.6,5,2.2,1.4,2.6.7,5.9.1,8.6-.2,1,.7,2.2,1.8,1.9,2.3-.8,5.8-2,8-.3.9.7,2.1,2.9.8,3.9-.6.5-1,1.3-.5,2,.4.6,1.4,1,2.1.5,2.7-2.1,2.3-5.9.1-8.2-2.9-3.1-7.7-2-11.3-.8l1.8,1.9c.7-3.7,1.5-8.2-.8-11.5-1.9-2.7-5.5-4.3-8.7-2.7-1.7.9-.2,3.5,1.5,2.6h0Z"/>
  <path class="st0" d="M46,89.6c13.4,1.1,26.8.9,40.1-.6,1.9-.2,1.9-3.2,0-3-13.3,1.5-26.8,1.7-40.1.6-1.9-.2-1.9,2.8,0,3h0Z"/>
  <path class="st0" d="M73.5,55.9l2.2,5.4c.4.9.7,1.8,1.1,2.7.2.6.6,1.4.5,2,0,.2,0,.2,0,.3-.1.2,0,0-.1.1.2-.1-.1,0-.2.1-.2.2.1,0-.2,0,0,0-.5.1-.2,0-.2,0-.3,0-.5,0s-.5,0-.2,0c-.2,0-.3,0-.4-.1-.3-.1-.9-.6-1.3-1-.5-.6-.9-1.2-1.3-1.9-1-1.6-3.6-.1-2.6,1.5,1.1,1.8,2.3,3.6,4.4,4.3,1.7.6,3.9,0,5-1.4,1.4-1.9.3-4.3-.5-6.2l-2.7-6.7c-.3-.8-1-1.3-1.8-1.1-.7.2-1.3,1.1-1.1,1.9h0Z"/>
  <path class="st0" d="M73.4,47.8l-.2,5.9c0,.8.7,1.5,1.5,1.5.8,0,1.5-.7,1.5-1.5l.2-5.9c0-.8-.7-1.5-1.5-1.5-.8,0-1.5.7-1.5,1.5h0Z"/>
  <path class="st0" d="M61.5,31.6l-1.3,3.1c-.1.3,0,.9.2,1.2.2.3.5.6.9.7.4,0,.8,0,1.2-.1l.3-.2c.2-.2.3-.4.4-.7l1.3-3.1c.1-.3,0-.9-.2-1.2-.2-.3-.5-.6-.9-.7-.4,0-.8,0-1.2.1l-.3.2c-.2.2-.3.4-.4.7h0Z"/>
  <path class="st0" d="M70.4,37.9c2,1.2,4.7,1.1,6.6-.2.3-.2.6-.5.7-.9,0-.4,0-.8-.2-1.2-.4-.6-1.4-1-2.1-.5-.2.2-.5.3-.8.4h.4c-.4,0-.8.1-1.2.2h.4c-.4,0-.9,0-1.3,0h.4c-.4,0-.8-.1-1.2-.3h.4c-.2,0-.4,0-.6-.1-.7-.4-1.7-.2-2.1.5s-.2,1.6.5,2.1h0Z"/>
  <path class="st0" d="M1.1,86.5c23.7,3.6,47.7,5.3,71.7,5,6.9,0,13.7-.3,20.6-.7l-1.5-1.5c2.4,18.5,3,37.2,2,55.9-.1,1.9,2.9,1.9,3,0,1-18.6.3-37.3-2-55.9-.1-.8-.6-1.5-1.5-1.5-23.8,1.4-47.7.9-71.5-1.6-6.7-.7-13.4-1.5-20-2.5-1.9-.3-2.7,2.6-.8,2.9h0Z"/>
  <path class="st0" d="M228,146.8c-2-12.6-4.1-25.1-6.1-37.7l-1.5-9.5-.8-4.6c-.2-1.4-.7-2.9-.5-4.4.1-1.2.9-1.7,2.1-1.8,1.5-.2,3,0,4.5,0,3.2,0,6.3,0,9.5,0,25.6-.2,51.2-.3,76.8-.5,14.5-.1,28.9-.2,43.4-.3,1.9,0,1.9-3,0-3-26.6.2-53.2.4-79.7.5-13.2,0-26.4.2-39.6.3-3.3,0-6.6,0-10,0-2.5,0-5.6-.4-7.8,1.1-2.4,1.6-2.1,4.5-1.6,7,.5,3.3,1.1,6.5,1.6,9.8,2.4,14.7,4.8,29.4,7.1,44,.3,1.9,3.2,1.1,2.9-.8h0Z"/>
</svg>