<?xml version="1.0" encoding="UTF-8"?>
<svg id="_Слой_1" data-name="Слой_1" xmlns="http://www.w3.org/2000/svg" version="1.1" viewBox="0 0 417.9 405.07">
  <!-- Generator: Adobe Illustrator 29.0.0, SVG Export Plug-In . SVG Version: 2.1.0 Build 186)  -->
  <path d="M298.8,247.32c4.58.37,10.24.89,12.6,5.46.9,1.74,1.23,3.93.49,5.79-.79,1.98-2.8,3.11-4.87,3.21-3.07.14-5.79-1.65-8.27-3.23-1.63-1.04-3.14,1.55-1.51,2.59,2.81,1.79,5.86,3.62,9.3,3.65,2.96.03,5.87-1.31,7.49-3.84,3.2-5.01.11-11.79-4.76-14.33-3.22-1.68-6.89-2.02-10.46-2.3-1.92-.15-1.91,2.85,0,3h0Z"/>
  <path d="M300.16,245.34c-.65-2.32-1.43-4.88-3.24-6.58-1.07-1-2.45-1.62-3.93-1.64-1.61-.02-3.09.77-4.02,2.07-1.06,1.49-1.01,3.4-.22,4.99.35.7,1.4.96,2.05.54.72-.46.91-1.3.54-2.05-.03-.06-.12-.26,0,.02-.02-.06-.04-.11-.06-.17-.04-.13-.07-.26-.11-.39-.08-.28,0,.24-.01-.04,0-.15,0-.29,0-.44,0-.21-.05,0-.02.08-.01-.03.02-.13.03-.16.03-.12.06-.24.1-.35.07-.26-.12.21,0-.03.07-.12.14-.24.21-.36.08-.14,0-.12-.05.05,0-.03.08-.09.1-.12.08-.09.17-.17.26-.26.19-.19-.2.12.03-.02.12-.07.24-.14.37-.22.08-.05.24-.07-.06.02.05-.02.1-.04.15-.05.12-.03.25-.07.37-.1.28-.07-.24,0,.05,0,.16,0,.32-.01.48,0,.07,0,.17,0,.23.02,0,0-.29-.07-.13-.01.12.04.25.05.36.08.1.03.2.06.3.09.28.09-.07-.04-.07-.04.03,0,.15.07.18.09.08.04.58.27.6.37,0,.02-.23-.2-.11-.08.03.03.08.06.12.1.1.09.2.18.29.28.08.08.16.17.24.26s.33.28.06.06c.17.14.3.42.41.6.26.43.48.87.69,1.33.04.09.14.21-.03-.06.04.06.06.14.08.2.05.13.1.27.15.4.1.27.19.53.27.8.16.51.31,1.02.45,1.53.21.76,1.07,1.3,1.85,1.05s1.27-1.04,1.05-1.85h0Z"/>
  <path d="M293.13,260.08l3.75.98c.38.1.82.05,1.16-.15.31-.18.61-.54.69-.9.18-.78-.24-1.63-1.05-1.85l-3.75-.98c-.38-.1-.82-.05-1.16.15-.31.18-.61.54-.69.9-.18.78.24,1.63,1.05,1.85h0Z"/>
  <path d="M295.59,250.59c1.52,3.16,5.74,4.34,8.71,2.52.67-.41.98-1.36.54-2.05s-1.34-.98-2.05-.54c-.14.08-.28.16-.42.23-.22.11-.02-.01.08-.03-.07.01-.17.07-.24.09-.13.05-.27.08-.41.12-.08.02-.17.03-.25.05-.26.05.29-.02.11-.01-.3.02-.58.04-.88.01-.15-.01-.31-.1.07.01-.07-.02-.14-.02-.21-.04-.15-.03-.3-.07-.45-.11-.13-.04-.27-.12-.4-.14.31.05.21.1.05.02-.06-.03-.13-.06-.19-.09-.14-.07-.27-.15-.4-.24-.06-.04-.11-.08-.17-.12-.15-.1.26.22.07.05-.12-.1-.23-.2-.34-.32-.1-.11-.2-.26-.31-.35.09.07.19.27.05.06-.04-.06-.08-.12-.12-.18-.09-.15-.18-.3-.25-.46-.34-.71-1.41-.95-2.05-.54-.73.47-.9,1.29-.54,2.05h0Z"/>
  <path d="M297.1,261.24l3.2,5.07c.56.88,1.12,1.76,1.67,2.65.37.59.86,1.27.88,1.99.03.97-.95,1.41-1.8,1.37-.15,0,.09.04-.15-.02-.11-.03-.3-.07-.41-.11-.37-.14-.73-.39-1.04-.63-.61-.48-1.14-1.08-1.66-1.65-1.31-1.43-3.42.7-2.12,2.12,1.42,1.55,3.08,3.16,5.3,3.29,1.89.12,3.83-.98,4.57-2.74.98-2.36-.6-4.53-1.81-6.45-1.34-2.13-2.69-4.26-4.03-6.39-1.03-1.63-3.62-.13-2.59,1.51h0Z"/>
  <path d="M297.5,269.53c-2.27-2.62-4.55-5.24-6.82-7.85-.52-.59-1.6-.57-2.12,0-.58.63-.55,1.49,0,2.12,2.27,2.62,4.55,5.24,6.82,7.85.52.59,1.6.57,2.12,0,.58-.63.55-1.49,0-2.12h0Z"/>
  <path d="M287.57,243.84c-1.29,1.01-2.57,2.02-3.86,3.02-.28.22-.44.72-.44,1.06,0,.37.16.81.44,1.06s.66.46,1.06.44l.4-.05c.25-.07.47-.2.66-.39,1.29-1.01,2.57-2.02,3.86-3.02.28-.22.44-.72.44-1.06,0-.37-.16-.81-.44-1.06s-.66-.46-1.06-.44l-.4.05c-.25.07-.47.2-.66.39h0Z"/>
  <path d="M284.9,245.16c-2.32-2.74-6.52-3.23-9.64-1.67s-4.52,5.55-3.54,8.93c.55,1.89,1.76,3.56,3.47,4.55.68.39,1.67.18,2.05-.54s.19-1.63-.54-2.05c-.14-.08-.28-.16-.41-.25-.07-.04-.13-.09-.19-.14.05.04.22.2.03.01-.24-.23-.47-.48-.7-.72-.14-.15.12.21.02.02-.03-.05-.07-.1-.1-.15-.09-.13-.17-.27-.25-.4s-.15-.28-.22-.42c-.03-.07-.07-.14-.1-.22.14.3.02.04,0-.03-.1-.3-.2-.61-.27-.92-.01-.06-.1-.53-.07-.33s0,0,0-.04c-.01-.12-.02-.24-.03-.36-.02-.32-.01-.64.02-.96,0-.06.02-.12.02-.18,0-.22-.06.25,0,.04.05-.17.07-.35.11-.52.04-.15.09-.3.14-.45.03-.07.05-.15.08-.22-.02.05-.13.28-.01.03.15-.31.35-.58.51-.87.1-.18-.16.17-.02.02.04-.04.08-.09.12-.14.11-.12.22-.24.34-.35s.24-.22.37-.32c-.27.21.17-.11.24-.15.14-.09.28-.16.42-.24.07-.04.15-.07.22-.11.19-.11-.23.07-.02,0,.33-.11.65-.23.99-.3.16-.04.32-.06.48-.09-.31.05.03,0,.15,0,.35-.02.7-.02,1.04,0,.08,0,.16.02.24.02-.34-.03-.05,0,.03,0,.18.04.36.07.54.12.2.05.39.11.58.18.08.03.15.06.23.09-.12-.05-.17-.08-.03,0,.18.09.36.18.53.29.07.04.14.09.2.13.03.02.31.22.14.1-.15-.12.05.04.08.07.08.07.15.13.23.2.15.14.28.29.42.45.52.62,1.58.54,2.12,0,.61-.61.53-1.5,0-2.12h0Z"/>
  <path d="M278.32,252.33c.15.12.28.26.4.42l-.23-.3c.14.18.25.38.34.59l-.15-.36c.1.25.17.5.21.77l-.05-.4c.04.28.04.57,0,.85l.05-.4c-.04.25-.1.48-.2.71l.15-.36c-.09.21-.21.41-.35.59l.23-.3c-.12.15-.26.29-.42.41l.3-.23c-.19.14-.38.26-.6.35l.36-.15c-.23.1-.47.16-.72.2l.4-.05c-.29.04-.57.04-.86,0l.4.05c-.25-.04-.49-.1-.72-.19l.36.15c-.21-.09-.41-.2-.6-.34l.3.23c-.11-.09-.22-.18-.32-.29-.54-.57-1.59-.58-2.12,0-.56.61-.57,1.51,0,2.12s1.41,1.07,2.25,1.2c1,.16,1.94.05,2.86-.38.75-.35,1.43-1.01,1.78-1.76.25-.53.37-.99.44-1.56.05-.43.01-.84-.06-1.27-.14-.9-.63-1.82-1.34-2.41-.31-.26-.64-.44-1.06-.44-.37,0-.81.16-1.06.44s-.46.66-.44,1.06c.02.38.14.81.44,1.06h0Z"/>
  <path d="M269.87,251.85c-3.21,1.51-6.58,3.12-8.96,5.84s-3.63,6.16-2.75,9.64c.48,1.87,3.37,1.08,2.89-.8-.67-2.62.6-5.34,2.42-7.2,2.19-2.24,5.12-3.58,7.91-4.9.73-.34.92-1.4.54-2.05-.44-.75-1.32-.88-2.05-.54h0Z"/>
  <path d="M289.28,260.72c-3.67.77-6.72,3.64-7.85,7.2-.24.75.28,1.67,1.05,1.85.82.19,1.59-.25,1.85-1.05.06-.19.13-.38.2-.56.12-.33-.14.31,0,0,.04-.09.08-.18.13-.27.16-.33.34-.64.53-.95.11-.17.22-.33.34-.49.2-.28-.21.26,0,0,.06-.08.13-.15.19-.23.25-.29.52-.56.8-.81.13-.12.27-.24.41-.35.27-.22-.27.19.01,0,.08-.06.16-.12.24-.17.31-.22.64-.41.97-.59.16-.08.33-.16.49-.24.29-.14-.27.1,0,0,.09-.03.18-.07.28-.1.37-.13.76-.24,1.14-.32.77-.16,1.29-1.11,1.05-1.85-.26-.81-1.02-1.22-1.85-1.05h0Z"/>
  <path d="M289.88,245.92c.34-.38.68-.77,1.02-1.15.15-.14.25-.3.31-.48.09-.18.14-.37.13-.58,0-.21-.04-.4-.13-.58-.06-.19-.16-.35-.31-.48l-.3-.23c-.23-.14-.49-.2-.76-.2l-.4.05c-.25.07-.47.2-.66.39-.34.38-.68.77-1.02,1.15-.15.14-.25.3-.31.48-.09.18-.14.37-.13.58,0,.21.04.4.13.58.06.19.16.35.31.48l.3.23c.23.14.49.2.76.2l.4-.05c.25-.07.47-.2.66-.39h0Z"/>
  <path d="M282.72,247.15v.51c0,.21.04.4.13.58.06.19.16.35.31.48.14.15.3.25.48.31.18.09.37.14.58.13l.4-.05c.25-.07.47-.2.66-.39l.23-.3c.14-.23.2-.49.2-.76v-.51c0-.21-.04-.4-.13-.58-.06-.19-.16-.35-.31-.48-.14-.15-.3-.25-.48-.31-.18-.09-.37-.14-.58-.13l-.4.05c-.25.07-.47.2-.66.39l-.23.3c-.14.23-.2.49-.2.76h0Z"/>
  <path d="M271.73,254.22l.64-.26c.2-.05.37-.14.51-.27.16-.11.29-.25.39-.42.11-.17.17-.36.18-.56.04-.2.04-.4-.03-.6l-.15-.36c-.13-.23-.31-.4-.54-.54l-.36-.15c-.27-.07-.53-.07-.8,0l-.64.26c-.2.05-.37.14-.51.27-.16.11-.29.25-.39.42-.11.17-.17.36-.18.56-.04.2-.04.4.03.6l.15.36c.13.23.31.4.54.54l.36.15c.27.07.53.07.8,0h0Z"/>
  <path d="M258.04,268.27c.78,2.29,1.56,4.58,2.35,6.88.25.74,1.04,1.31,1.85,1.05.74-.24,1.32-1.05,1.05-1.85l-2.35-6.88c-.25-.74-1.04-1.31-1.85-1.05-.74.24-1.32,1.05-1.05,1.85h0Z"/>
  <path d="M278.62,271.4c.33.31.64.65.91,1.01l-.23-.3c.41.54.76,1.12,1.03,1.75l-.15-.36c.19.46.34.94.45,1.43.16.77,1.11,1.29,1.85,1.05.81-.26,1.22-1.02,1.05-1.85-.38-1.84-1.41-3.56-2.78-4.84-.57-.54-1.56-.61-2.12,0s-.61,1.55,0,2.12h0Z"/>
  <path d="M281.46,268l-1.04,2.42c-.11.17-.17.36-.18.56-.04.2-.04.4.03.6.1.35.36.73.69.9.35.18.77.28,1.16.15l.36-.15c.23-.13.4-.31.54-.54l1.04-2.42c.11-.17.17-.36.18-.56.04-.2.04-.4-.03-.6-.1-.35-.36-.73-.69-.9-.35-.18-.77-.28-1.16-.15l-.36.15c-.23.13-.4.31-.54.54h0Z"/>
  <path d="M283.31,270.78c1.8,1.47,3.61,2.94,5.41,4.4.32.26.63.44,1.06.44.37,0,.81-.16,1.06-.44.5-.55.65-1.59,0-2.12-1.8-1.47-3.61-2.94-5.41-4.4-.32-.26-.63-.44-1.06-.44-.37,0-.81.16-1.06.44-.5.55-.65,1.59,0,2.12h0Z"/>
  <path d="M35.43,275.97c23.73,3.58,47.72,5.27,71.71,4.97,6.86-.09,13.72-.34,20.57-.74l-1.5-1.5c2.37,18.51,3.05,37.22,2.03,55.85-.11,1.93,2.9,1.92,3,0,1.02-18.64.33-37.34-2.03-55.85-.1-.77-.61-1.55-1.5-1.5-23.82,1.4-47.74.89-71.47-1.57-6.69-.69-13.37-1.55-20.02-2.55-1.89-.29-2.7,2.61-.8,2.89h0Z"/>
  <path d="M262.37,336.22c-2.03-12.56-4.06-25.12-6.09-37.69l-1.54-9.54-.75-4.65c-.23-1.39-.67-2.93-.53-4.35.12-1.23.94-1.67,2.08-1.82,1.46-.2,3-.08,4.47-.09,3.16-.02,6.31-.04,9.47-.06,25.58-.17,51.17-.34,76.75-.51,14.45-.1,28.91-.19,43.36-.29,1.93-.01,1.93-3.01,0-3-26.58.18-53.16.35-79.74.53-13.21.09-26.41.17-39.62.26-3.32.02-6.65.04-9.97.07-2.49.02-5.65-.42-7.82,1.07-2.38,1.63-2.05,4.55-1.65,7.03.52,3.26,1.06,6.53,1.58,9.79,2.37,14.68,4.75,29.37,7.12,44.05.31,1.9,3.2,1.09,2.89-.8h0Z"/>
  <path d="M253.55,251.76c-5.99-5.76-13-10.64-20.65-13.94-3.09-1.33-6.53-2.31-9.92-1.87-3.56.46-6.24,2.69-7.4,6.09-2.24,6.55-.91,17.18,7.5,18.19,1.64.2,3.33-.14,4.69-1.09,1.44-1.01,2.5-2.75,4.49-2.31,1.88.41,3.38,1.99,4.58,3.39,1.29,1.5,2.48,3.09,3.75,4.62,2.64,3.2,5.74,6.21,9.89,7.22,3.56.87,7.6.3,10.1-2.59,1.26-1.45-.85-3.58-2.12-2.12-1.85,2.13-4.72,2.45-7.34,1.77-3.23-.83-5.63-3.15-7.74-5.62-3.56-4.17-9.31-13.53-15.7-8.19-1.18.99-2.1,2-3.75,1.98-1.35-.02-2.7-.62-3.7-1.52-2.63-2.35-2.75-6.37-2.41-9.62s1.37-6.23,4.68-7.08c2.79-.72,5.87.13,8.47,1.15,7.6,2.98,14.64,8.02,20.49,13.65,1.39,1.34,3.52-.78,2.12-2.12h0Z"/>
  <path d="M251.78,254.07c2.54,2.69,5.08,5.38,7.62,8.07.54.57,1.58.59,2.12,0s.58-1.51,0-2.12c-2.54-2.69-5.08-5.38-7.62-8.07-.54-.57-1.58-.59-2.12,0s-.58,1.51,0,2.12h0Z"/>
  <path d="M271.9,265.22c-.29-.36,0,.01.06.11.08.12.14.24.21.37.02.05.04.11.07.15-.19-.26-.09-.22-.04-.08s.09.27.13.4c.03.12.05.25.08.37.07.3-.03-.37,0-.06,0,.06.01.11.01.17.02.29,0,.57-.01.85-.01.21,0-.1.02-.14-.02.06-.02.15-.04.21-.03.14-.06.28-.1.42s-.1.27-.14.4c-.05.17.17-.35.04-.08-.03.05-.05.1-.07.15-.06.13-.13.25-.21.37-.04.06-.08.12-.12.18-.09.14-.17.1.06-.07-.1.07-.17.2-.25.29-.11.11-.23.22-.35.32-.61.5-.56,1.61,0,2.12.65.59,1.47.54,2.12,0,1.24-1.03,1.88-2.58,2.04-4.16s-.38-3.17-1.39-4.42c-.49-.61-1.61-.55-2.12,0-.6.65-.53,1.47,0,2.12h0Z"/>
  <path d="M274.09,271.5s.1-.07.14-.12c-.04.05-.25.18-.08.07.1-.07.2-.14.31-.21.12-.07.24-.14.36-.21.05-.03.11-.06.16-.08.04-.02.25-.11.03-.02s-.01,0,.03-.01c.06-.02.12-.04.17-.06.12-.04.23-.08.35-.11s.24-.06.36-.09.57-.06.1-.03c.25-.02.49-.05.74-.05.12,0,.25,0,.37.01.06,0,.12.01.18.01.21.01-.06,0-.12-.02.26.06.51.09.77.17.12.03.23.07.35.12.05.02.25.1.04,0-.24-.1.05.02.07.04.71.33,1.65.22,2.05-.54.35-.67.22-1.7-.54-2.05-2.65-1.25-5.73-.85-7.97,1.05-.6.51-.56,1.6,0,2.12.64.59,1.48.54,2.12,0h0Z"/>
  <path d="M289.47,275.77l.64.38c.17.11.36.17.56.18.2.04.4.04.6-.03.2-.05.37-.14.51-.27.16-.11.29-.25.39-.42l.15-.36c.07-.27.07-.53,0-.8l-.15-.36c-.13-.23-.31-.4-.54-.54l-.64-.38c-.17-.11-.36-.17-.56-.18-.2-.04-.4-.04-.6.03-.2.05-.37.14-.51.27-.16.11-.29.25-.39.42l-.15.36c-.07.27-.07.53,0,.8l.15.36c.13.23.31.4.54.54h0Z"/>
</svg>