<?xml version="1.0" encoding="UTF-8"?>
<svg id="_Слой_1" data-name="Слой_1" xmlns="http://www.w3.org/2000/svg" version="1.1" viewBox="0 0 417.9 405.07">
  <!-- Generator: Adobe Illustrator 29.0.0, SVG Export Plug-In . SVG Version: 2.1.0 Build 186)  -->
  <defs>
    <style>
      .st0 {
        fill: #010101;
      }
    </style>
  </defs>
  <path class="st0" d="M108.23,222.96c2.88-2.45,7.84-1.98,9.97,1.23s1.49,7.62-1.88,9.68c-1.84,1.13-4.02,1.4-6.05.71-1.83-.62-2.62,2.27-.8,2.89,5.11,1.74,11.18-1.31,12.61-6.56s-1.77-11.18-7.26-12.28c-3.11-.63-6.31.14-8.73,2.2-.62.53-.54,1.58,0,2.12.61.61,1.5.53,2.12,0h0Z"/>
  <path class="st0" d="M99.84,222.09c-.06-.57-.08-1.13-.07-1.7,0-.29.02-.57.04-.86.01-.14.03-.28.04-.43.02-.15.08-.11-.02.12.03-.07.03-.2.04-.28.05-.27.11-.54.18-.81.03-.12.07-.23.1-.34.02-.07.05-.14.07-.21.02-.05.14-.35.04-.1s.08-.16.1-.21c.05-.1.1-.19.16-.29.06-.1.13-.2.2-.3.11-.16-.26.29-.06.09.05-.06.1-.12.16-.17.07-.07.16-.13.23-.21-.2.25-.23.16-.09.07.04-.03.08-.06.13-.08.1-.06.21-.1.31-.16-.37.23-.09.04.09,0,.07-.02.14-.02.2-.04.18-.06-.34.01-.15.02.13,0,.27-.02.4-.01.03,0,.13.02.17.01-.23.06-.31-.06-.11-.01.13.03.26.09.39.11.19.03-.35-.18-.1-.04.05.03.1.05.14.07.11.06.2.13.31.19.16.09-.24-.22-.11-.09.05.05.1.09.15.14.1.1.2.2.29.3.25.29-.11-.17.03.03.08.12.16.24.24.37.06.1.12.21.17.32.05.1.12.35.2.42-.16-.13-.1-.26-.03-.05.03.09.07.18.1.27.05.15.1.31.15.46.1.33.18.66.25,1,.03.16.06.32.09.48.01.06.02.13.03.19,0,.06.02.13.03.19l-.03-.21c-.03.12.04.35.05.48.02.19.03.37.04.56.04.78.66,1.54,1.5,1.5.78-.03,1.55-.66,1.5-1.5-.08-1.44-.3-2.92-.84-4.27s-1.34-2.73-2.68-3.42-3.18-.71-4.47.2c-1.2.85-1.91,2.13-2.28,3.53-.39,1.51-.46,3.12-.31,4.66.08.78.63,1.54,1.5,1.5.74-.03,1.59-.66,1.5-1.5h0Z"/>
  <path class="st0" d="M94.43,224.02c-2.85,12.71-5.69,25.42-8.54,38.13-.42,1.88,2.47,2.68,2.89.8,2.85-12.71,5.69-25.42,8.54-38.13.42-1.88-2.47-2.68-2.89-.8h0Z"/>
  <path class="st0" d="M87.92,261.74c.07-8.61-1.2-17.73-4.52-25.73-1.28-3.08-3.11-6.15-5.96-8.01-3.12-2.05-6.81-1.63-9.91.25-5.61,3.4-11.59,10.86-6.65,17.3.92,1.2,2.17,2.12,3.64,2.51,1.58.42,3.69-.09,4.82,1.35,2.15,2.71.75,7.55.34,10.56-.62,4.49-.98,9.17,1.24,13.3,1.78,3.32,5.07,5.95,8.98,5.78,1.92-.08,1.93-3.08,0-3-2.95.12-5.18-1.96-6.48-4.45-1.67-3.22-1.35-7.04-.9-10.52.68-5.2,2.74-14.78-4.98-15.66-1.48-.17-2.82-.13-3.93-1.26-.87-.88-1.38-2.12-1.52-3.35-.37-3.25,1.97-6.05,4.27-8.02s5.48-4.15,8.61-2.73c2.55,1.15,4.18,3.86,5.31,6.3,1.72,3.71,2.69,7.9,3.45,11.89.85,4.45,1.21,8.96,1.18,13.49-.02,1.93,2.98,1.93,3,0h0Z"/>
  <path class="st0" d="M104.09,259.36c1.88-.98,4.09.62,4.98,2.25,1.39,2.57.65,5.9.13,8.6-.21,1.05.68,2.23,1.85,1.85,2.28-.76,5.81-2.05,7.98-.34.9.71,2.06,2.92.84,3.86-.64.49-.98,1.29-.54,2.05.37.63,1.4,1.03,2.05.54,2.72-2.08,2.34-5.86.13-8.21-2.92-3.11-7.73-1.96-11.27-.78l1.85,1.85c.73-3.72,1.53-8.22-.83-11.55-1.94-2.74-5.52-4.34-8.68-2.69-1.71.89-.2,3.48,1.51,2.59h0Z"/>
  <path class="st0" d="M80.38,279.02c13.36,1.12,26.79.93,40.11-.57,1.9-.21,1.92-3.22,0-3-13.32,1.49-26.76,1.68-40.11.57-1.92-.16-1.91,2.84,0,3h0Z"/>
  <path class="st0" d="M107.81,245.34l2.17,5.37c.36.9.73,1.79,1.08,2.69.24.6.62,1.36.52,2.02-.03.18-.03.16-.1.29-.12.23.09-.03-.13.14.2-.15-.11.07-.16.1-.25.15.13-.01-.18.08-.05.02-.47.11-.19.07-.15.02-.31.02-.46.02-.06,0-.47-.06-.21-.01-.15-.03-.3-.07-.44-.12-.32-.11-.93-.6-1.32-1.04-.5-.56-.89-1.21-1.29-1.85-1.02-1.64-3.61-.13-2.59,1.51,1.09,1.76,2.35,3.57,4.4,4.27,1.74.59,3.88.09,4.99-1.42,1.41-1.94.29-4.27-.49-6.2l-2.71-6.72c-.3-.75-1-1.28-1.85-1.05-.71.2-1.35,1.09-1.05,1.85h0Z"/>
  <path class="st0" d="M107.73,237.27l-.24,5.87c-.03.78.71,1.54,1.5,1.5.84-.04,1.47-.66,1.5-1.5l.24-5.87c.03-.78-.71-1.54-1.5-1.5-.84.04-1.47.66-1.5,1.5h0Z"/>
  <path class="st0" d="M95.84,221.04l-1.28,3.06c-.14.33-.02.86.15,1.16.18.31.54.61.9.69.38.09.81.07,1.16-.15l.3-.23c.19-.19.31-.41.39-.66l1.28-3.06c.14-.33.02-.86-.15-1.16-.18-.31-.54-.61-.9-.69-.38-.09-.81-.07-1.16.15l-.3.23c-.19.19-.31.41-.39.66h0Z"/>
  <path class="st0" d="M104.71,227.38c1.97,1.17,4.66,1.14,6.55-.19.33-.23.58-.5.69-.9.1-.36.05-.84-.15-1.16-.41-.64-1.36-1.02-2.05-.54-.25.18-.52.33-.81.45l.36-.15c-.38.16-.78.27-1.19.33l.4-.05c-.44.06-.87.06-1.31,0l.4.05c-.41-.06-.81-.16-1.19-.32l.36.15c-.19-.08-.37-.17-.55-.28-.68-.4-1.68-.18-2.05.54s-.18,1.63.54,2.05h0Z"/>
  <path class="st0" d="M35.43,275.97c23.73,3.58,47.72,5.27,71.71,4.97,6.86-.09,13.72-.34,20.57-.74l-1.5-1.5c2.37,18.51,3.05,37.22,2.03,55.85-.11,1.93,2.9,1.92,3,0,1.02-18.64.33-37.34-2.03-55.85-.1-.77-.61-1.55-1.5-1.5-23.82,1.4-47.74.89-71.47-1.57-6.69-.69-13.37-1.55-20.02-2.55-1.89-.29-2.7,2.61-.8,2.89h0Z"/>
  <path class="st0" d="M262.37,336.22c-2.03-12.56-4.06-25.12-6.09-37.69l-1.54-9.54-.75-4.65c-.23-1.39-.67-2.93-.53-4.35.12-1.23.94-1.67,2.08-1.82,1.46-.2,3-.08,4.47-.09,3.16-.02,6.31-.04,9.47-.06,25.58-.17,51.17-.34,76.75-.51,14.45-.1,28.91-.19,43.36-.29,1.93-.01,1.93-3.01,0-3-26.58.18-53.16.35-79.74.53-13.21.09-26.41.17-39.62.26-3.32.02-6.65.04-9.97.07-2.49.02-5.65-.42-7.82,1.07-2.38,1.63-2.05,4.55-1.65,7.03.52,3.26,1.06,6.53,1.58,9.79,2.37,14.68,4.75,29.37,7.12,44.05.31,1.9,3.2,1.09,2.89-.8h0Z"/>
</svg>