<?xml version="1.0" encoding="UTF-8"?>
<svg id="_Слой_1" data-name="Слой_1" xmlns="http://www.w3.org/2000/svg" version="1.1" viewBox="0 0 417.9 405.07">
  <!-- Generator: Adobe Illustrator 29.0.0, SVG Export Plug-In . SVG Version: 2.1.0 Build 186)  -->
  <path d="M35.43,275.97c23.73,3.58,47.72,5.27,71.71,4.97,6.86-.09,13.72-.34,20.57-.74l-1.5-1.5c2.37,18.51,3.05,37.22,2.03,55.85-.11,1.93,2.9,1.92,3,0,1.02-18.64.33-37.34-2.03-55.85-.1-.77-.61-1.55-1.5-1.5-23.82,1.4-47.74.89-71.47-1.57-6.69-.69-13.37-1.55-20.02-2.55-1.89-.29-2.7,2.61-.8,2.89h0Z"/>
  <path d="M262.37,336.22c-2.03-12.56-4.06-25.12-6.09-37.69l-1.54-9.54-.75-4.65c-.23-1.39-.67-2.93-.53-4.35.12-1.23.94-1.67,2.08-1.82,1.46-.2,3-.08,4.47-.09,3.16-.02,6.31-.04,9.47-.06,25.58-.17,51.17-.34,76.75-.51,14.45-.1,28.91-.19,43.36-.29,1.93-.01,1.93-3.01,0-3-26.58.18-53.16.35-79.74.53-13.21.09-26.41.17-39.62.26-3.32.02-6.65.04-9.97.07-2.49.02-5.65-.42-7.82,1.07-2.38,1.63-2.05,4.55-1.65,7.03.52,3.26,1.06,6.53,1.58,9.79,2.37,14.68,4.75,29.37,7.12,44.05.31,1.9,3.2,1.09,2.89-.8h0Z"/>
  <path d="M223.77,309.37c4.65-.83,10.51-1.74,13.85,2.46,1.15,1.45,1.93,3.44,1.61,5.3-.35,2.02-1.93,3.52-3.84,4.14-2.94.94-6.05-.12-8.86-1.02-1.84-.59-2.63,2.3-.8,2.89,3.17,1.02,6.56,2.01,9.89,1.19,2.77-.69,5.16-2.59,6.18-5.29,2.07-5.48-2.37-11.39-7.57-12.84-3.7-1.03-7.57-.38-11.27.28-.8.14-1.25,1.12-1.05,1.85.23.84,1.04,1.19,1.85,1.05h0Z"/>
  <path d="M225.57,307.11c-1.72-2.9-3.89-6.15-7.62-6.28-1.71-.06-3.34.71-4.32,2.1-.81,1.15-.91,2.81-.46,4.12.53,1.54,1.85,2.98,3.61,2.82.78-.07,1.54-.64,1.5-1.5-.03-.75-.66-1.57-1.5-1.5-.03,0-.27,0-.28,0,.02-.02.31.09.17.02-.04-.02-.13-.05-.17-.04-.17,0,.19.04.15.07,0,0-.11-.06-.12-.06-.04-.02-.08-.05-.12-.07-.2-.11.1.03.08.07,0,0-.18-.18-.2-.2-.18-.17.14.24-.03-.04-.05-.09-.1-.17-.15-.26-.17-.29.04.17-.03-.07-.07-.22-.12-.44-.17-.66-.05-.18.03.14.02.13-.01-.01-.01-.14-.01-.16,0-.12,0-.25,0-.37,0-.05.01-.11.01-.16,0-.18,0,.15-.02.14-.03-.03.07-.31.08-.36.01-.05.04-.1.05-.15,0,.01-.14.25-.05.12.06-.1.12-.21.18-.31.01-.02.12-.15.02-.03-.12.14.06-.06.09-.09.04-.04.3-.27.17-.17s.15-.09.2-.12c.1-.06.41-.18.13-.09.13-.05.27-.09.41-.13.06-.01.41-.09.22-.05s.17,0,.23-.01c.15,0,.29,0,.44,0,.08,0,.17.01.25.02-.02,0-.25-.05-.09,0,.12.03.25.05.37.08s.24.07.36.11c.06.02.12.04.18.07-.2-.08-.07-.03.05.03.24.12.47.27.69.43.14.1.02,0,0-.01.06.05.11.09.17.14.15.13.3.26.44.4,1.02,1.01,1.69,2.17,2.49,3.52.4.68,1.37.98,2.05.54s.97-1.33.54-2.05h0Z"/>
  <path d="M220.61,324.42l4.49,3.75c.78.65,1.56,1.3,2.33,1.95.51.43,1.17.96,1.48,1.44.58.9.17,1.78-.82,2.17-.45.18-1.05.14-1.75-.08-.81-.25-1.55-.69-2.29-1.1-1.68-.95-3.2,1.64-1.51,2.59,1.89,1.07,4.16,2.22,6.38,1.47,1.99-.68,3.52-2.61,3.23-4.77s-2.26-3.56-3.86-4.89c-1.86-1.55-3.71-3.1-5.57-4.64-.62-.52-1.51-.61-2.12,0-.53.53-.63,1.6,0,2.12h0Z"/>
  <path d="M221.52,323.16c1.29,0,2.58,0,3.87,0,.78,0,1.54-.69,1.5-1.5s-.66-1.5-1.5-1.5c-1.29,0-2.58,0-3.87,0-.78,0-1.54.69-1.5,1.5s.66,1.5,1.5,1.5h0Z"/>
  <path d="M223.69,332.28l-8.91-5.37c-.67-.41-1.68-.17-2.05.54s-.18,1.62.54,2.05c2.97,1.79,5.94,3.58,8.91,5.37.67.41,1.68.17,2.05-.54s.18-1.62-.54-2.05h0Z"/>
  <path d="M180.66,338.41l-5.76,3.65c-.96.61-1.91,1.22-2.87,1.82-.63.4-1.48,1.02-2.27.84-.27-.06,0,.05-.21-.11.16.11-.17-.16-.18-.17-.05-.06-.26-.41-.29-.47-.25-.62-.29-1.29-.18-1.83.37-1.7,1.8-2.95,3.03-4.07,1.42-1.31-.7-3.43-2.12-2.12-1.69,1.56-3.49,3.37-3.86,5.74-.31,2,.26,4.38,2.08,5.51,2.43,1.5,4.96-.38,6.99-1.67,2.38-1.51,4.76-3.02,7.14-4.53,1.63-1.03.12-3.63-1.51-2.59h0Z"/>
  <path d="M172.36,337.76l8.9-7.78c.59-.52.57-1.6,0-2.12-.63-.58-1.49-.55-2.12,0-2.97,2.59-5.94,5.18-8.9,7.78-.59.52-.57,1.6,0,2.12.63.58,1.49.55,2.12,0h0Z"/>
  <path d="M181.43,340.65c3.09,1.5,6.64.23,8.82-2.25,2.34-2.66,3.21-6.22,3.99-9.58.18-.79-.24-1.62-1.05-1.85-.76-.21-1.66.26-1.85,1.05-.65,2.8-1.25,5.77-3.04,8.05.13-.17-.19.22-.18.21-.11.12-.22.24-.34.36s-.24.23-.36.34c-.03.02-.35.3-.2.18-.25.2-.53.38-.81.53-.14.08-.28.15-.42.22-.25.13.06,0-.22.1s-.59.2-.89.26c-.03,0-.41.06-.25.05.12-.01-.27.01-.33.01-.15,0-.3,0-.45-.01-.11-.01-.1,0,.03.01-.07-.01-.15-.03-.22-.04-.15-.03-.29-.07-.44-.12-.07-.02-.15-.05-.22-.08.12.05.1.04-.07-.04-.73-.35-1.62-.2-2.05.54-.39.66-.19,1.7.54,2.05h0Z"/>
  <path d="M206.57,330.26c.16-.08.33-.15.5-.22.16-.07.17-.07.02-.01.09-.04.17-.07.26-.11.34-.14.69-.27,1.04-.39.31-.1.62-.19.93-.27.18-.05.36-.09.54-.12.06-.01.62-.1.28-.06.36-.05.72-.07,1.08-.06.13,0,.27,0,.4.02.09,0,.18.02.27.03-.18-.02-.18-.02,0,0,.35.08.7.16,1.04.3-.28-.12.22.12.27.15.17.09.33.2.49.31.65.44,1.69.14,2.05-.54.4-.76.16-1.58-.54-2.05-3.16-2.15-6.96-1.02-10.13.43-.72.33-.95,1.42-.54,2.05.48.74,1.29.89,2.05.54h0Z"/>
  <path d="M211.94,309.71c-6.69,3.8-14.1,6.23-21.77,6.98-1.9.19-1.92,3.19,0,3,8.21-.81,16.11-3.32,23.28-7.39,1.68-.95.17-3.55-1.51-2.59h0Z"/>
  <path d="M155.57,322.58c-3.14,1.63-6.79,2.23-10.15,3.28s-7.13,2.44-9.26,5.44c-.99,1.39-1.45,3.09-1.41,4.78.05,1.96.38,4.41,1.81,5.86,3.37,3.43,9.19,2.49,13.23,1.11,6.42-2.2,12.31-6.07,19.29-6.21,1.93-.04,1.93-3.04,0-3-5.6.11-10.55,2.33-15.6,4.53-3.99,1.74-9.12,4.16-13.5,2.3-1.74-.74-1.93-2.06-2.17-3.79-.19-1.37.02-2.75.82-3.9,1.71-2.44,5.13-3.47,7.84-4.31,3.54-1.09,7.3-1.78,10.62-3.5,1.71-.89.2-3.48-1.51-2.59h0Z"/>
  <path d="M221.72,320.58c-.16.02-.33.02-.49.07-.02,0-.03.01-.05.02-.13.05-.27.1-.39.17-.16.09-.32.21-.44.34-.09.1-.18.22-.25.33,0,.01-.02.02-.02.04-.02.03-.03.06-.04.09-.07.16-.17.35-.2.54-.03.16-.05.32-.06.49,0,.04,0,.07,0,.11.01.19.03.39.08.58s.13.37.22.53c.02.03.03.05.05.08.08.11.17.22.25.33.01.01.02.03.04.04.26.25.48.36.81.48.03.01.07.02.11.03.15.03.34.07.5.06.21,0,.4-.04.58-.13.19-.06.35-.16.48-.31.15-.14.25-.3.31-.48.09-.18.14-.37.13-.58l-.05-.4c-.07-.25-.2-.47-.39-.66l-.3-.23c-.23-.14-.49-.2-.76-.2-.03,0-.06,0-.09,0l.4.05s-.08-.02-.12-.03l.36.15s-.08-.04-.11-.06l.3.23s-.07-.06-.1-.1l.23.3s-.06-.1-.09-.15l.15.36c-.03-.07-.05-.15-.06-.22l.05.4c0-.08-.01-.16,0-.23l-.05.4c0-.07.03-.13.05-.2l-.15.36s.04-.09.08-.13l-.23.3s.05-.06.08-.08l-.3.23s.07-.04.1-.06l-.36.15s.08-.03.12-.03l-.4.05h.01c.21,0,.4-.04.58-.13.19-.06.35-.16.48-.31.15-.14.25-.3.31-.48.09-.18.14-.37.13-.58l-.05-.4c-.07-.25-.2-.47-.39-.66l-.3-.23c-.23-.14-.49-.2-.76-.2h0Z"/>
  <path d="M214.7,307.73l-2.55,1.79c-.33.23-.58.5-.69.9-.1.36-.05.84.15,1.16s.51.6.9.69.83.08,1.16-.15l2.55-1.79c.33-.23.58-.5.69-.9.1-.36.05-.84-.15-1.16s-.51-.6-.9-.69-.83-.08-1.16.15h0Z"/>
  <path d="M222.97,313.14l4.55,3.13c.31.21.81.25,1.16.15s.73-.36.9-.69c.4-.76.15-1.58-.54-2.05-1.52-1.04-3.03-2.08-4.55-3.13-.31-.21-.81-.25-1.16-.15s-.73.36-.9.69c-.4.76-.15,1.58.54,2.05h0Z"/>
  <path d="M226.76,310.39c-1.26,1.97-2.51,3.94-3.77,5.91-.42.66-.16,1.68.54,2.05.74.39,1.6.17,2.05-.54,1.26-1.97,2.51-3.94,3.77-5.91.42-.66.16-1.68-.54-2.05-.74-.39-1.6-.17-2.05.54h0Z"/>
  <path d="M241.03,320.23h.05c-.13-.01-.27-.03-.4-.05.18.03.34.07.51.14l-.36-.15c.17.08.34.17.49.29l-.3-.23c.16.13.31.28.44.44l-.23-.3c.15.19.27.4.37.62l-.15-.36c.1.24.17.49.2.74l-.05-.4c.03.22.03.44,0,.67l.05-.4c-.03.19-.08.37-.15.54l.15-.36c-.07.15-.15.28-.24.41l.23-.3c-.11.14-.23.26-.36.36l.3-.23c-.15.11-.31.2-.48.28l.36-.15c-.2.08-.41.14-.62.17l.4-.05c-.25.03-.5.03-.75,0l.4.05c-.25-.04-.49-.1-.72-.2l.36.15c-.2-.09-.39-.19-.56-.33l.3.23c-.14-.11-.27-.24-.39-.39l.23.3c-.1-.14-.19-.28-.26-.44l.15.36-.02-.04c-.15-.38-.33-.68-.69-.9-.32-.19-.8-.27-1.16-.15s-.71.34-.9.69-.3.79-.15,1.16c.22.55.49,1.05.94,1.45s.9.65,1.46.85c.84.3,1.89.31,2.72,0,.53-.21,1.02-.47,1.42-.9s.7-.94.85-1.51c.28-1.03.09-2.15-.43-3.08-.31-.56-.74-1-1.25-1.37s-1.13-.53-1.76-.61c-.35-.04-.82.2-1.06.44-.26.26-.46.69-.44,1.06s.14.79.44,1.06l.3.23c.23.14.49.2.76.2h0Z"/>
  <path d="M169.44,336.89h1.4c.21,0,.4-.04.58-.13.19-.06.35-.16.48-.31.15-.14.25-.3.31-.48.09-.18.14-.37.13-.58l-.05-.4c-.07-.25-.2-.47-.39-.66l-.3-.23c-.23-.14-.49-.2-.76-.2h-1.4c-.21,0-.4.04-.58.13-.19.06-.35.16-.48.31-.15.14-.25.3-.31.48-.09.18-.14.37-.13.58l.05.4c.07.25.2.47.39.66l.3.23c.23.14.49.2.76.2h0Z"/>
  <path d="M192.03,334.73c3.66.17,7.27-.6,10.58-2.13.74-.34.92-1.4.54-2.05-.44-.75-1.31-.88-2.05-.54-2.81,1.3-5.94,1.87-9.07,1.72-.78-.04-1.54.72-1.5,1.5.04.84.66,1.46,1.5,1.5h0Z"/>
  <path d="M204.76,327.76c-1.11.71-2.22,1.43-3.34,2.14-.33.21-.58.52-.69.9-.1.36-.05.84.15,1.16s.51.6.9.69.81.07,1.16-.15c1.11-.71,2.22-1.43,3.34-2.14.33-.21.58-.52.69-.9.1-.36.05-.84-.15-1.16s-.51-.6-.9-.69-.81-.07-1.16.15h0Z"/>
  <path d="M156.93,322.4c-1.49.43-2.96.88-4.44,1.36-.37.12-.7.35-.9.69-.19.32-.27.8-.15,1.16.24.75,1.05,1.3,1.85,1.05,1.47-.47,2.95-.93,4.44-1.36.75-.22,1.3-1.07,1.05-1.85s-1.04-1.28-1.85-1.05h0Z"/>
  <path d="M182.47,317.13c-8.2,1.05-16.31,2.67-24.27,4.9-1.86.52-1.07,3.42.8,2.89,7.7-2.15,15.54-3.77,23.47-4.79.81-.1,1.49-.62,1.5-1.5,0-.73-.7-1.6-1.5-1.5h0Z"/>
  <path d="M157.21,325.41l1.66-.38c.2-.05.37-.14.51-.27.16-.11.29-.25.39-.42.11-.17.17-.36.18-.56.04-.2.04-.4-.03-.6-.12-.36-.34-.71-.69-.9l-.36-.15c-.27-.07-.53-.07-.8,0l-1.66.38c-.2.05-.37.14-.51.27-.16.11-.29.25-.39.42-.11.17-.17.36-.18.56-.04.2-.04.4.03.6.12.36.34.71.69.9l.36.15c.27.07.53.07.8,0h0Z"/>
  <path d="M190.63,316.65l-6.1.14c-.78.02-1.54.68-1.5,1.5s.66,1.52,1.5,1.5l6.1-.14c.78-.02,1.54-.68,1.5-1.5s-.66-1.52-1.5-1.5h0Z"/>
  <path d="M183.48,319.91c1.93,0,1.93-3,0-3s-1.93,3,0,3h0Z"/>
  <path d="M207.77,330.9c2.97,2.11,6.15,3.91,9.49,5.35,2.33,1,6.37,1.56,7.18-1.71.46-1.87-2.43-2.67-2.89-.8-.02.07-.06.23,0,.08-.14.32.07-.03-.06.09-.03.03-.02.03-.07.05-.12.04-.25.08-.37.1.16-.03-.02,0-.08,0-.26.02-.52.01-.77-.02-.91-.1-2.12-.68-3.07-1.13-2.74-1.3-5.36-2.84-7.83-4.6-.66-.47-1.67-.12-2.05.54-.44.75-.12,1.58.54,2.05h0Z"/>
  <path d="M193.61,334.78c0,3.41-2.87,6.59-6.34,6.72-2.29.09-4.46-.36-6.61.71-.75.38-3.45,2.7-4.14,1.25-.82-1.74-3.41-.22-2.59,1.51,1.12,2.38,4.2,2.19,6.16,1.09,1.21-.68,2.2-1.54,3.64-1.64s2.79.17,4.18.02c4.83-.51,8.7-4.82,8.71-9.68,0-1.93-3-1.93-3,0h0Z"/>
</svg>