<?xml version="1.0" encoding="UTF-8"?>
<svg id="_Слой_1" data-name="Слой_1" xmlns="http://www.w3.org/2000/svg" version="1.1" viewBox="0 0 202.75 179.27">
  <!-- Generator: Adobe Illustrator 29.0.0, SVG Export Plug-In . SVG Version: 2.1.0 Build 186)  -->
  <defs>
    <style>
      .st0 {
        fill: #fff;
      }
    </style>
  </defs>
  <path d="M181.56,82.39c-.04-.23-.06-.45-.06-.69-.6,0-1.11.02-1.41.08-19.5,4.1-39.3,6.6-59.2,7.4-19.8.8-39.6,0-59.3-2.4-11.2-1.4-22.2-3.3-33.2-5.8-.36-.08-.68-.15-1-.21-.1.02-.19.04-.29.06-.1.03-.21.04-.31.04-.05.02-.11.05-.16.07,0,0,0,.01-.01.02-.14.18-.36.29-.59.35-.01.04-.03.08-.05.13-.05.39-.11.77-.17,1.15-.02.18-.04.35-.05.53.73.38,1.43.68,1.83.77h-.1c19.6,4.4,39.6,7.1,59.7,8.1,4.13.21,8.27.31,12.41.38.18-.05.37-.06.55-.04.11-.02.21-.04.32-.04.05,0,.11,0,.16,0,.18-.09.38-.14.57-.15.07-.12.15-.24.25-.35.14-.15.3-.25.48-.31.18-.09.37-.14.58-.13.21,0,.4.04.58.13.19.06.35.16.48.31.12.15.25.3.34.47.02.04.04.09.06.13.09.01.19.01.28.03.12,0,.24,0,.36.03,14.32.05,28.64-.71,42.86-2.35,11.2-1.3,22.3-3.1,33.4-5.4.27-.06.52-.11.76-.17-.01-.12-.01-.24,0-.37-.16-.57-.2-1.18-.1-1.77Z"/>
  <path d="M181.52,81.57s-.03-.06-.04-.1c-.47-.19-.86-.47-1.16-.82-.48-.04-.92-.13-1.32-.28-19.12-4.11-38.61-6.61-58.2-7.59-20.1-1-40.3-.2-60.3,2.2-10.45,1.21-20.8,2.97-31.07,5.14-.74.33-1.51.58-2.32.7-.1.03-.21.04-.31.04-.05.02-.11.05-.16.07,0,0,0,.01-.01.02-.14.18-.36.29-.59.35-.01.04-.03.08-.05.13-.05.39-.11.77-.17,1.15-.04.32-.06.64-.05.96.93.05,1.8.03,2.23-.06,19.5-4.2,39.3-6.8,59.2-7.7,19.8-.9,39.6-.2,59.3,2.2,19.7,2.4,22.3,3.2,33.2,5.6.99.21,1.68-.48,1.84-1.25-.03-.25-.04-.51-.02-.76Z"/>
  <path d="M28.89,82.99c.02-1,.02-1.86.01-2.65-.58.22-1.18.4-1.8.49-.1.03-.21.04-.31.04-.05.02-.11.05-.16.07,0,0,0,.01-.01.02-.13.16-.31.27-.52.34-.13.78-.21,1.41-.21,1.69-.3,18.2-.2,36.3.5,54.5.7,18.2,3.1,1.9,3,0-.7-18.1-.8-36.3-.5-54.5Z"/>
  <path d="M26.69,149.39v6.5c0,.8.7,1.5,1.5,1.5s1.5-.7,1.5-1.5v-6.5c0-.8-.7-1.5-1.5-1.5s-1.5.7-1.5,1.5h0Z"/>
  <path d="M183.74,168.2c-1.35-.15-2.91-.14-3.55,0-19.1,4.5-38.7,7.1-58.3,7.8-19.6.7-39.1-.3-58.5-2.7-19.4-2.4-22-3.2-32.9-5.4-1.62-.33-2.79-.49-3.65-.55.01.23,0,.46-.06.68,0,.02.01.04.02.06.07.4.13.81.14,1.22,0,.09,0,.17,0,.26,1.03.6,2.18,1.12,2.76,1.24h-.1c19.5,4,39.2,6.7,59.1,7.9,19.7,1.1,39.4.7,59-1.7,19.6-2.4,22.3-3.3,33.3-5.9.45-.11.86-.21,1.24-.31.12-.06.24-.11.36-.18.26-.15.55-.23.85-.25.08-.25.21-.48.38-.68,0-.05,0-.11.02-.16,0-.05.02-.09.02-.14-.18-.36-.22-.78-.12-1.17Z"/>
  <path d="M180.59,169.39c-.02.77,0,1.38.06,1.86.07,0,.13-.02.2-.02.06-.02.11-.05.17-.06.33-.06.66-.15.98-.26.2-.09.4-.19.59-.3.26-.15.53-.22.82-.25.12-.35.18-.68.18-.96.4-22.7,0-45.4-1.1-68-.3-6.5-.7-12.9-1.2-19.3-.02-.26-.05-.5-.07-.73-.35-.18-.66-.41-.9-.7-.6-.05-1.14-.18-1.61-.4-.26.6-.42,1.26-.41,1.76,1.6,22.59,2.4,45.28,2.5,67.96.1,22.7,0,12.9-.2,19.4Z"/>
  <path d="M180.16,29.21s.08-.06.12-.08c-1.38-.69-4.09-1.34-4.99-1.34-21.6.1-43.3.2-64.9,0-21.6-.2-43.4-.4-65-1.1-17.1-.55-22.48-.73-30.03-1.08,0,0-.01,0-.02,0-.02,0-.03,0-.04,0-1.97-.09-4.09-.19-6.61-.32-12.2-.6-1.9,2.9,0,3,21.8,1.1,43.5,1.7,65.3,2.1,21.8.4,43.3.5,64.9.5s24.3,0,36.4-.1c.12,0,.23,0,.34,0,1.36-.51,2.74-.96,4.14-1.38.11-.08.24-.15.38-.2Z"/>
  <path d="M15.9.01c-.31.33-.56.64-.7.88C10.39,9.29,5.49,17.59.69,25.99c-.27.47-.5.89-.69,1.27.29.37.59.73.89,1.09h1.71c.3-.32.56-.63.7-.87C8.09,19.09,12.99,10.79,17.79,2.39c.55-.97.95-1.74,1.22-2.37-1.04.07-2.08.08-3.12-.01Z"/>
  <path d="M189.66,2.51c-.35-.04-.7-.09-1.05-.15-.66.57-1.25,1.19-1.51,1.62-4.7,8.1-9.4,16.3-14.1,24.4-1,1.7,1.6,3.2,2.6,1.5,4.7-8.1,9.4-16.3,14.1-24.4.3-.52.55-.97.76-1.38-.33-.5-.6-1.04-.8-1.6Z"/>
  <path d="M199.59,17.59c-3.1-4.5-6.2-9.1-9.3-13.6-.48-.69-.83-1.18-1.1-1.53-.2-.03-.41-.06-.61-.09-.06,0-.12,0-.18-.01.04.44.07.97-.21,1.14-.8.5-1,1.4-.5,2.1,3.1,4.5,6.2,9.1,9.3,13.6.57.83.98,1.39,1.26,1.74.19-.13.39-.24.62-.32-.02-.38,0-.77.22-.92.8-.5,1-1.4.5-2.1Z"/>
  <path d="M189.72,2.7c-.6-.13-1.12-.21-1.43-.21-21.4.2-42.9.3-64.3.2-21.4-.1-43.2-.4-64.7-1.1-12.1-.3-24.2-.8-36.3-1.5s-1.9,2.9,0,3c21.5,1.1,43,1.8,64.5,2.2,21.6.4,43.1.5,64.7.4,21.6-.1,24.1-.1,36.1-.2,1.3-.01,2.33-.06,3.15-.13-.75-.8-1.34-1.69-1.72-2.67Z"/>
  <path d="M79.44,132.16c-.06-.18-.1-.36-.1-.56,0-.29,0-.57-.03-.86,0-.05-.02-.09-.03-.14-.02-.07-.02-.15-.03-.22-.8-.37-1.76-.62-2.36-.59-7.2.4-14.4-.1-21.4-1.5-7-1.4-2.7,2.5-.8,2.9,7.3,1.5,14.8,2,22.2,1.6,1.12-.06,1.94-.18,2.52-.33,0-.1.01-.2.02-.3Z"/>
  <path d="M55.09,150.49c7.3,1.5,14.8,2,22.2,1.6s1.9-3.1,0-3c-7.2.4-14.4-.1-21.4-1.5s-2.7,2.5-.8,2.9h0Z"/>
  <path d="M79.39,132.02c-.03-.14-.05-.28-.04-.42,0-.08,0-.16,0-.24-.09-.77-.25-1.26-.46-1.57-.45-.02-.91-.02-1.36-.02-.03,0-.06,0-.09,0-.59.54-1.08,1.54-1.03,2.33.2,5.1.5,10.2.7,15.3.2,5.1,3.1,1.9,3,0-.2-5.1-.5-10.2-.7-15.3,0-.03,0-.04,0-.07Z"/>
  <path d="M103.86,151.51c-.07-.17-.13-.35-.16-.54-.79-.36-1.71-.61-2.3-.58-7.2.4-14.4-.1-21.4-1.5-7-1.4-2.7,2.5-.8,2.9,7.3,1.5,14.8,2,22.2,1.6,1.13-.06,1.96-.18,2.54-.33-.05-.17-.09-.34-.08-.53v-1.03Z"/>
  <path d="M104.28,172.17c.1-.48.19-.95.29-1.43-.02-.09-.03-.18-.03-.27-.85-.47-2.04-.82-2.75-.78-7.2.4-14.4-.1-21.4-1.5-7-1.4-2.7,2.5-.8,2.9,7.3,1.5,14.8,2,22.2,1.6.97-.05,1.7-.15,2.26-.27.07-.09.14-.18.23-.25Z"/>
  <path d="M103.86,152.54v-.33c-.08-.97-.28-1.56-.54-1.89-.12,0-.25-.01-.36-.04-.13.03-.27.05-.43.05-.19,0-.36-.03-.52-.07-.63.52-1.17,1.59-1.13,2.43.2,5.1.5,10.2.7,15.3.2,5.1,3.1,1.9,3,0-.2-5-.49-10.01-.69-15.01-.04-.14-.06-.29-.05-.44Z"/>
  <path d="M162.18,107.67s0-.03-.02-.05c-.15-.13-.27-.28-.37-.44-.42-.11-.76-.23-.8-.39-.2-.7-1-1.2-1.8-1-7.1,1-14.3,1.1-21.5.3-.39-.04-.72-.08-1.03-.1-.11.17-.24.32-.41.44-.06.23-.16.44-.29.63-.01.07-.03.14-.05.21.16.12.27.23.27.32,0,.41.24.82.6,1.1.36.05.66.17.9.36v-.06c7.4.8,14.9.6,22.3-.4.92-.12,1.62-.23,2.15-.33-.01-.2,0-.39.04-.59Z"/>
  <path d="M164.62,126.46c-.69-.16-1.46-.33-1.53-.57-.2-.7-1-1.2-1.8-1-7.1,1-14.3,1.1-21.5.3-.28-.03-.52-.06-.76-.08-.18.19-.4.34-.66.44-.05.21-.1.43-.16.64-.03.09-.05.18-.07.27.09.08.15.16.15.22,0,.7.7,1.4,1.5,1.5v-.1c7.4.8,14.9.6,22.3-.4.9-.12,1.59-.23,2.12-.33.06-.33.2-.64.4-.91Z"/>
  <path d="M162.2,108.61c-.03-.15-.06-.3-.06-.46-.01-.12-.03-.24-.05-.36-.01-.1-.02-.18-.03-.27-.2-.21-.35-.46-.45-.73-.34-.12-.63-.31-.83-.57-.06.04-.12.07-.19.07-.9,0-1.6.7-1.5,1.5.7,5.1,1.4,10.1,2,15.2.6,5.1.6,1.5,1.5,1.5s1.6-.7,1.5-1.5c-.66-4.83-1.32-9.57-1.9-14.38Z"/>
  <path d="M193.09,164.29c.06.82.12,1.53.2,2.15.01,0,.02,0,.04.01.06.03.12.06.18.09.26.1.53.17.8.22.18.01.36.02.54,0,.11-.02.22-.05.33-.09.05-.03.1-.05.15-.09.02-.02.04-.04.06-.06.07-.11.14-.21.19-.33-.03.07-.06.14-.09.22.11-.28.27-.5.48-.68.1-.6.15-1.12.13-1.44-1.5-20.3-2.2-40.7-2.8-61-.6-20.3-1-41-1.8-61.5-.5-11.5-1.1-23-1.9-34.5-.18-2.6-.44-4.11-.73-4.88-.09-.02-.19-.03-.28-.04-.13-.01-.26-.03-.39-.03-.15,0-.3-.03-.45-.05-.64,1.18-1.18,3.93-1.15,4.93,1.4,20.49,2.2,40.98,2.8,61.48.6,20.5,1,40.9,1.8,61.4.5,11.4,1.1,22.8,1.9,34.2Z"/>
  <path d="M17.79,111.79c.1-17.4.2-35.2,0-52.8-.1-9.9-.3-19.7-.7-29.6-.07-1.81-.22-3.02-.42-3.78h-.82c-.08,0-.15-.02-.22-.03-.09.02-.19.03-.29.03s-.19-.01-.28-.03c-.55,1.15-.99,2.93-.97,3.75.7,17.49.8,34.97.8,52.46s-.2,35.2-.2,52.8,0,19.6.2,29.4c.2,9.8,3,1.9,3,0-.3-17.4-.2-34.8-.1-52.2Z"/>
  <path d="M16.09,154.19c-.6-.09-1.35.2-1.68.73.03.19.02.39-.02.59-.61,2.91-1.54,5.74-2.4,8.59.64.2,1.36,0,1.79-.61,1.3-2.4,2.4-4.9,3.3-7.5.9-2.6-.3-1.7-1-1.8Z"/>
  <path d="M18.65,158.82c-.06-.17-.07-.35-.05-.52-.36-.95-.7-1.92-1.01-2.91-1.2-3.9-1-1.3-1.8-1-.8.3-1.3,1.1-1,1.8h-.1c1.3,4.1,3.1,8,5.2,11.7,1.19,2.1,2.18,1.88,2.64.99-1.39-3.31-2.71-6.66-3.88-10.05Z"/>
  <path d="M195.6,153.84c-.33-.03-1.02.56-1.4.45-.7-.2-1.6.3-1.8,1l-.1-.1c-.57,1.46-1.22,2.89-1.93,4.28-1.11,2.5-2.38,4.94-3.15,7.55.06.13.11.26.13.4.6.35,1.56.06,2.05-.52,2.4-3.3,4.3-7,5.8-10.8.27-.69.43-1.17.51-1.52-.09-.23-.13-.48-.11-.73Z"/>
  <path d="M193.39,157.19l6.7,5.2c.3.3.6.4,1.1.4s.8-.2,1.1-.4c.5-.5.7-1.6,0-2.1l-6.7-5.2c-.3-.3-.6-.4-1.1-.4s-.8.2-1.1.4c-.5.5-.7,1.6,0,2.1h0Z"/>
  <path d="M105.09,90.89c-1.6-20.1-1.9-40.4-1-60.6.05-1.02.08-1.91.1-2.74-.08,0-.17.03-.25.03h-2.4c-.25,1.27-.43,2.33-.45,2.71-.9,20.2-.6,40.4,1,60.6.01.18.03.34.04.52.12-.04.25-.06.39-.06.21,0,.4.04.58.13.19.06.35.16.48.31.12.15.25.3.34.47.02.04.04.09.06.13.13.01.26.02.39.04.08,0,.16,0,.24.02.15,0,.31.01.46.01.04-.73.04-1.3.02-1.56Z"/>
  <path d="M175.99,30.49c5-1.6,9.8-3.8,14.3-6.4s.2-3.6-1.5-2.6c-4.3,2.5-8.8,4.6-13.5,6.1s-1,3.5.8,2.9h-.1Z"/>
  <path d="M197.75,21.36c.17-.18.36-.34.57-.47.02-.03.05-.06.07-.1.2-.4.3-.8.2-1.2-.1-.4-.3-.7-.7-.9-.4-.2-.8-.3-1.2-.2l-5.8,2.4c-.4.2-.7.3-.9.7-.2.4-.3.8-.2,1.2.1.4.3.7.7.9.4.2.8.3,1.2.2l5.8-2.4c.09-.05.18-.09.26-.13Z"/>
  <path d="M40.27,16.26c.04-.05.09-.11.12-.17,1.9-3.6,3.9-7.3,5.8-10.9,1.9-3.6.2-1.6-.5-2.1s-1.7-.2-2.1.5c-1.9,3.6-3.9,7.3-5.8,10.9-.51.97-.75,1.52-.84,1.84,1.1-.02,2.21-.05,3.31-.07Z"/>
  <path d="M75.55,16.68c-.06.06-.11.13-.15.21-1.9,3.6-3.9,7.3-5.8,10.9-1.9,3.6-.2,1.6.5,2.1.7.5,1.7.2,2.1-.5,1.9-3.6,3.9-7.3,5.8-10.9.48-.91.73-1.46.82-1.78-1.09,0-2.18-.01-3.27-.02Z"/>
  <path d="M110.35,16.1c1.85-3.51,3.8-7.11,5.65-10.61,1.9-3.6.2-1.6-.5-2.1s-1.7-.2-2.1.5c-1.9,3.6-3.9,7.3-5.8,10.9-.3.57-.5.99-.64,1.31h3.4Z"/>
  <path d="M147.53,16.59c-.95-.03-1.9-.04-2.85-.04-.11.1-.21.21-.28.34-1.9,3.6-3.9,7.3-5.8,10.9-1.9,3.6-.2,1.6.5,2.1.7.5,1.7.2,2.1-.5,1.9-3.6,3.9-7.3,5.8-10.9.53-1.01.78-1.57.84-1.88-.1,0-.21-.01-.31-.02Z"/>
  <path d="M18.39,3.09l9.4.3c.8,0,1.5-.7,1.5-1.5s-.7-1.5-1.5-1.5L18.39.09c-.8,0-1.5.7-1.5,1.5s.7,1.5,1.5,1.5h0Z"/>
  <path d="M16.49,3.09l6.7.2c.8,0,1.5-.7,1.5-1.5s-.7-1.5-1.5-1.5l-6.7-.2c-.8,0-1.5.7-1.5,1.5s.7,1.5,1.5,1.5h0Z"/>
  <path d="M10.19,25.39H2.29c-.8,0-1.5.7-1.5,1.5,0,.7.53,1.32,1.2,1.47h2.25c.11,0,.21.01.31.03h5.64c.8,0,1.5-.7,1.5-1.5s-.7-1.5-1.5-1.5Z"/>
  <path d="M76.99,152.09h3.4c.4,0,.8-.2,1.1-.4s.5-.7.4-1.1c0-.8-.7-1.5-1.5-1.5h-3.4c-.4,0-.8.2-1.1.4s-.5.7-.4,1.1c0,.8.7,1.5,1.5,1.5h0Z"/>
  <path d="M77.09,148.39v1.2c0,.2,0,.4.1.6,0,.2.2.3.3.5.1.1.3.2.5.3.2,0,.4.1.6.1h.4c.3-.1.5-.3.7-.4l.2-.3c.1-.2.2-.5.2-.8v-1.2c0-.2,0-.4-.1-.6,0-.2-.2-.3-.3-.5-.1-.1-.3-.2-.5-.3-.2,0-.4-.1-.6-.1h-.4c-.3.1-.5.3-.7.4l-.2.3c-.1.2-.2.5-.2.8h0Z"/>
  <path d="M101.59,167.79l-.2,3.4c0,.4.2.8.4,1.1s.7.5,1.1.4c.8,0,1.5-.7,1.5-1.5l.2-3.4c0-.4-.2-.8-.4-1.1s-.7-.5-1.1-.4c-.8,0-1.5.7-1.5,1.5h0Z"/>
  <path d="M161.19,122.19l.3,3.6c0,.4.1.8.4,1.1s.7.5,1.1.4.8-.1,1.1-.4.5-.7.4-1.1l-.3-3.6c0-.4-.1-.8-.4-1.1s-.7-.5-1.1-.4-.8.1-1.1.4-.5.7-.4,1.1h0Z"/>
  <path d="M29.39,138.49c-.2-10-3-1.9-3,0,.2,10,.3,20,.5,30,0,.22.01.43.02.63,0,.06.02.12.02.18,0,.1,0,.19,0,.29,0,.11.01.23.02.34.13.05.27.12.34.14.14.06.31.11.45.2,0,0,.01,0,.02.01l.22.17c.12.04.24.08.35.14.32.11.64.21.97.29.03,0,.06.02.09.03.3-.94.51-1.9.51-2.41-.2-10-.3-20-.5-30Z"/>
  <path d="M30.99,168.39l-.2-.3c-.2-.2-.4-.3-.7-.4l-1.3-.3h-.6c-.2,0-.4,0-.6.2-.2,0-.3.2-.4.4-.1.1-.2.3-.3.5v.4s0,.05,0,.07c0,.11.03.22.04.33,0,.01,0,.03,0,.04.03.11.07.22.16.35l.2.3c.07.07.14.11.21.16.08.03.17.07.24.11,0,0,.01,0,.02.01l.06.04c.06.02.11.05.18.07l1.3.3h.6c.2,0,.4,0,.6-.2.2,0,.3-.2.4-.4.1-.1.2-.3.3-.5v-.4c0-.3,0-.5-.2-.8Z"/>
  <path d="M36.33,82.91c23.16-4.39,46.86-3.59,70.31-3.06,6.76.15,13.52.3,20.28.46,1.67.04,2.07-2.58.4-2.95-11.16-2.48-22.58-1.82-33.8-.18-5.72.83-11.4,1.91-17.08,2.96s-10.83,2.06-16.31,2.5c-5.82.47-11.84.18-17.18-2.39l-.76,2.8c12.83-1.03,25.72-1.26,38.58-.67,1.95.09,1.9-2.83,0-3-9.78-.88-19.55.28-29.25,1.47-.75.09-1.37.5-1.47,1.3-.09.67.34,1.53,1.07,1.65,9.8,1.49,19.59,2.97,29.45,4.05s19.78,1.63,29.71,1.92c5.58.16,11.15.25,16.73.34,1.01.02,1.66-.97,1.45-1.9-.71-3.11-3.19-5.31-6.08-6.43-3.64-1.41-7.68-.72-11.39,0-7.22,1.38-14.58,2.45-21.94,1.67-4.07-.43-8.07-1.54-11.71-3.43l-.76,2.8c8.45,0,16.9,0,25.35-.05,7.71-.05,16.09.57,23.37-2.44,1.51-.62,1.4-2.86-.4-2.95-18.55-.86-37.27-.35-55.71,1.89-3.31.4-7.23,1.37-8.27,5.01-.18.61.11,1.39.69,1.69,4.8,2.54,10.2,1.97,15.34.97,5.87-1.14,11.7-2.28,17.66-2.95,12.16-1.38,24.42-1.61,36.65-1.88,7.07-.16,14.13-.31,21.2-.47,1.93-.04,1.93-2.94,0-3-6.52-.2-13.04-.39-19.55-.59-2.94-.09-6.2-.53-9.03.5-2.41.88-4.16,2.83-4.41,5.41-.06.65.51,1.28,1.1,1.45,4.28,1.22,8.65.61,12.91-.36,4.55-1.03,8.92-2.13,13.62-2.22s9.1-.11,13.67-.79c3.81-.57,8.02-1.25,11.38,1.08l.76-2.8c-18.73-.12-37.45,1.79-55.79,5.64-1.93.4-1.06,3.16.8,2.89,14.43-2.11,28.9-4.19,43.51-4.55l-.4-2.95c-9.97,2.37-20.14,3.71-30.39,4.01-1.92.06-1.94,3.01,0,3,10.97-.06,21.91-1.56,32.48-4.47,1.92-.53,1.06-3.15-.8-2.89-2.88.4-5.86.39-8.72-.07s-5.58-1.47-8.33-2.41c-5.6-1.92-11.58-2.02-17.43-2.36s-12.09-.63-18.14-.81-11.59-.05-17.27-1.48c-1.51-.38-3.01-.65-4.57-.44-1.44.19-2.77.72-4.12,1.24-3.14,1.22-6.29,2.44-9.43,3.66-1.78.69-1.01,3.59.8,2.89,2.77-1.07,5.54-2.15,8.31-3.22,1.19-.46,2.37-.97,3.59-1.33,1.52-.44,2.88-.33,4.4.04,2.71.66,5.37,1.16,8.16,1.34,2.96.19,5.92.19,8.89.27,6.05.17,12.1.43,18.15.77s12.01.33,17.65,2.25c3.06,1.04,6.03,2.14,9.24,2.6s6.41.42,9.63-.03l-.8-2.89c-10.33,2.84-20.97,4.31-31.69,4.37v3c10.5-.31,20.96-1.69,31.19-4.11,1.64-.39,1.29-2.99-.4-2.95-14.87.36-29.61,2.51-44.31,4.66l.8,2.89c18.08-3.8,36.52-5.65,54.99-5.53,1.57,0,1.93-1.98.76-2.8-3.46-2.39-7.69-2.21-11.67-1.67-2.08.28-4.16.66-6.26.81-2.4.17-4.8.13-7.2.15-4.69.03-9.11.74-13.66,1.83s-9.01,2.16-13.51.88l1.1,1.45c.24-2.38,3.25-2.97,5.16-3.03,2.74-.08,5.51.12,8.25.21,5.53.17,11.06.33,16.58.5v-3c-12.14.27-24.29.44-36.43.87-11.93.43-23.89,1.3-35.61,3.66-5.55,1.12-11.94,3.04-17.29.21l.69,1.69c.8-2.79,5.31-2.8,7.59-3.05,4.25-.46,8.52-.85,12.79-1.15,8.62-.61,17.26-.9,25.91-.87,4.94.02,9.88.15,14.81.38l-.4-2.95c-7.18,2.97-15.46,2.29-23.07,2.34-8.29.06-16.57.05-24.86.05-1.44,0-2.11,2.1-.76,2.8,7.98,4.14,17.08,4.63,25.87,3.66,2.21-.25,4.42-.57,6.61-.95,2.39-.42,4.77-1,7.19-1.24,3.86-.38,9.05.46,10.08,4.94l1.45-1.9c-9.76-.15-19.52-.31-29.27-.85s-19.53-1.57-29.24-2.91c-5.53-.76-11.06-1.6-16.58-2.44l-.4,2.95c9.7-1.19,19.47-2.35,29.25-1.47v-3c-12.86-.59-25.75-.36-38.58.67-1.34.11-2.22,2.09-.76,2.8,9.77,4.69,20.83,2.84,31.07,1.04,11.51-2.02,22.99-4.56,34.69-5.09,6.48-.3,12.98.06,19.33,1.47l.4-2.95c-12.04-.27-24.09-.6-36.14-.79s-23.64-.14-35.42.84c-6.65.55-13.28,1.41-19.83,2.65-1.89.36-1.09,3.25.8,2.89h0Z"/>
  <path d="M106.1,88.56c4.29.27,8.56-.06,12.77-.92,1.7-.35,1.25-2.91-.4-2.95l-8.86-.2.4,2.95c8.77-1.32,17.44-3.2,25.97-5.63,1.88-.53,1.08-3.25-.8-2.89-5.9,1.13-11.79,2.26-17.69,3.39-1.77.34-1.18,2.81.4,2.95l6.26.54v-3c-19.21.73-38.45.65-57.65-.24l.4,2.95c4.39-.64,9.32-1.23,13.17,1.45l.36-2.74c-2.72.65-5.46.81-8.25.54-1.82-.18-1.83,2.37-.4,2.95,3.56,1.43,7.43,1.39,11.2,1.28s7.69-.35,11.16,1.26l1.16-2.74c-4.55-.93-9.18-.99-13.81-.96s-9.29-.04-13.92-.64c-9.26-1.22-18.4-3.67-27.44-5.97-1.39-.35-2.61,1.47-1.46,2.51,3.84,3.47,9.11,3.57,14.01,3.49,6.52-.11,13.04-.14,19.56-.1,12.96.08,25.92.46,38.86,1.15,7.34.39,14.67.87,21.99,1.45l-.4-2.95c-1.36.19-2.72.39-4.08.58l.8,2.89c12.06-4.94,25.08-7.07,38.08-6.21l-.76-2.8c-4.5,2.57-9.28,4.52-14.29,5.85-1.87.49-1.08,3.35.8,2.89,6.87-1.65,13.74-3.31,20.6-4.96,1.76-.42,1.19-2.78-.4-2.95-5.54-.58-11.11-1.17-16.47-2.77-4.85-1.45-9.93-4.34-15.08-2.48-1.15.41-1.57,2.08-.36,2.74,2.16,1.18,4.49,1.51,6.9,1.03l-.8-2.89c-29.39,5.98-59.31,10.45-89.39,9.48-3.97-.13-7.87-.29-11.52-2.02-3.17-1.5-6.16-3.2-9.78-2.6-1.9.31-1.09,3.2.8,2.89,3.03-.5,5.94,1.66,8.58,2.8,3.18,1.38,6.57,1.71,10,1.85,7.47.31,14.96.26,22.44-.07,14.96-.65,29.86-2.42,44.63-4.83,8.38-1.36,16.72-2.93,25.04-4.62,1.89-.38,1.09-3.27-.8-2.89-1.6.32-3.16.05-4.58-.73l-.36,2.74c4.87-1.76,10.18,1.61,14.82,2.86,5.2,1.39,10.59,1.94,15.93,2.5l-.4-2.95c-6.87,1.65-13.74,3.31-20.6,4.96l.8,2.89c5.25-1.39,10.29-3.46,15-6.15,1.36-.78.67-2.7-.76-2.8-13.23-.88-26.61,1.29-38.88,6.32-1.8.74-1.12,3.17.8,2.89,1.36-.19,2.72-.39,4.08-.58,1.77-.25,1.17-2.82-.4-2.95-25.18-1.98-50.45-2.84-75.71-2.56-3.03.03-6.09.21-9.13.02-2.67-.16-5.42-.73-7.46-2.57l-1.46,2.51c9.02,2.3,18.12,4.7,27.36,5.96,4.6.63,9.19.8,13.83.77s9.38-.1,13.98.85c1.56.32,2.79-1.98,1.16-2.74-3.62-1.68-7.51-1.81-11.44-1.71s-7.92.36-11.65-1.14l-.4,2.95c3.04.3,6.07.06,9.04-.65,1.35-.32,1.36-2.05.36-2.74-4.54-3.17-10.32-2.5-15.49-1.75-1.74.25-1.21,2.87.4,2.95,19.2.9,38.44.98,57.65.24,1.95-.07,1.91-2.84,0-3l-6.26-.54.4,2.95,17.69-3.39-.8-2.89c-8.53,2.42-17.2,4.3-25.97,5.63-1.72.26-1.23,2.91.4,2.95l8.86.2-.4-2.95c-3.95.81-7.95,1.07-11.97.81-1.93-.12-1.92,2.88,0,3h0Z"/>
  <g>
    <path d="M102.53,91.35c.08,0,.16,0,.23.02.07-6.08.08-12.16-.03-18.24l-.31,18.23s.07-.01.11,0Z"/>
    <path class="st0" d="M102.53,92.85l.23.02c.82.07,1.49-.75,1.5-1.5.07-6.08.08-12.16-.03-18.24-.03-1.93-2.97-1.93-3,0-.09,5.32-.18,10.65-.27,15.97l-.04,2.26c-.01.76.7,1.57,1.5,1.5h.11c1.91-.18,1.93-3.18,0-3.01h-.11c.5.51,1,1.01,1.5,1.51.09-5.32.18-10.65.27-15.97l.04-2.26h-3c.1,6.08.1,12.16.03,18.24l1.5-1.5-.23-.02c-1.92-.17-1.91,2.83,0,3Z"/>
  </g>
  <path d="M88.93,86.61c.22-.01.43,0,.65.02l-1.6-.21c.22.04.42.1.63.18l-1.43-.6c.2.09.39.19.57.32l-1.21-.94c.07.05.14.11.2.16.54.59,1.19,1,1.93,1.24.72.38,1.49.55,2.31.52.83.03,1.6-.14,2.31-.52.74-.24,1.39-.66,1.93-1.24,1.05-1.14,1.83-2.64,1.76-4.24s-.56-3.21-1.76-4.24-2.11-1.59-3.54-2.07c-.43-.15-.85-.18-1.3-.24-.49-.07-.96-.16-1.45-.13-.83-.03-1.6.14-2.31.52-.74.24-1.39.66-1.93,1.24-.59.54-1,1.19-1.24,1.93-.38.72-.55,1.49-.52,2.31.07,1.55.58,3.16,1.76,4.24s2.66,1.86,4.24,1.76h0Z"/>
  <path d="M81.1,87.3c7.72,0,7.73-12,0-12s-7.73,12,0,12h0Z"/>
  <path d="M73.11,87.92l.34.34c.54.59,1.19,1,1.93,1.24.72.38,1.49.55,2.31.52.83.03,1.6-.14,2.31-.52.74-.24,1.39-.66,1.93-1.24l.94-1.21c.54-.94.82-1.95.82-3.03l-.21-1.6c-.29-1.02-.8-1.9-1.54-2.65l-.34-.34c-.54-.59-1.19-1-1.93-1.24-.72-.38-1.49-.55-2.31-.52-.83-.03-1.6.14-2.31.52-.74.24-1.39.66-1.93,1.24l-.94,1.21c-.54.94-.82,1.95-.82,3.03l.21,1.6c.29,1.02.8,1.9,1.54,2.65h0Z"/>
  <path d="M93.02,91.38c7.72,0,7.73-12,0-12s-7.73,12,0,12h0Z"/>
  <path d="M132.27,89.85c14.73,1.3,28.73-5.28,43.42-4.79,1.93.06,1.93-2.94,0-3-14.69-.49-28.7,6.09-43.42,4.79-1.92-.17-1.91,2.83,0,3h0Z"/>
  <path d="M97.34,90.36l1.92-.11c.21,0,.4-.04.58-.13.19-.06.35-.16.48-.31.15-.14.25-.3.31-.48.09-.18.14-.37.13-.58-.02-.39-.14-.79-.44-1.06s-.66-.46-1.06-.44l-1.92.11c-.21,0-.4.04-.58.13-.19.06-.35.16-.48.31-.15.14-.25.3-.31.48-.09.18-.14.37-.13.58.02.39.14.79.44,1.06s.66.46,1.06.44h0Z"/>
  <path d="M77.04,78.86h1.91c.38,0,.79-.17,1.06-.44.15-.14.25-.3.31-.48.09-.18.14-.37.13-.58-.02-.39-.14-.79-.44-1.06s-.65-.44-1.06-.44h-1.91c-.38,0-.79.17-1.06.44-.15.14-.25.3-.31.48-.09.18-.14.37-.13.58.02.39.14.79.44,1.06s.65.44,1.06.44h0Z"/>
  <path d="M33.87,84.04l1.91.38c.2.06.4.07.6.03.2,0,.39-.07.56-.18.17-.09.32-.22.42-.39.13-.14.22-.31.27-.51.09-.38.07-.81-.15-1.16-.2-.32-.52-.61-.9-.69l-1.91-.38c-.2-.06-.4-.07-.6-.03-.2,0-.39.07-.56.18-.17.09-.32.22-.42.39-.13.14-.22.31-.27.51-.09.38-.07.81.15,1.16.2.32.52.61.9.69h0Z"/>
</svg>