<?xml version="1.0" encoding="UTF-8"?>
<svg id="_Слой_1" data-name="Слой_1" xmlns="http://www.w3.org/2000/svg" version="1.1" viewBox="0 0 49.49 53.28">
  <!-- Generator: Adobe Illustrator 29.0.0, SVG Export Plug-In . SVG Version: 2.1.0 Build 186)  -->
  <path d="M29.85,8.73c5.79,1.95,11.61,5.55,14.74,10.94,2.53,4.35,2.71,10.13-.46,14.26-1.68,2.18-4.01,2.82-6.57,1.89-1.82-.66-2.6,2.24-.8,2.89,6.42,2.33,11.22-3.18,12.41-9.02,1.43-7.05-2.18-13.57-7.58-17.93-3.26-2.63-6.98-4.59-10.94-5.93-1.83-.62-2.62,2.28-.8,2.89h0Z"/>
  <path d="M11.15,10.86c3.42-2.18,7.36-3.35,11.42-3.37,1.93,0,1.93-3.01,0-3-4.57.01-9.08,1.33-12.94,3.77-.68.43-.96,1.33-.54,2.05.4.68,1.37.97,2.05.54h0Z"/>
  <path d="M9.68,40.12C2.56,34.65.98,23.71,5.68,16.22c1.03-1.64-1.57-3.15-2.59-1.51C-2.56,23.71-.23,36.26,8.16,42.71c.65.5,1.67.09,2.05-.54.46-.77.1-1.56-.54-2.05h0Z"/>
  <path d="M5.03,38.77c-1.69,4.7-.58,10.13,2.66,13.89.53.61,1.58.54,2.12,0,.61-.61.53-1.51,0-2.12-2.58-2.99-3.2-7.31-1.89-10.97.27-.76-.31-1.64-1.05-1.85-.83-.23-1.57.28-1.85,1.05h0Z"/>
  <path d="M10.64,53.26c10.18-1.5,20.35-3,30.53-4.5,1.9-.28,1.09-3.17-.8-2.89-10.18,1.5-20.35,3-30.53,4.5-1.9.28-1.09,3.17.8,2.89h0Z"/>
  <path d="M39.58,39.48l-.34,7.67c-.03.78.71,1.54,1.5,1.5.84-.04,1.46-.66,1.5-1.5l.34-7.67c.03-.78-.71-1.54-1.5-1.5-.84.04-1.46.66-1.5,1.5h0Z"/>
  <path d="M17.9,49.36c-.33-1.69-.65-3.39-.98-5.08-.15-.77-1.12-1.28-1.85-1.05-.82.27-1.21,1.02-1.05,1.85.33,1.69.65,3.39.98,5.08.15.77,1.12,1.28,1.85,1.05.82-.27,1.21-1.02,1.05-1.85h0Z"/>
  <path d="M29.37,47.8c-.58-1.64-1.15-3.28-1.73-4.93-.13-.37-.34-.69-.69-.9-.32-.19-.8-.27-1.16-.15-.73.24-1.33,1.05-1.05,1.85.58,1.64,1.15,3.28,1.73,4.93.13.37.34.69.69.9.32.19.8.27,1.16.15.73-.24,1.33-1.05,1.05-1.85h0Z"/>
  <path d="M29.22,30.9c-.17-.15-.33-.31-.47-.48l.23.3c-.18-.24-.33-.49-.45-.76l.15.36c-.12-.3-.2-.61-.25-.92l.05.4c-.04-.3-.04-.59,0-.89l-.05.4c.04-.27.11-.54.21-.79l-.39.66s.06-.05.09-.08l-.3.23c.21-.16.43-.29.67-.39l-.36.15c.24-.1.49-.16.75-.2l-.4.05c.32-.04.64-.04.96,0l-.4-.05c.3.04.59.12.87.24l-.36-.15c.26.11.5.25.73.42l-.3-.23c.21.16.39.34.56.55l-.23-.3c.09.11.16.23.24.36l-.15-1.16c-.06.23-.14.46-.23.68l.15-.36c-.18.42-.41.8-.68,1.16l.23-.3c-.28.35-.59.67-.95.95l.3-.23c-.34.26-.7.47-1.09.64l.36-.15c-.19.08-.39.15-.59.21l1.69.69c-.04-.08-.08-.16-.12-.24l.15.36c-.08-.21-.14-.42-.17-.64l.05.4c-.03-.24-.03-.48,0-.73l-.05.4c.04-.24.1-.48.19-.7l-.15.36c.09-.2.19-.39.32-.57l-.23.3c.12-.16.26-.3.41-.42.28-.23.44-.72.44-1.06,0-.37-.16-.81-.44-1.06s-.66-.46-1.06-.44c-.42.02-.74.18-1.06.44-1.48,1.2-1.75,3.49-.87,5.11.31.58,1.07.86,1.69.69,1.44-.4,2.63-1.3,3.52-2.48.41-.54.71-1.15.93-1.79.05-.13.09-.27.13-.41.11-.47.01-.91-.25-1.31-.2-.31-.43-.61-.7-.86-.94-.87-2.25-1.38-3.55-1.31-.73.04-1.42.21-2.07.56-.28.15-.57.36-.8.58-.35.32-.51.92-.58,1.39-.27,1.65.22,3.48,1.55,4.59.31.26.64.44,1.06.44.37,0,.81-.16,1.06-.44.51-.55.64-1.59,0-2.12h0Z"/>
  <path d="M11.45,32.99c-.23-.14-.46-.29-.67-.45l.3.23c-.46-.36-.88-.78-1.24-1.24l.23.3c-.36-.47-.66-.98-.89-1.52l.15.36c-.12-.29-.22-.59-.31-.9l-1.05,1.85h.05c-.13,0-.27.03-.4.05.2-.02.39-.02.59,0l-.4-.05c.21.03.41.09.61.17l-.36-.15c.22.1.41.21.6.36l-.3-.23c.2.16.38.34.54.54l-.23-.3c.17.22.31.46.41.71l-.15-.36c.09.22.15.45.19.68l-.05-.4c.03.22.03.43,0,.65l.05-.4c-.02.11-.04.22-.07.32-.21.75.26,1.67,1.05,1.85s1.62-.24,1.85-1.05c.4-1.41-.07-2.85-1-3.94-.41-.49-.95-.86-1.54-1.1-.33-.14-.63-.23-.99-.27-.44-.06-.79-.03-1.24.03-.33.05-.74.4-.9.69-.19.36-.26.76-.15,1.16.56,2.08,1.94,3.92,3.79,5.02.68.4,1.68.18,2.05-.54s.18-1.63-.54-2.05h0Z"/>
  <path d="M26.27,23.72c-1.38,1.86-2.76,3.71-4.14,5.57-.22.29-.24.82-.15,1.16s.36.73.69.9c.35.18.77.28,1.16.15s.65-.36.9-.69c1.38-1.86,2.76-3.71,4.14-5.57.22-.29.24-.82.15-1.16s-.36-.73-.69-.9c-.35-.18-.77-.28-1.16-.15s-.65.36-.9.69h0Z"/>
  <path d="M9.08,27.86l4.4,5.2c.51.6,1.6.56,2.12,0,.59-.64.54-1.48,0-2.12l-4.4-5.2c-.51-.6-1.6-.56-2.12,0-.59.64-.54,1.48,0,2.12h0Z"/>
  <path d="M30.52,10.07c.64.99,1.19,2.04,1.65,3.12l-.15-.36c.18.42.34.85.49,1.28.13.37.34.69.69.9.32.19.8.27,1.16.15.73-.24,1.32-1.05,1.05-1.85-.58-1.67-1.33-3.27-2.29-4.76-.42-.66-1.35-.99-2.05-.54-.66.43-.99,1.35-.54,2.05h0Z"/>
  <path d="M24.24,14.07c-.11-4.18-.22-8.36-.33-12.54l-1.9,1.45c2.94,1.18,5.47,3.2,7.47,5.64.51.63,1.59.53,2.12,0,.62-.62.51-1.49,0-2.12C29.26,3.63,26.24,1.45,22.81.08c-.91-.36-1.92.55-1.9,1.45.11,4.18.22,8.36.33,12.54.05,1.93,3.05,1.93,3,0h0Z"/>
  <path d="M9.48,12.38c.53.98,1.02,1.98,1.45,3l-.15-.36c.04.1.08.19.12.29.05.2.14.37.27.51.11.16.25.29.42.39.32.19.8.27,1.16.15s.71-.34.9-.69.3-.79.15-1.16c-.51-1.25-1.08-2.47-1.72-3.65-.18-.32-.54-.59-.9-.69s-.84-.05-1.16.15c-.7.45-.94,1.31-.54,2.05h0Z"/>
  <path d="M5.87,13.08c-.45-2.95-.42-6.21.08-9.15l-2.51.66c1.53,1.45,2.93,3.03,4.11,4.71.47.66,1.31.97,2.05.54.65-.38,1.01-1.39.54-2.05-1.35-1.92-2.87-3.7-4.58-5.31-.75-.71-2.31-.51-2.51.66-.6,3.58-.62,7.16-.08,10.75.12.8,1.13,1.24,1.85,1.05.86-.24,1.17-1.04,1.05-1.85h0Z"/>
  <path d="M2.97,14.33l.93,3.97c.18.76,1.09,1.29,1.85,1.05.8-.26,1.24-1.03,1.05-1.85l-.93-3.97c-.18-.76-1.09-1.29-1.85-1.05-.8.26-1.24,1.03-1.05,1.85h0Z"/>
  <path d="M7.6,9.38c.71,1.14,1.42,2.28,2.13,3.42.2.33.52.59.9.69s.84.05,1.16-.15.6-.51.69-.9.06-.81-.15-1.16c-.71-1.14-1.42-2.28-2.13-3.42-.2-.33-.52-.59-.9-.69s-.84-.05-1.16.15-.6.51-.69.9-.06.81.15,1.16h0Z"/>
  <path d="M29.34,8.32c.46.64.91,1.28,1.37,1.92.09.17.22.32.39.42.14.13.31.22.51.27.2.06.4.07.6.03.2,0,.39-.07.56-.18.32-.21.6-.51.69-.9s.08-.83-.15-1.16c-.46-.64-.91-1.28-1.37-1.92-.09-.17-.22-.32-.39-.42-.14-.13-.31-.22-.51-.27-.2-.06-.4-.07-.6-.03-.2,0-.39.07-.56.18-.32.21-.6.51-.69.9s-.08.83.15,1.16h0Z"/>
</svg>