<?xml version="1.0" encoding="UTF-8"?>
<svg id="_Слой_1" data-name="Слой_1" xmlns="http://www.w3.org/2000/svg" version="1.1" viewBox="0 0 49.93 48.76">
  <!-- Generator: Adobe Illustrator 29.0.0, SVG Export Plug-In . SVG Version: 2.1.0 Build 186)  -->
  <path d="M9.76,35.6c-4.63-3.53-7-9.56-6.76-15.29.26-6.13,3.87-11.47,9.12-14.52,5.72-3.34,12.5-3.53,18.65-1.29s12.21,7.02,14.96,13.1c1.48,3.28,1.79,7.12-.2,10.24-1.67,2.63-4.75,4.52-7.88,3.46-1.83-.62-2.62,2.27-.8,2.89,7.34,2.5,13.58-5.47,13.05-12.22-.62-7.96-7.09-14.54-13.74-18.26S21.1-1.31,13.76,1.66C7.1,4.37,1.62,10.09.34,17.32c-1.39,7.8,1.58,16.05,7.91,20.88,1.53,1.17,3.03-1.43,1.51-2.59h0Z"/>
  <path d="M5.12,34.25c-1.69,4.7-.58,10.13,2.66,13.89.53.61,1.58.54,2.12,0,.61-.61.53-1.51,0-2.12-2.58-2.99-3.2-7.31-1.89-10.97.27-.76-.31-1.64-1.05-1.85-.83-.23-1.57.28-1.85,1.05h0Z"/>
  <path d="M10.72,48.74c10.18-1.5,20.35-3,30.53-4.5,1.9-.28,1.09-3.17-.8-2.89-10.18,1.5-20.35,3-30.53,4.5-1.9.28-1.09,3.17.8,2.89h0Z"/>
  <path d="M39.67,34.96l-.34,7.67c-.03.78.71,1.54,1.5,1.5.84-.04,1.46-.66,1.5-1.5l.34-7.67c.03-.78-.71-1.54-1.5-1.5-.84.04-1.46.66-1.5,1.5h0Z"/>
  <path d="M17.98,44.84c-.33-1.69-.65-3.39-.98-5.08-.15-.77-1.12-1.28-1.85-1.05-.82.27-1.21,1.02-1.05,1.85.33,1.69.65,3.39.98,5.08.15.77,1.12,1.28,1.85,1.05.82-.27,1.21-1.02,1.05-1.85h0Z"/>
  <path d="M29.46,43.28c-.58-1.64-1.15-3.28-1.73-4.93-.13-.37-.34-.69-.69-.9-.32-.19-.8-.27-1.16-.15-.73.24-1.33,1.05-1.05,1.85.58,1.64,1.15,3.28,1.73,4.93.13.37.34.69.69.9.32.19.8.27,1.16.15.73-.24,1.33-1.05,1.05-1.85h0Z"/>
  <path d="M29.3,26.38c-.17-.15-.33-.31-.47-.48l.23.3c-.18-.24-.33-.49-.45-.76l.15.36c-.12-.3-.2-.61-.25-.92l.05.4c-.04-.3-.04-.59,0-.89l-.05.4c.04-.27.11-.54.21-.79l-.39.66s.06-.05.09-.08l-.3.23c.21-.16.43-.29.67-.39l-.36.15c.24-.1.49-.16.75-.2l-.4.05c.32-.04.64-.04.96,0l-.4-.05c.3.04.59.12.87.24l-.36-.15c.26.11.5.25.73.42l-.3-.23c.21.16.39.34.56.55l-.23-.3c.09.11.16.23.24.36l-.15-1.16c-.06.23-.14.46-.23.68l.15-.36c-.18.42-.41.8-.68,1.16l.23-.3c-.28.35-.59.67-.95.95l.3-.23c-.34.26-.7.47-1.09.64l.36-.15c-.19.08-.39.15-.59.21l1.69.69c-.04-.08-.08-.16-.12-.24l.15.36c-.08-.21-.14-.42-.17-.64l.05.4c-.03-.24-.03-.48,0-.73l-.05.4c.04-.24.1-.48.19-.7l-.15.36c.09-.2.19-.39.32-.57l-.23.3c.12-.16.26-.3.41-.42.28-.23.44-.72.44-1.06,0-.37-.16-.81-.44-1.06s-.66-.46-1.06-.44c-.42.02-.74.18-1.06.44-1.48,1.2-1.75,3.49-.87,5.11.31.58,1.07.86,1.69.69,1.44-.4,2.63-1.3,3.52-2.48.41-.54.71-1.15.93-1.79.05-.13.09-.27.13-.41.11-.47.01-.91-.25-1.31-.2-.31-.43-.61-.7-.86-.94-.87-2.25-1.38-3.55-1.31-.73.04-1.42.21-2.07.56-.28.15-.57.36-.8.58-.35.32-.51.92-.58,1.39-.27,1.65.22,3.48,1.55,4.59.31.26.64.44,1.06.44.37,0,.81-.16,1.06-.44.51-.55.64-1.59,0-2.12h0Z"/>
  <path d="M11.54,28.48c-.23-.14-.46-.29-.67-.45l.3.23c-.46-.36-.88-.78-1.24-1.24l.23.3c-.36-.47-.66-.98-.89-1.52l.15.36c-.12-.29-.22-.59-.31-.9l-1.05,1.85h.05c-.13,0-.27.03-.4.05.2-.02.39-.02.59,0l-.4-.05c.21.03.41.09.61.17l-.36-.15c.22.1.41.21.6.36l-.3-.23c.2.16.38.34.54.54l-.23-.3c.17.22.31.46.41.71l-.15-.36c.09.22.15.45.19.68l-.05-.4c.03.22.03.43,0,.65l.05-.4c-.02.11-.04.22-.07.32-.21.75.26,1.67,1.05,1.85s1.62-.24,1.85-1.05c.4-1.41-.07-2.85-1-3.94-.41-.49-.95-.86-1.54-1.1-.33-.14-.63-.23-.99-.27-.44-.06-.79-.03-1.24.03-.33.05-.74.4-.9.69-.19.36-.26.76-.15,1.16.56,2.08,1.94,3.92,3.79,5.02.68.4,1.68.18,2.05-.54s.18-1.63-.54-2.05h0Z"/>
</svg>