<?xml version="1.0" encoding="UTF-8"?>
<svg id="_Слой_1" data-name="Слой_1" xmlns="http://www.w3.org/2000/svg" version="1.1" viewBox="0 0 53.45 55.27">
  <!-- Generator: Adobe Illustrator 29.0.0, SVG Export Plug-In . SVG Version: 2.1.0 Build 186)  -->
  <path d="M36.99,43.8c3.87-5.31,6.32-12.05,5.71-18.68-.55-5.9-3.48-11.1-8.54-14.27-4.51-2.82-10.34-3.69-15.2-1.24-5.24,2.64-8.01,8.54-8.29,14.2-.37,7.66,3.95,14.64,8.92,20.1,1.3,1.43,3.42-.7,2.12-2.12-3.91-4.29-7.43-9.58-7.99-15.51-.44-4.77,1.16-10.17,5.16-13.1,3.73-2.73,8.67-2.47,12.63-.39,4.48,2.35,7.39,6.56,8.1,11.56.91,6.38-1.5,12.83-5.21,17.93-1.14,1.56,1.46,3.06,2.59,1.51h0Z"/>
  <path d="M18.97,44.88l.85,8.67c.08.82.62,1.49,1.5,1.5,4.86.07,9.72.14,14.58.22,1.93.03,1.93-2.97,0-3-4.86-.07-9.72-.14-14.58-.22l1.5,1.5-.85-8.67c-.08-.81-.63-1.5-1.5-1.5-.75,0-1.58.69-1.5,1.5h0Z"/>
  <path d="M34.4,43.21l.63,9.59c.05.78.65,1.54,1.5,1.5.77-.03,1.55-.66,1.5-1.5l-.63-9.59c-.05-.78-.65-1.54-1.5-1.5-.77.03-1.55.66-1.5,1.5h0Z"/>
  <path d="M21.3,45.75h13.34c1.93,0,1.93-3,0-3h-13.34c-1.93,0-1.93,3,0,3h0Z"/>
  <path d="M25.99,17.18l5.89,4.78c.32.26.63.44,1.06.44.37,0,.81-.16,1.06-.44.5-.55.65-1.59,0-2.12-1.96-1.59-3.93-3.19-5.89-4.78-.32-.26-.63-.44-1.06-.44-.37,0-.81.16-1.06.44-.5.55-.65,1.59,0,2.12h0Z"/>
  <path d="M37.97,5.99c.69-1.25,1.39-2.5,2.08-3.75.19-.34.26-.77.15-1.16-.1-.35-.36-.73-.69-.9-.71-.37-1.65-.19-2.05.54-.69,1.25-1.39,2.5-2.08,3.75-.19.34-.26.77-.15,1.16.1.35.36.73.69.9.71.37,1.65.19,2.05-.54h0Z"/>
  <path d="M47.15,23.65h4.79c.78,0,1.54-.69,1.5-1.5s-.66-1.5-1.5-1.5h-4.79c-.78,0-1.54.69-1.5,1.5s.66,1.5,1.5,1.5h0Z"/>
  <path d="M44.52,37.83l4.38,2.71c.67.41,1.68.17,2.05-.54s.17-1.61-.54-2.05l-4.38-2.71c-.67-.41-1.68-.17-2.05.54s-.17,1.61.54,2.05h0Z"/>
  <path d="M15.43,6.34c-.9-1.11-1.81-2.22-2.71-3.34-.23-.28-.72-.44-1.06-.44-.37,0-.81.16-1.06.44s-.46.66-.44,1.06l.05.4c.07.25.2.47.39.66.9,1.11,1.81,2.22,2.71,3.34.23.28.72.44,1.06.44.37,0,.81-.16,1.06-.44s.46-.66.44-1.06l-.05-.4c-.07-.25-.2-.47-.39-.66h0Z"/>
  <path d="M5.88,22.32l-4.38-.42c-.36-.03-.81.19-1.06.44-.26.26-.46.69-.44,1.06s.14.79.44,1.06.64.4,1.06.44l4.38.42c.36.03.81-.19,1.06-.44.26-.26.46-.69.44-1.06s-.14-.79-.44-1.06-.64-.4-1.06-.44h0Z"/>
  <path d="M10.48,38.91c-.9.7-1.8,1.39-2.71,2.09-.17.09-.32.22-.42.39-.13.14-.22.31-.27.51-.1.36-.05.84.15,1.16s.51.6.9.69.85.09,1.16-.15l2.71-2.09c.17-.09.32-.22.42-.39.13-.14.22-.31.27-.51.1-.36.05-.84-.15-1.16s-.51-.6-.9-.69-.85-.09-1.16.15h0Z"/>
</svg>